{
 "cells": [
  {
   "cell_type": "markdown",
   "metadata": {},
   "source": [
    "# Preprocessing\n",
    "\n",
    "Here we define useful methods that preprocess the MIDI data into the form that we want. There are mainly 2 way we want to represent the data. One way is a 3D matrix of notes and whether it was sustained or not and a 2D matrix of velocity. Another way is a 3D matrix of (notes, duration, velocity). These two representation of the MIDI data will be used differently in 2 different style transfer tasks that we want to explore. We will definitely use representation 1 first and then try to see if representation 2 has merits"
   ]
  },
  {
   "cell_type": "code",
   "execution_count": 1,
   "metadata": {},
   "outputs": [],
   "source": [
    "import os\n",
    "import mido\n",
    "import numpy as np\n",
    "import matplotlib.pyplot as plt"
   ]
  },
  {
   "cell_type": "markdown",
   "metadata": {},
   "source": [
    "## Representation 1\n",
    "\n",
    "We will have a 3D matrix of notes and whether it was sustatined from the previous note or not, as well as a 2D matrix of velocity."
   ]
  },
  {
   "cell_type": "code",
   "execution_count": null,
   "metadata": {},
   "outputs": [],
   "source": [
    "fpath = \"TPD/classical/BENABD08.mid\"\n",
    "midi = mido.MidiFile(fpath)"
   ]
  },
  {
   "cell_type": "markdown",
   "metadata": {},
   "source": [
    "## Representation 2\n",
    "\n",
    "In this representation we will create a 3D array where each row is a timestamp. Each column is one of the 128 notes that the note was on + 2 damper notes, and each depth is (whether the note was and its velocity, and the duration of the note). This encodes almost all information about the music.\n",
    "\n",
    "Additionally, we will also encode the "
   ]
  },
  {
   "cell_type": "code",
   "execution_count": 3,
   "metadata": {},
   "outputs": [],
   "source": [
    "fpath = \"TPD/classical/BENABD08.mid\"\n",
    "midi = mido.MidiFile(fpath)\n"
   ]
  },
  {
   "cell_type": "code",
   "execution_count": 4,
   "metadata": {
    "scrolled": true
   },
   "outputs": [
    {
     "name": "stdout",
     "output_type": "stream",
     "text": [
      "<meta message set_tempo tempo=512819 time=0>\n",
      "<meta message time_signature numerator=4 denominator=4 clocks_per_click=24 notated_32nd_notes_per_beat=8 time=0>\n",
      "<meta message track_name name='Etude, Opus 33/3M. Benabdallah' time=0>\n",
      "program_change channel=0 program=0 time=0\n",
      "control_change channel=0 control=0 value=0 time=5\n",
      "control_change channel=0 control=32 value=0 time=1\n",
      "control_change channel=0 control=7 value=100 time=2\n",
      "control_change channel=0 control=64 value=9 time=1912\n",
      "control_change channel=0 control=64 value=36 time=78\n",
      "control_change channel=0 control=64 value=48 time=79\n",
      "control_change channel=0 control=64 value=51 time=65\n",
      "control_change channel=0 control=64 value=53 time=46\n",
      "control_change channel=0 control=64 value=56 time=107\n",
      "control_change channel=0 control=67 value=8 time=68\n",
      "control_change channel=0 control=64 value=58 time=38\n",
      "control_change channel=0 control=67 value=12 time=17\n",
      "control_change channel=0 control=67 value=18 time=37\n",
      "control_change channel=0 control=67 value=23 time=37\n",
      "control_change channel=0 control=64 value=60 time=22\n",
      "control_change channel=0 control=67 value=29 time=15\n",
      "control_change channel=0 control=64 value=61 time=1\n",
      "control_change channel=0 control=67 value=34 time=17\n",
      "control_change channel=0 control=67 value=38 time=18\n",
      "control_change channel=0 control=64 value=62 time=4\n",
      "control_change channel=0 control=67 value=43 time=16\n",
      "control_change channel=0 control=67 value=49 time=18\n",
      "control_change channel=0 control=67 value=55 time=17\n",
      "control_change channel=0 control=67 value=59 time=20\n",
      "control_change channel=0 control=67 value=63 time=18\n",
      "control_change channel=0 control=67 value=70 time=35\n",
      "control_change channel=0 control=64 value=63 time=5\n",
      "control_change channel=0 control=67 value=74 time=14\n",
      "control_change channel=0 control=64 value=65 time=4\n",
      "control_change channel=0 control=64 value=66 time=37\n",
      "control_change channel=0 control=67 value=81 time=9\n",
      "control_change channel=0 control=67 value=85 time=19\n",
      "control_change channel=0 control=64 value=67 time=9\n",
      "control_change channel=0 control=67 value=92 time=29\n",
      "control_change channel=0 control=64 value=69 time=8\n",
      "control_change channel=0 control=67 value=99 time=30\n",
      "control_change channel=0 control=64 value=71 time=6\n",
      "control_change channel=0 control=67 value=106 time=31\n",
      "control_change channel=0 control=64 value=74 time=7\n",
      "control_change channel=0 control=64 value=76 time=17\n",
      "control_change channel=0 control=67 value=111 time=11\n",
      "control_change channel=0 control=64 value=78 time=7\n",
      "control_change channel=0 control=64 value=81 time=19\n",
      "control_change channel=0 control=67 value=117 time=12\n",
      "control_change channel=0 control=64 value=83 time=7\n",
      "control_change channel=0 control=67 value=123 time=28\n",
      "control_change channel=0 control=64 value=87 time=8\n",
      "control_change channel=0 control=67 value=127 time=30\n",
      "control_change channel=0 control=64 value=94 time=7\n",
      "control_change channel=0 control=64 value=100 time=19\n",
      "control_change channel=0 control=64 value=107 time=16\n",
      "control_change channel=0 control=64 value=112 time=19\n",
      "control_change channel=0 control=64 value=116 time=19\n",
      "control_change channel=0 control=64 value=123 time=36\n",
      "control_change channel=0 control=64 value=127 time=20\n",
      "note_on channel=0 note=43 velocity=43 time=272\n",
      "note_on channel=0 note=31 velocity=36 time=8\n",
      "note_on channel=0 note=31 velocity=0 time=62\n",
      "note_on channel=0 note=43 velocity=0 time=4\n",
      "note_on channel=0 note=44 velocity=45 time=30\n",
      "note_on channel=0 note=32 velocity=35 time=2\n",
      "control_change channel=0 control=64 value=117 time=27\n",
      "control_change channel=0 control=64 value=107 time=17\n",
      "note_on channel=0 note=46 velocity=55 time=15\n",
      "control_change channel=0 control=64 value=95 time=4\n",
      "note_on channel=0 note=34 velocity=38 time=4\n",
      "note_on channel=0 note=44 velocity=0 time=0\n",
      "note_on channel=0 note=32 velocity=0 time=1\n",
      "control_change channel=0 control=64 value=82 time=14\n",
      "control_change channel=0 control=64 value=70 time=16\n",
      "control_change channel=0 control=64 value=60 time=19\n",
      "note_on channel=0 note=34 velocity=0 time=16\n",
      "control_change channel=0 control=64 value=53 time=2\n",
      "note_on channel=0 note=46 velocity=0 time=13\n",
      "control_change channel=0 control=64 value=50 time=6\n",
      "control_change channel=0 control=64 value=48 time=18\n",
      "note_on channel=0 note=48 velocity=56 time=0\n",
      "note_on channel=0 note=36 velocity=39 time=3\n",
      "control_change channel=0 control=64 value=39 time=17\n",
      "control_change channel=0 control=64 value=0 time=20\n",
      "control_change channel=0 control=64 value=33 time=125\n",
      "control_change channel=0 control=64 value=52 time=20\n",
      "control_change channel=0 control=64 value=62 time=17\n",
      "control_change channel=0 control=64 value=69 time=20\n",
      "control_change channel=0 control=64 value=73 time=18\n",
      "control_change channel=0 control=64 value=76 time=20\n",
      "control_change channel=0 control=64 value=80 time=17\n",
      "control_change channel=0 control=64 value=85 time=20\n",
      "control_change channel=0 control=64 value=93 time=17\n",
      "control_change channel=0 control=64 value=101 time=19\n",
      "control_change channel=0 control=64 value=110 time=18\n",
      "control_change channel=0 control=64 value=117 time=18\n",
      "control_change channel=0 control=64 value=121 time=33\n",
      "control_change channel=0 control=64 value=125 time=18\n",
      "note_on channel=0 note=48 velocity=0 time=166\n",
      "note_on channel=0 note=36 velocity=0 time=29\n",
      "note_on channel=0 note=53 velocity=55 time=947\n",
      "note_on channel=0 note=62 velocity=70 time=1\n",
      "note_on channel=0 note=56 velocity=66 time=11\n",
      "note_on channel=0 note=48 velocity=45 time=15\n",
      "control_change channel=0 control=64 value=112 time=4\n",
      "control_change channel=0 control=64 value=101 time=19\n",
      "control_change channel=0 control=64 value=96 time=20\n",
      "control_change channel=0 control=64 value=100 time=91\n",
      "control_change channel=0 control=64 value=106 time=38\n",
      "control_change channel=0 control=64 value=111 time=37\n",
      "control_change channel=0 control=64 value=116 time=55\n",
      "control_change channel=0 control=64 value=120 time=37\n",
      "control_change channel=0 control=64 value=124 time=92\n",
      "control_change channel=0 control=64 value=120 time=456\n",
      "control_change channel=0 control=64 value=114 time=73\n",
      "control_change channel=0 control=64 value=110 time=36\n",
      "control_change channel=0 control=64 value=105 time=39\n",
      "control_change channel=0 control=64 value=99 time=38\n",
      "control_change channel=0 control=64 value=95 time=17\n",
      "control_change channel=0 control=64 value=90 time=18\n",
      "control_change channel=0 control=64 value=85 time=17\n",
      "control_change channel=0 control=64 value=80 time=19\n",
      "control_change channel=0 control=64 value=71 time=20\n",
      "control_change channel=0 control=64 value=62 time=17\n",
      "control_change channel=0 control=64 value=52 time=18\n",
      "control_change channel=0 control=64 value=44 time=18\n",
      "control_change channel=0 control=64 value=41 time=20\n",
      "control_change channel=0 control=64 value=44 time=93\n",
      "control_change channel=0 control=64 value=50 time=16\n",
      "control_change channel=0 control=64 value=56 time=19\n",
      "control_change channel=0 control=64 value=62 time=20\n",
      "control_change channel=0 control=64 value=67 time=17\n",
      "control_change channel=0 control=64 value=70 time=17\n",
      "control_change channel=0 control=64 value=73 time=19\n",
      "control_change channel=0 control=64 value=76 time=19\n",
      "control_change channel=0 control=64 value=80 time=18\n",
      "control_change channel=0 control=64 value=85 time=19\n",
      "control_change channel=0 control=64 value=93 time=19\n",
      "control_change channel=0 control=64 value=101 time=18\n",
      "control_change channel=0 control=64 value=110 time=19\n",
      "control_change channel=0 control=64 value=118 time=18\n",
      "control_change channel=0 control=64 value=124 time=18\n",
      "note_on channel=0 note=53 velocity=0 time=79\n",
      "note_on channel=0 note=56 velocity=0 time=13\n",
      "note_on channel=0 note=62 velocity=0 time=135\n",
      "note_on channel=0 note=48 velocity=0 time=31\n",
      "note_on channel=0 note=54 velocity=50 time=417\n",
      "note_on channel=0 note=63 velocity=56 time=2\n",
      "note_on channel=0 note=59 velocity=50 time=11\n",
      "note_on channel=0 note=44 velocity=44 time=8\n",
      "note_on channel=0 note=59 velocity=0 time=50\n",
      "note_on channel=0 note=54 velocity=0 time=111\n",
      "note_on channel=0 note=44 velocity=0 time=49\n",
      "note_on channel=0 note=63 velocity=0 time=21\n",
      "note_on channel=0 note=60 velocity=53 time=8\n",
      "control_change channel=0 control=64 value=112 time=18\n",
      "note_on channel=0 note=39 velocity=49 time=0\n",
      "note_on channel=0 note=48 velocity=38 time=0\n",
      "note_on channel=0 note=67 velocity=58 time=0\n",
      "note_on channel=0 note=55 velocity=52 time=2\n",
      "control_change channel=0 control=64 value=96 time=16\n",
      "control_change channel=0 control=64 value=76 time=20\n",
      "control_change channel=0 control=64 value=52 time=32\n",
      "control_change channel=0 control=64 value=0 time=18\n",
      "control_change channel=0 control=64 value=43 time=112\n",
      "control_change channel=0 control=64 value=59 time=18\n",
      "control_change channel=0 control=64 value=69 time=18\n",
      "control_change channel=0 control=64 value=77 time=19\n",
      "control_change channel=0 control=64 value=85 time=18\n",
      "control_change channel=0 control=64 value=94 time=17\n",
      "note_on channel=0 note=39 velocity=0 time=16\n",
      "control_change channel=0 control=64 value=102 time=3\n",
      "control_change channel=0 control=64 value=111 time=19\n",
      "note_on channel=0 note=55 velocity=0 time=1\n",
      "control_change channel=0 control=64 value=119 time=18\n",
      "control_change channel=0 control=64 value=125 time=18\n",
      "note_on channel=0 note=60 velocity=0 time=91\n",
      "note_on channel=0 note=48 velocity=0 time=7\n",
      "note_on channel=0 note=67 velocity=0 time=24\n",
      "note_on channel=0 note=79 velocity=44 time=1007\n",
      "note_on channel=0 note=60 velocity=41 time=8\n",
      "note_on channel=0 note=67 velocity=40 time=5\n",
      "note_on channel=0 note=72 velocity=40 time=3\n",
      "note_on channel=0 note=72 velocity=0 time=86\n",
      "note_on channel=0 note=79 velocity=0 time=79\n",
      "note_on channel=0 note=67 velocity=0 time=41\n",
      "note_on channel=0 note=60 velocity=0 time=30\n",
      "control_change channel=0 control=67 value=123 time=1078\n",
      "control_change channel=0 control=67 value=119 time=88\n",
      "control_change channel=0 control=67 value=114 time=332\n",
      "control_change channel=0 control=67 value=110 time=91\n",
      "control_change channel=0 control=67 value=106 time=111\n",
      "note_on channel=0 note=27 velocity=59 time=140\n",
      "note_on channel=0 note=39 velocity=44 time=35\n",
      "note_on channel=0 note=27 velocity=0 time=36\n",
      "note_on channel=0 note=39 velocity=0 time=9\n",
      "note_on channel=0 note=29 velocity=48 time=19\n",
      "note_on channel=0 note=41 velocity=60 time=19\n",
      "note_on channel=0 note=29 velocity=0 time=34\n",
      "note_on channel=0 note=31 velocity=64 time=2\n",
      "note_on channel=0 note=41 velocity=0 time=17\n",
      "note_on channel=0 note=43 velocity=68 time=19\n",
      "note_on channel=0 note=31 velocity=0 time=72\n",
      "note_on channel=0 note=32 velocity=58 time=6\n",
      "note_on channel=0 note=44 velocity=67 time=2\n",
      "note_on channel=0 note=43 velocity=0 time=38\n",
      "control_change channel=0 control=67 value=101 time=7\n",
      "note_on channel=0 note=32 velocity=0 time=31\n",
      "note_on channel=0 note=34 velocity=68 time=5\n",
      "note_on channel=0 note=46 velocity=73 time=5\n",
      "note_on channel=0 note=44 velocity=0 time=9\n",
      "control_change channel=0 control=67 value=95 time=4\n",
      "control_change channel=0 control=67 value=90 time=21\n",
      "control_change channel=0 control=67 value=85 time=18\n",
      "note_on channel=0 note=46 velocity=0 time=16\n",
      "control_change channel=0 control=67 value=81 time=21\n",
      "note_on channel=0 note=34 velocity=0 time=15\n",
      "control_change channel=0 control=64 value=115 time=1\n",
      "note_on channel=0 note=36 velocity=54 time=18\n",
      "control_change channel=0 control=64 value=87 time=3\n",
      "control_change channel=0 control=64 value=28 time=17\n",
      "note_on channel=0 note=48 velocity=72 time=0\n",
      "control_change channel=0 control=64 value=0 time=19\n",
      "control_change channel=0 control=67 value=77 time=17\n",
      "control_change channel=0 control=64 value=26 time=205\n",
      "control_change channel=0 control=67 value=69 time=2\n",
      "control_change channel=0 control=64 value=54 time=16\n",
      "control_change channel=0 control=67 value=62 time=1\n",
      "control_change channel=0 control=64 value=64 time=16\n",
      "control_change channel=0 control=67 value=54 time=1\n",
      "control_change channel=0 control=64 value=68 time=17\n",
      "control_change channel=0 control=64 value=71 time=19\n",
      "control_change channel=0 control=64 value=77 time=19\n",
      "control_change channel=0 control=64 value=87 time=18\n",
      "control_change channel=0 control=64 value=100 time=21\n",
      "control_change channel=0 control=64 value=115 time=17\n",
      "control_change channel=0 control=64 value=127 time=19\n",
      "control_change channel=0 control=67 value=50 time=0\n",
      "note_on channel=0 note=36 velocity=0 time=165\n",
      "note_on channel=0 note=48 velocity=0 time=25\n",
      "note_on channel=0 note=62 velocity=81 time=829\n",
      "note_on channel=0 note=48 velocity=56 time=14\n",
      "note_on channel=0 note=53 velocity=60 time=5\n",
      "note_on channel=0 note=56 velocity=66 time=1\n",
      "control_change channel=0 control=64 value=122 time=44\n",
      "control_change channel=0 control=64 value=127 time=161\n",
      "control_change channel=0 control=64 value=123 time=951\n",
      "control_change channel=0 control=67 value=54 time=1\n",
      "control_change channel=0 control=64 value=117 time=38\n",
      "control_change channel=0 control=64 value=113 time=17\n",
      "control_change channel=0 control=64 value=107 time=19\n",
      "control_change channel=0 control=64 value=99 time=19\n",
      "control_change channel=0 control=64 value=88 time=19\n",
      "control_change channel=0 control=64 value=74 time=18\n",
      "control_change channel=0 control=64 value=58 time=19\n",
      "control_change channel=0 control=64 value=28 time=17\n",
      "control_change channel=0 control=64 value=0 time=18\n",
      "control_change channel=0 control=67 value=58 time=112\n",
      "control_change channel=0 control=64 value=16 time=18\n",
      "control_change channel=0 control=64 value=32 time=18\n",
      "control_change channel=0 control=64 value=46 time=18\n",
      "control_change channel=0 control=64 value=57 time=19\n",
      "control_change channel=0 control=64 value=64 time=17\n",
      "control_change channel=0 control=64 value=68 time=20\n",
      "control_change channel=0 control=67 value=62 time=1\n",
      "control_change channel=0 control=64 value=71 time=16\n",
      "control_change channel=0 control=64 value=74 time=20\n",
      "control_change channel=0 control=64 value=77 time=17\n",
      "control_change channel=0 control=67 value=67 time=2\n",
      "control_change channel=0 control=64 value=81 time=16\n",
      "control_change channel=0 control=64 value=86 time=19\n",
      "control_change channel=0 control=64 value=94 time=19\n",
      "control_change channel=0 control=64 value=103 time=19\n",
      "control_change channel=0 control=64 value=112 time=18\n",
      "control_change channel=0 control=64 value=120 time=20\n",
      "control_change channel=0 control=67 value=72 time=1\n",
      "control_change channel=0 control=64 value=126 time=17\n",
      "note_on channel=0 note=56 velocity=0 time=5\n",
      "control_change channel=0 control=67 value=76 time=31\n",
      "note_on channel=0 note=53 velocity=0 time=25\n",
      "control_change channel=0 control=67 value=80 time=47\n",
      "note_on channel=0 note=62 velocity=0 time=22\n",
      "control_change channel=0 control=67 value=85 time=71\n",
      "note_on channel=0 note=48 velocity=0 time=28\n",
      "control_change channel=0 control=67 value=89 time=133\n",
      "note_on channel=0 note=54 velocity=49 time=274\n",
      "note_on channel=0 note=63 velocity=56 time=6\n",
      "note_on channel=0 note=59 velocity=51 time=14\n",
      "control_change channel=0 control=64 value=113 time=2\n",
      "note_on channel=0 note=44 velocity=44 time=0\n",
      "control_change channel=0 control=64 value=109 time=19\n",
      "control_change channel=0 control=67 value=94 time=0\n",
      "control_change channel=0 control=64 value=114 time=36\n",
      "control_change channel=0 control=67 value=99 time=1\n",
      "note_on channel=0 note=59 velocity=0 time=4\n",
      "control_change channel=0 control=64 value=121 time=12\n",
      "control_change channel=0 control=64 value=127 time=20\n",
      "control_change channel=0 control=67 value=106 time=1\n",
      "control_change channel=0 control=67 value=110 time=16\n",
      "control_change channel=0 control=67 value=116 time=36\n",
      "control_change channel=0 control=67 value=120 time=38\n",
      "note_on channel=0 note=44 velocity=0 time=25\n",
      "note_on channel=0 note=54 velocity=0 time=0\n",
      "control_change channel=0 control=67 value=125 time=33\n",
      "note_on channel=0 note=63 velocity=0 time=20\n",
      "note_on channel=0 note=60 velocity=51 time=22\n",
      "note_on channel=0 note=39 velocity=51 time=3\n",
      "note_on channel=0 note=48 velocity=37 time=2\n",
      "note_on channel=0 note=67 velocity=56 time=1\n",
      "control_change channel=0 control=64 value=120 time=5\n",
      "note_on channel=0 note=55 velocity=48 time=13\n",
      "control_change channel=0 control=64 value=102 time=4\n",
      "control_change channel=0 control=64 value=76 time=19\n",
      "control_change channel=0 control=64 value=36 time=19\n",
      "control_change channel=0 control=64 value=0 time=20\n",
      "control_change channel=0 control=64 value=41 time=109\n",
      "control_change channel=0 control=64 value=61 time=19\n",
      "control_change channel=0 control=64 value=71 time=18\n",
      "control_change channel=0 control=64 value=78 time=33\n",
      "control_change channel=0 control=64 value=86 time=17\n",
      "note_on channel=0 note=55 velocity=0 time=0\n",
      "note_on channel=0 note=39 velocity=0 time=7\n",
      "control_change channel=0 control=64 value=93 time=13\n",
      "control_change channel=0 control=64 value=101 time=19\n",
      "control_change channel=0 control=64 value=110 time=17\n",
      "control_change channel=0 control=64 value=118 time=18\n",
      "control_change channel=0 control=64 value=126 time=19\n",
      "note_on channel=0 note=48 velocity=0 time=42\n",
      "note_on channel=0 note=60 velocity=0 time=3\n",
      "note_on channel=0 note=67 velocity=0 time=22\n",
      "note_on channel=0 note=67 velocity=37 time=1007\n",
      "note_on channel=0 note=79 velocity=46 time=6\n",
      "note_on channel=0 note=72 velocity=39 time=8\n",
      "note_on channel=0 note=60 velocity=29 time=29\n",
      "note_on channel=0 note=72 velocity=0 time=109\n",
      "note_on channel=0 note=79 velocity=0 time=27\n",
      "note_on channel=0 note=60 velocity=0 time=95\n",
      "note_on channel=0 note=67 velocity=0 time=63\n",
      "control_change channel=0 control=67 value=121 time=864\n",
      "control_change channel=0 control=67 value=116 time=36\n",
      "control_change channel=0 control=67 value=109 time=36\n",
      "control_change channel=0 control=67 value=105 time=20\n",
      "control_change channel=0 control=67 value=99 time=19\n",
      "control_change channel=0 control=67 value=92 time=19\n",
      "control_change channel=0 control=67 value=83 time=18\n",
      "control_change channel=0 control=67 value=72 time=18\n",
      "control_change channel=0 control=67 value=61 time=18\n",
      "control_change channel=0 control=67 value=52 time=18\n",
      "control_change channel=0 control=67 value=47 time=19\n",
      "control_change channel=0 control=67 value=43 time=147\n",
      "control_change channel=0 control=64 value=103 time=108\n",
      "control_change channel=0 control=64 value=89 time=18\n",
      "control_change channel=0 control=64 value=95 time=35\n",
      "note_on channel=0 note=24 velocity=58 time=15\n",
      "control_change channel=0 control=64 value=102 time=3\n",
      "control_change channel=0 control=64 value=113 time=20\n",
      "control_change channel=0 control=64 value=125 time=17\n",
      "note_on channel=0 note=36 velocity=74 time=11\n",
      "note_on channel=0 note=26 velocity=54 time=81\n",
      "note_on channel=0 note=24 velocity=0 time=11\n",
      "note_on channel=0 note=36 velocity=0 time=10\n",
      "note_on channel=0 note=38 velocity=66 time=0\n",
      "control_change channel=0 control=67 value=38 time=18\n",
      "note_on channel=0 note=26 velocity=0 time=22\n",
      "note_on channel=0 note=27 velocity=64 time=6\n",
      "note_on channel=0 note=39 velocity=71 time=35\n",
      "note_on channel=0 note=38 velocity=0 time=8\n",
      "note_on channel=0 note=27 velocity=0 time=17\n",
      "control_change channel=0 control=67 value=33 time=2\n",
      "note_on channel=0 note=29 velocity=70 time=1\n",
      "note_on channel=0 note=39 velocity=0 time=28\n",
      "control_change channel=0 control=67 value=27 time=8\n",
      "note_on channel=0 note=29 velocity=0 time=6\n",
      "control_change channel=0 control=67 value=22 time=13\n",
      "note_on channel=0 note=31 velocity=60 time=5\n",
      "note_on channel=0 note=41 velocity=72 time=4\n",
      "control_change channel=0 control=67 value=16 time=11\n",
      "control_change channel=0 control=67 value=11 time=36\n",
      "note_on channel=0 note=43 velocity=78 time=12\n",
      "note_on channel=0 note=41 velocity=0 time=8\n",
      "note_on channel=0 note=32 velocity=79 time=2\n",
      "note_on channel=0 note=31 velocity=0 time=12\n",
      "note_on channel=0 note=44 velocity=78 time=25\n",
      "note_on channel=0 note=43 velocity=0 time=33\n",
      "note_on channel=0 note=34 velocity=87 time=22\n",
      "note_on channel=0 note=46 velocity=80 time=6\n",
      "note_on channel=0 note=32 velocity=0 time=12\n",
      "note_on channel=0 note=44 velocity=0 time=3\n",
      "control_change channel=0 control=67 value=0 time=30\n",
      "note_on channel=0 note=34 velocity=0 time=10\n",
      "note_on channel=0 note=46 velocity=0 time=0\n",
      "note_on channel=0 note=36 velocity=75 time=23\n",
      "note_on channel=0 note=48 velocity=83 time=5\n",
      "control_change channel=0 control=64 value=114 time=71\n",
      "note_on channel=0 note=37 velocity=89 time=7\n",
      "note_on channel=0 note=49 velocity=95 time=2\n",
      "note_on channel=0 note=48 velocity=0 time=4\n",
      "control_change channel=0 control=64 value=62 time=6\n",
      "note_on channel=0 note=36 velocity=0 time=8\n",
      "control_change channel=0 control=64 value=0 time=10\n",
      "control_change channel=0 control=64 value=23 time=256\n",
      "control_change channel=0 control=64 value=51 time=18\n",
      "control_change channel=0 control=64 value=65 time=18\n",
      "control_change channel=0 control=64 value=76 time=20\n",
      "control_change channel=0 control=64 value=90 time=18\n",
      "control_change channel=0 control=64 value=109 time=18\n",
      "control_change channel=0 control=64 value=126 time=17\n",
      "note_on channel=0 note=37 velocity=0 time=104\n",
      "note_on channel=0 note=49 velocity=0 time=13\n",
      "note_on channel=0 note=64 velocity=90 time=617\n",
      "note_on channel=0 note=54 velocity=86 time=3\n",
      "note_on channel=0 note=49 velocity=81 time=3\n",
      "note_on channel=0 note=58 velocity=88 time=3\n",
      "control_change channel=0 control=64 value=101 time=8\n",
      "control_change channel=0 control=64 value=32 time=22\n",
      "control_change channel=0 control=64 value=0 time=15\n",
      "control_change channel=0 control=64 value=19 time=111\n",
      "control_change channel=0 control=64 value=43 time=20\n",
      "control_change channel=0 control=64 value=57 time=16\n",
      "control_change channel=0 control=64 value=65 time=19\n",
      "control_change channel=0 control=64 value=71 time=18\n",
      "control_change channel=0 control=64 value=76 time=20\n",
      "control_change channel=0 control=64 value=80 time=17\n",
      "control_change channel=0 control=64 value=85 time=18\n",
      "control_change channel=0 control=64 value=93 time=19\n",
      "control_change channel=0 control=64 value=104 time=18\n",
      "control_change channel=0 control=64 value=116 time=20\n",
      "control_change channel=0 control=64 value=125 time=17\n",
      "note_on channel=0 note=58 velocity=0 time=568\n",
      "note_on channel=0 note=64 velocity=0 time=179\n",
      "note_on channel=0 note=49 velocity=0 time=95\n",
      "note_on channel=0 note=54 velocity=0 time=75\n",
      "note_on channel=0 note=46 velocity=83 time=307\n",
      "note_on channel=0 note=55 velocity=84 time=1\n",
      "note_on channel=0 note=65 velocity=88 time=5\n",
      "note_on channel=0 note=61 velocity=80 time=1\n",
      "note_on channel=0 note=46 velocity=0 time=79\n",
      "note_on channel=0 note=61 velocity=0 time=2\n",
      "note_on channel=0 note=55 velocity=0 time=41\n",
      "note_on channel=0 note=49 velocity=87 time=147\n",
      "note_on channel=0 note=68 velocity=91 time=2\n",
      "note_on channel=0 note=56 velocity=89 time=1\n",
      "note_on channel=0 note=41 velocity=80 time=2\n",
      "note_on channel=0 note=61 velocity=81 time=5\n",
      "control_change channel=0 control=64 value=112 time=12\n",
      "note_on channel=0 note=65 velocity=0 time=6\n",
      "control_change channel=0 control=64 value=57 time=11\n",
      "control_change channel=0 control=64 value=0 time=17\n",
      "control_change channel=0 control=64 value=15 time=93\n",
      "control_change channel=0 control=64 value=50 time=20\n",
      "control_change channel=0 control=64 value=58 time=18\n",
      "control_change channel=0 control=64 value=67 time=18\n",
      "control_change channel=0 control=64 value=78 time=17\n",
      "control_change channel=0 control=64 value=94 time=20\n",
      "control_change channel=0 control=64 value=120 time=18\n",
      "note_on channel=0 note=41 velocity=0 time=4\n",
      "control_change channel=0 control=64 value=127 time=13\n",
      "note_on channel=0 note=56 velocity=0 time=18\n",
      "note_on channel=0 note=49 velocity=0 time=3\n",
      "note_on channel=0 note=68 velocity=0 time=99\n",
      "note_on channel=0 note=61 velocity=0 time=64\n",
      "note_on channel=0 note=41 velocity=63 time=647\n",
      "note_on channel=0 note=47 velocity=62 time=28\n",
      "note_on channel=0 note=50 velocity=70 time=52\n",
      "note_on channel=0 note=56 velocity=94 time=72\n",
      "note_on channel=0 note=59 velocity=91 time=3\n",
      "note_on channel=0 note=62 velocity=85 time=1\n",
      "note_on channel=0 note=71 velocity=91 time=0\n",
      "control_change channel=0 control=64 value=89 time=5\n",
      "note_on channel=0 note=68 velocity=84 time=2\n",
      "control_change channel=0 control=64 value=0 time=16\n",
      "control_change channel=0 control=64 value=36 time=202\n",
      "control_change channel=0 control=64 value=54 time=18\n",
      "control_change channel=0 control=64 value=61 time=19\n",
      "control_change channel=0 control=64 value=65 time=18\n",
      "control_change channel=0 control=64 value=69 time=20\n",
      "control_change channel=0 control=64 value=75 time=18\n",
      "control_change channel=0 control=64 value=83 time=16\n",
      "control_change channel=0 control=64 value=91 time=19\n",
      "control_change channel=0 control=64 value=99 time=19\n",
      "control_change channel=0 control=64 value=106 time=19\n",
      "control_change channel=0 control=64 value=115 time=18\n",
      "control_change channel=0 control=64 value=126 time=17\n",
      "note_on channel=0 note=59 velocity=0 time=739\n",
      "note_on channel=0 note=56 velocity=0 time=113\n",
      "note_on channel=0 note=62 velocity=0 time=86\n",
      "note_on channel=0 note=71 velocity=0 time=50\n",
      "note_on channel=0 note=47 velocity=0 time=38\n",
      "note_on channel=0 note=68 velocity=0 time=0\n",
      "note_on channel=0 note=41 velocity=0 time=7\n",
      "note_on channel=0 note=50 velocity=0 time=20\n",
      "control_change channel=0 control=64 value=97 time=340\n",
      "note_on channel=0 note=41 velocity=79 time=5\n",
      "note_on channel=0 note=57 velocity=82 time=0\n",
      "note_on channel=0 note=48 velocity=79 time=4\n",
      "note_on channel=0 note=72 velocity=88 time=0\n",
      "note_on channel=0 note=51 velocity=80 time=1\n",
      "note_on channel=0 note=63 velocity=81 time=2\n",
      "note_on channel=0 note=60 velocity=87 time=1\n",
      "note_on channel=0 note=69 velocity=81 time=2\n",
      "control_change channel=0 control=64 value=0 time=2\n",
      "control_change channel=0 control=64 value=49 time=56\n",
      "control_change channel=0 control=64 value=79 time=19\n",
      "control_change channel=0 control=64 value=114 time=18\n",
      "note_on channel=0 note=41 velocity=0 time=8\n",
      "note_on channel=0 note=63 velocity=0 time=3\n",
      "control_change channel=0 control=64 value=127 time=7\n",
      "note_on channel=0 note=60 velocity=0 time=10\n",
      "note_on channel=0 note=48 velocity=0 time=4\n",
      "note_on channel=0 note=72 velocity=0 time=8\n",
      "note_on channel=0 note=69 velocity=0 time=1\n",
      "note_on channel=0 note=51 velocity=0 time=5\n",
      "note_on channel=0 note=56 velocity=82 time=405\n",
      "note_on channel=0 note=60 velocity=80 time=4\n",
      "note_on channel=0 note=72 velocity=76 time=0\n",
      "note_on channel=0 note=75 velocity=83 time=1\n",
      "note_on channel=0 note=66 velocity=76 time=2\n",
      "control_change channel=0 control=64 value=101 time=2\n",
      "control_change channel=0 control=64 value=67 time=19\n",
      "control_change channel=0 control=64 value=0 time=19\n",
      "note_on channel=0 note=57 velocity=0 time=2\n",
      "control_change channel=0 control=64 value=16 time=399\n",
      "control_change channel=0 control=64 value=25 time=16\n",
      "control_change channel=0 control=64 value=36 time=19\n",
      "control_change channel=0 control=64 value=45 time=18\n",
      "control_change channel=0 control=64 value=51 time=20\n",
      "control_change channel=0 control=64 value=55 time=18\n",
      "control_change channel=0 control=64 value=58 time=17\n",
      "control_change channel=0 control=64 value=60 time=20\n",
      "control_change channel=0 control=64 value=62 time=19\n",
      "control_change channel=0 control=64 value=65 time=17\n",
      "control_change channel=0 control=64 value=67 time=18\n",
      "control_change channel=0 control=64 value=69 time=37\n",
      "control_change channel=0 control=64 value=71 time=94\n",
      "control_change channel=0 control=67 value=8 time=55\n",
      "control_change channel=0 control=64 value=73 time=35\n",
      "control_change channel=0 control=67 value=12 time=2\n",
      "control_change channel=0 control=64 value=75 time=36\n",
      "control_change channel=0 control=67 value=16 time=37\n",
      "control_change channel=0 control=64 value=77 time=38\n",
      "control_change channel=0 control=67 value=21 time=1\n",
      "control_change channel=0 control=64 value=80 time=16\n",
      "control_change channel=0 control=64 value=83 time=33\n",
      "control_change channel=0 control=67 value=26 time=1\n",
      "control_change channel=0 control=64 value=87 time=17\n",
      "control_change channel=0 control=64 value=94 time=37\n",
      "control_change channel=0 control=64 value=100 time=36\n",
      "control_change channel=0 control=67 value=37 time=2\n",
      "control_change channel=0 control=64 value=104 time=18\n",
      "control_change channel=0 control=67 value=49 time=1\n",
      "control_change channel=0 control=64 value=109 time=17\n",
      "control_change channel=0 control=67 value=56 time=1\n",
      "control_change channel=0 control=64 value=113 time=15\n",
      "control_change channel=0 control=64 value=118 time=19\n",
      "control_change channel=0 control=64 value=125 time=38\n",
      "control_change channel=0 control=67 value=64 time=18\n",
      "control_change channel=0 control=67 value=68 time=20\n",
      "control_change channel=0 control=67 value=73 time=90\n",
      "control_change channel=0 control=67 value=78 time=55\n",
      "control_change channel=0 control=67 value=82 time=74\n",
      "note_on channel=0 note=66 velocity=0 time=614\n",
      "note_on channel=0 note=75 velocity=0 time=26\n",
      "control_change channel=0 control=67 value=86 time=112\n",
      "note_on channel=0 note=58 velocity=56 time=23\n",
      "note_on channel=0 note=60 velocity=0 time=6\n",
      "control_change channel=0 control=64 value=116 time=6\n",
      "control_change channel=0 control=64 value=110 time=20\n",
      "control_change channel=0 control=67 value=92 time=1\n",
      "note_on channel=0 note=72 velocity=0 time=34\n",
      "control_change channel=0 control=64 value=116 time=19\n",
      "control_change channel=0 control=67 value=96 time=19\n",
      "control_change channel=0 control=64 value=122 time=18\n",
      "control_change channel=0 control=67 value=100 time=19\n",
      "control_change channel=0 control=64 value=127 time=18\n",
      "control_change channel=0 control=67 value=104 time=37\n",
      "control_change channel=0 control=67 value=108 time=73\n",
      "control_change channel=0 control=67 value=113 time=38\n",
      "note_on channel=0 note=59 velocity=59 time=37\n",
      "control_change channel=0 control=67 value=118 time=19\n",
      "control_change channel=0 control=64 value=116 time=17\n",
      "control_change channel=0 control=64 value=108 time=19\n",
      "control_change channel=0 control=67 value=123 time=2\n",
      "note_on channel=0 note=58 velocity=0 time=26\n",
      "control_change channel=0 control=67 value=127 time=9\n",
      "note_on channel=0 note=56 velocity=0 time=8\n",
      "control_change channel=0 control=64 value=114 time=28\n",
      "control_change channel=0 control=64 value=122 time=18\n",
      "control_change channel=0 control=64 value=127 time=19\n",
      "control_change channel=0 control=64 value=115 time=308\n",
      "note_on channel=0 note=55 velocity=45 time=1\n",
      "note_on channel=0 note=60 velocity=46 time=8\n",
      "note_on channel=0 note=51 velocity=45 time=7\n",
      "control_change channel=0 control=64 value=100 time=3\n",
      "note_on channel=0 note=59 velocity=0 time=1\n",
      "note_on channel=0 note=72 velocity=57 time=2\n",
      "note_on channel=0 note=67 velocity=42 time=8\n",
      "control_change channel=0 control=64 value=82 time=7\n",
      "control_change channel=0 control=64 value=62 time=21\n",
      "control_change channel=0 control=64 value=13 time=18\n",
      "control_change channel=0 control=64 value=0 time=17\n",
      "control_change channel=0 control=64 value=20 time=146\n",
      "control_change channel=0 control=64 value=46 time=20\n",
      "control_change channel=0 control=64 value=60 time=19\n",
      "control_change channel=0 control=64 value=68 time=19\n",
      "control_change channel=0 control=64 value=75 time=18\n",
      "control_change channel=0 control=64 value=82 time=18\n",
      "control_change channel=0 control=64 value=91 time=18\n",
      "control_change channel=0 control=64 value=100 time=18\n",
      "control_change channel=0 control=64 value=108 time=19\n",
      "control_change channel=0 control=64 value=115 time=19\n",
      "control_change channel=0 control=64 value=122 time=18\n",
      "note_on channel=0 note=60 velocity=0 time=6\n",
      "control_change channel=0 control=64 value=126 time=11\n",
      "note_on channel=0 note=51 velocity=0 time=115\n",
      "note_on channel=0 note=55 velocity=0 time=4\n",
      "note_on channel=0 note=67 velocity=0 time=0\n",
      "note_on channel=0 note=72 velocity=0 time=5\n",
      "note_on channel=0 note=72 velocity=33 time=860\n",
      "note_on channel=0 note=60 velocity=35 time=6\n",
      "note_on channel=0 note=79 velocity=38 time=6\n",
      "note_on channel=0 note=67 velocity=43 time=63\n",
      "note_on channel=0 note=72 velocity=0 time=256\n",
      "note_on channel=0 note=79 velocity=0 time=3\n",
      "note_on channel=0 note=60 velocity=0 time=17\n",
      "note_on channel=0 note=67 velocity=0 time=25\n",
      "note_on channel=0 note=61 velocity=65 time=1710\n",
      "note_on channel=0 note=58 velocity=50 time=26\n",
      "control_change channel=0 control=64 value=115 time=76\n",
      "control_change channel=0 control=64 value=99 time=18\n",
      "control_change channel=0 control=64 value=79 time=16\n",
      "control_change channel=0 control=64 value=56 time=22\n",
      "note_on channel=0 note=60 velocity=75 time=3\n",
      "control_change channel=0 control=64 value=0 time=13\n",
      "note_on channel=0 note=56 velocity=58 time=8\n",
      "note_on channel=0 note=61 velocity=0 time=14\n",
      "note_on channel=0 note=58 velocity=0 time=5\n",
      "control_change channel=0 control=64 value=38 time=212\n",
      "control_change channel=0 control=64 value=53 time=16\n",
      "control_change channel=0 control=64 value=61 time=20\n",
      "control_change channel=0 control=64 value=66 time=18\n",
      "control_change channel=0 control=64 value=70 time=19\n",
      "control_change channel=0 control=64 value=74 time=18\n",
      "control_change channel=0 control=64 value=79 time=20\n",
      "control_change channel=0 control=64 value=85 time=18\n",
      "control_change channel=0 control=64 value=92 time=19\n",
      "control_change channel=0 control=64 value=100 time=19\n",
      "control_change channel=0 control=64 value=107 time=16\n",
      "control_change channel=0 control=64 value=113 time=21\n",
      "control_change channel=0 control=64 value=119 time=16\n",
      "control_change channel=0 control=64 value=123 time=20\n",
      "control_change channel=0 control=64 value=127 time=54\n",
      "control_change channel=0 control=67 value=123 time=75\n",
      "control_change channel=0 control=67 value=119 time=183\n",
      "note_on channel=0 note=67 velocity=76 time=214\n",
      "note_on channel=0 note=64 velocity=55 time=27\n",
      "note_on channel=0 note=56 velocity=0 time=583\n",
      "note_on channel=0 note=64 velocity=0 time=178\n",
      "note_on channel=0 note=60 velocity=0 time=138\n",
      "note_on channel=0 note=67 velocity=0 time=120\n",
      "note_on channel=0 note=68 velocity=63 time=814\n",
      "note_on channel=0 note=53 velocity=51 time=16\n",
      "note_on channel=0 note=60 velocity=37 time=24\n",
      "note_on channel=0 note=65 velocity=35 time=3\n",
      "note_on channel=0 note=68 velocity=0 time=64\n",
      "note_on channel=0 note=65 velocity=0 time=16\n",
      "note_on channel=0 note=52 velocity=51 time=120\n",
      "note_on channel=0 note=72 velocity=59 time=8\n",
      "control_change channel=0 control=64 value=118 time=2\n",
      "note_on channel=0 note=53 velocity=0 time=0\n",
      "note_on channel=0 note=60 velocity=0 time=2\n",
      "note_on channel=0 note=60 velocity=18 time=0\n",
      "note_on channel=0 note=67 velocity=47 time=8\n",
      "note_on channel=0 note=44 velocity=46 time=2\n",
      "control_change channel=0 control=64 value=98 time=5\n",
      "control_change channel=0 control=64 value=71 time=19\n",
      "control_change channel=0 control=64 value=0 time=18\n",
      "control_change channel=0 control=64 value=36 time=74\n",
      "control_change channel=0 control=64 value=60 time=18\n",
      "control_change channel=0 control=64 value=72 time=19\n",
      "control_change channel=0 control=64 value=80 time=16\n",
      "control_change channel=0 control=64 value=89 time=20\n",
      "note_on channel=0 note=60 velocity=0 time=12\n",
      "control_change channel=0 control=64 value=100 time=6\n",
      "control_change channel=0 control=64 value=112 time=19\n",
      "control_change channel=0 control=64 value=123 time=19\n",
      "control_change channel=0 control=64 value=127 time=18\n",
      "note_on channel=0 note=44 velocity=0 time=29\n",
      "note_on channel=0 note=52 velocity=0 time=46\n",
      "note_on channel=0 note=67 velocity=0 time=2\n",
      "note_on channel=0 note=72 velocity=0 time=81\n",
      "note_on channel=0 note=68 velocity=30 time=634\n",
      "note_on channel=0 note=80 velocity=58 time=2\n",
      "note_on channel=0 note=64 velocity=42 time=4\n",
      "note_on channel=0 note=71 velocity=43 time=28\n",
      "note_on channel=0 note=80 velocity=0 time=69\n",
      "note_on channel=0 note=68 velocity=0 time=27\n",
      "note_on channel=0 note=64 velocity=0 time=7\n",
      "note_on channel=0 note=67 velocity=39 time=21\n",
      "note_on channel=0 note=72 velocity=53 time=20\n",
      "note_on channel=0 note=79 velocity=53 time=6\n",
      "note_on channel=0 note=60 velocity=21 time=19\n",
      "note_on channel=0 note=71 velocity=0 time=28\n",
      "note_on channel=0 note=79 velocity=0 time=185\n",
      "note_on channel=0 note=72 velocity=0 time=81\n",
      "note_on channel=0 note=67 velocity=0 time=129\n",
      "note_on channel=0 note=60 velocity=0 time=640\n",
      "note_on channel=0 note=61 velocity=78 time=825\n",
      "note_on channel=0 note=58 velocity=62 time=22\n",
      "control_change channel=0 control=64 value=117 time=103\n",
      "note_on channel=0 note=60 velocity=75 time=31\n",
      "control_change channel=0 control=64 value=99 time=2\n",
      "note_on channel=0 note=56 velocity=59 time=7\n",
      "note_on channel=0 note=61 velocity=0 time=10\n",
      "control_change channel=0 control=64 value=77 time=2\n",
      "note_on channel=0 note=58 velocity=0 time=2\n",
      "control_change channel=0 control=64 value=50 time=16\n",
      "control_change channel=0 control=64 value=0 time=18\n",
      "control_change channel=0 control=64 value=26 time=184\n",
      "control_change channel=0 control=64 value=45 time=18\n",
      "control_change channel=0 control=64 value=58 time=19\n",
      "control_change channel=0 control=64 value=65 time=19\n",
      "control_change channel=0 control=64 value=70 time=17\n",
      "control_change channel=0 control=64 value=74 time=18\n",
      "control_change channel=0 control=64 value=77 time=19\n",
      "control_change channel=0 control=64 value=81 time=19\n",
      "control_change channel=0 control=64 value=85 time=17\n",
      "control_change channel=0 control=64 value=91 time=19\n",
      "control_change channel=0 control=64 value=99 time=18\n",
      "control_change channel=0 control=64 value=107 time=19\n",
      "control_change channel=0 control=64 value=113 time=18\n",
      "control_change channel=0 control=64 value=117 time=19\n",
      "control_change channel=0 control=64 value=121 time=37\n",
      "control_change channel=0 control=64 value=125 time=55\n",
      "note_on channel=0 note=67 velocity=74 time=457\n",
      "note_on channel=0 note=64 velocity=58 time=16\n",
      "note_on channel=0 note=56 velocity=0 time=560\n",
      "note_on channel=0 note=64 velocity=0 time=441\n",
      "note_on channel=0 note=60 velocity=0 time=89\n",
      "note_on channel=0 note=67 velocity=0 time=72\n",
      "note_on channel=0 note=68 velocity=62 time=608\n",
      "note_on channel=0 note=55 velocity=47 time=21\n",
      "note_on channel=0 note=60 velocity=49 time=6\n",
      "note_on channel=0 note=65 velocity=51 time=8\n",
      "note_on channel=0 note=55 velocity=0 time=89\n",
      "note_on channel=0 note=68 velocity=0 time=10\n",
      "note_on channel=0 note=53 velocity=55 time=16\n",
      "note_on channel=0 note=65 velocity=0 time=2\n",
      "note_on channel=0 note=60 velocity=0 time=55\n",
      "note_on channel=0 note=53 velocity=0 time=142\n",
      "note_on channel=0 note=52 velocity=52 time=27\n",
      "control_change channel=0 control=64 value=117 time=2\n",
      "note_on channel=0 note=44 velocity=48 time=0\n",
      "note_on channel=0 note=72 velocity=63 time=8\n",
      "note_on channel=0 note=67 velocity=55 time=6\n",
      "note_on channel=0 note=60 velocity=50 time=1\n",
      "control_change channel=0 control=64 value=96 time=3\n",
      "control_change channel=0 control=64 value=67 time=18\n",
      "control_change channel=0 control=64 value=0 time=19\n",
      "control_change channel=0 control=64 value=37 time=92\n",
      "control_change channel=0 control=64 value=58 time=17\n",
      "control_change channel=0 control=64 value=69 time=20\n",
      "control_change channel=0 control=64 value=76 time=18\n",
      "control_change channel=0 control=64 value=83 time=17\n",
      "control_change channel=0 control=64 value=93 time=19\n",
      "note_on channel=0 note=60 velocity=0 time=12\n",
      "control_change channel=0 control=64 value=103 time=5\n",
      "control_change channel=0 control=64 value=115 time=21\n",
      "note_on channel=0 note=44 velocity=0 time=13\n",
      "control_change channel=0 control=64 value=127 time=3\n",
      "note_on channel=0 note=52 velocity=0 time=56\n",
      "note_on channel=0 note=67 velocity=0 time=23\n",
      "note_on channel=0 note=72 velocity=0 time=27\n",
      "note_on channel=0 note=80 velocity=50 time=718\n",
      "note_on channel=0 note=64 velocity=44 time=13\n",
      "note_on channel=0 note=68 velocity=31 time=5\n",
      "note_on channel=0 note=71 velocity=42 time=19\n",
      "note_on channel=0 note=80 velocity=0 time=93\n",
      "note_on channel=0 note=68 velocity=0 time=29\n",
      "note_on channel=0 note=64 velocity=0 time=7\n",
      "note_on channel=0 note=71 velocity=0 time=41\n",
      "note_on channel=0 note=79 velocity=52 time=3\n",
      "note_on channel=0 note=72 velocity=56 time=7\n",
      "note_on channel=0 note=67 velocity=35 time=1\n",
      "note_on channel=0 note=60 velocity=46 time=1\n",
      "note_on channel=0 note=72 velocity=0 time=48\n",
      "note_on channel=0 note=79 velocity=0 time=97\n",
      "note_on channel=0 note=67 velocity=0 time=95\n",
      "note_on channel=0 note=60 velocity=0 time=71\n",
      "note_on channel=0 note=40 velocity=70 time=1489\n",
      "note_on channel=0 note=36 velocity=30 time=18\n",
      "note_on channel=0 note=38 velocity=58 time=40\n",
      "note_on channel=0 note=40 velocity=0 time=1\n",
      "note_on channel=0 note=36 velocity=0 time=17\n",
      "note_on channel=0 note=41 velocity=75 time=9\n",
      "note_on channel=0 note=40 velocity=52 time=77\n",
      "note_on channel=0 note=43 velocity=58 time=5\n",
      "note_on channel=0 note=40 velocity=0 time=62\n",
      "note_on channel=0 note=44 velocity=79 time=7\n",
      "note_on channel=0 note=38 velocity=0 time=1\n",
      "note_on channel=0 note=43 velocity=0 time=15\n",
      "control_change channel=0 control=67 value=114 time=20\n",
      "note_on channel=0 note=46 velocity=73 time=26\n",
      "note_on channel=0 note=44 velocity=0 time=25\n",
      "note_on channel=0 note=41 velocity=0 time=14\n",
      "control_change channel=0 control=67 value=110 time=9\n",
      "note_on channel=0 note=46 velocity=0 time=23\n",
      "note_on channel=0 note=42 velocity=58 time=2\n",
      "note_on channel=0 note=47 velocity=79 time=5\n",
      "control_change channel=0 control=67 value=105 time=7\n",
      "control_change channel=0 control=67 value=98 time=18\n",
      "note_on channel=0 note=42 velocity=0 time=8\n",
      "control_change channel=0 control=67 value=87 time=9\n",
      "note_on channel=0 note=43 velocity=71 time=5\n",
      "control_change channel=0 control=67 value=74 time=15\n",
      "control_change channel=0 control=64 value=88 time=17\n",
      "control_change channel=0 control=67 value=61 time=2\n",
      "note_on channel=0 note=48 velocity=89 time=2\n",
      "control_change channel=0 control=64 value=0 time=16\n",
      "note_on channel=0 note=47 velocity=0 time=2\n",
      "control_change channel=0 control=67 value=53 time=1\n",
      "note_on channel=0 note=44 velocity=82 time=9\n",
      "note_on channel=0 note=43 velocity=0 time=10\n",
      "control_change channel=0 control=67 value=47 time=14\n",
      "control_change channel=0 control=67 value=43 time=38\n",
      "control_change channel=0 control=67 value=39 time=92\n",
      "control_change channel=0 control=67 value=33 time=53\n",
      "control_change channel=0 control=64 value=38 time=38\n",
      "control_change channel=0 control=67 value=29 time=2\n",
      "control_change channel=0 control=64 value=60 time=17\n",
      "control_change channel=0 control=64 value=74 time=19\n",
      "control_change channel=0 control=67 value=20 time=2\n",
      "control_change channel=0 control=64 value=86 time=16\n",
      "control_change channel=0 control=67 value=11 time=3\n",
      "control_change channel=0 control=64 value=99 time=16\n",
      "control_change channel=0 control=64 value=112 time=18\n",
      "control_change channel=0 control=64 value=124 time=18\n",
      "note_on channel=0 note=48 velocity=0 time=39\n",
      "note_on channel=0 note=44 velocity=0 time=31\n",
      "control_change channel=0 control=67 value=0 time=2\n",
      "note_on channel=0 note=68 velocity=87 time=658\n",
      "note_on channel=0 note=56 velocity=77 time=4\n",
      "note_on channel=0 note=63 velocity=72 time=1\n",
      "note_on channel=0 note=54 velocity=77 time=2\n",
      "note_on channel=0 note=39 velocity=73 time=6\n",
      "note_on channel=0 note=44 velocity=63 time=5\n",
      "note_on channel=0 note=48 velocity=55 time=7\n",
      "note_on channel=0 note=60 velocity=53 time=6\n",
      "control_change channel=0 control=64 value=94 time=6\n",
      "control_change channel=0 control=64 value=56 time=19\n",
      "control_change channel=0 control=64 value=0 time=19\n",
      "note_on channel=0 note=60 velocity=0 time=51\n",
      "note_on channel=0 note=60 velocity=15 time=0\n",
      "control_change channel=0 control=64 value=23 time=134\n",
      "control_change channel=0 control=64 value=39 time=17\n",
      "control_change channel=0 control=64 value=51 time=19\n",
      "control_change channel=0 control=64 value=59 time=19\n",
      "control_change channel=0 control=64 value=65 time=18\n",
      "control_change channel=0 control=64 value=69 time=20\n",
      "control_change channel=0 control=64 value=72 time=17\n",
      "control_change channel=0 control=64 value=75 time=20\n",
      "control_change channel=0 control=64 value=77 time=18\n",
      "control_change channel=0 control=64 value=82 time=16\n",
      "control_change channel=0 control=64 value=89 time=19\n",
      "control_change channel=0 control=64 value=100 time=20\n",
      "control_change channel=0 control=64 value=112 time=18\n",
      "control_change channel=0 control=64 value=123 time=32\n",
      "control_change channel=0 control=64 value=127 time=18\n",
      "note_on channel=0 note=60 velocity=0 time=265\n",
      "note_on channel=0 note=56 velocity=0 time=15\n",
      "note_on channel=0 note=39 velocity=0 time=185\n",
      "note_on channel=0 note=48 velocity=0 time=67\n",
      "note_on channel=0 note=44 velocity=0 time=11\n",
      "note_on channel=0 note=63 velocity=0 time=24\n",
      "note_on channel=0 note=68 velocity=0 time=64\n",
      "note_on channel=0 note=54 velocity=0 time=12\n",
      "control_change channel=0 control=64 value=91 time=386\n",
      "control_change channel=0 control=64 value=55 time=18\n",
      "note_on channel=0 note=56 velocity=77 time=1\n",
      "note_on channel=0 note=41 velocity=72 time=1\n",
      "note_on channel=0 note=70 velocity=86 time=1\n",
      "note_on channel=0 note=61 velocity=76 time=3\n",
      "note_on channel=0 note=58 velocity=74 time=1\n",
      "note_on channel=0 note=46 velocity=72 time=1\n",
      "note_on channel=0 note=65 velocity=74 time=0\n",
      "note_on channel=0 note=49 velocity=77 time=4\n",
      "control_change channel=0 control=64 value=46 time=7\n",
      "control_change channel=0 control=64 value=57 time=16\n",
      "control_change channel=0 control=64 value=75 time=21\n",
      "control_change channel=0 control=64 value=98 time=17\n",
      "note_on channel=0 note=41 velocity=0 time=4\n",
      "note_on channel=0 note=58 velocity=0 time=8\n",
      "control_change channel=0 control=64 value=127 time=7\n",
      "note_on channel=0 note=46 velocity=0 time=0\n",
      "note_on channel=0 note=49 velocity=0 time=0\n",
      "note_on channel=0 note=61 velocity=0 time=0\n",
      "note_on channel=0 note=65 velocity=0 time=2\n",
      "note_on channel=0 note=56 velocity=0 time=2\n",
      "note_on channel=0 note=70 velocity=0 time=84\n",
      "note_on channel=0 note=58 velocity=70 time=191\n",
      "note_on channel=0 note=72 velocity=86 time=0\n",
      "note_on channel=0 note=43 velocity=67 time=2\n",
      "note_on channel=0 note=67 velocity=71 time=1\n",
      "note_on channel=0 note=48 velocity=68 time=1\n",
      "note_on channel=0 note=52 velocity=66 time=2\n",
      "note_on channel=0 note=64 velocity=73 time=2\n",
      "note_on channel=0 note=60 velocity=72 time=1\n",
      "control_change channel=0 control=64 value=92 time=5\n",
      "control_change channel=0 control=64 value=0 time=20\n",
      "control_change channel=0 control=64 value=29 time=164\n",
      "control_change channel=0 control=64 value=57 time=19\n",
      "control_change channel=0 control=64 value=72 time=18\n",
      "control_change channel=0 control=64 value=85 time=18\n",
      "control_change channel=0 control=64 value=102 time=20\n",
      "control_change channel=0 control=64 value=118 time=18\n",
      "note_on channel=0 note=43 velocity=0 time=0\n",
      "control_change channel=0 control=64 value=127 time=19\n",
      "note_on channel=0 note=60 velocity=0 time=15\n",
      "note_on channel=0 note=48 velocity=0 time=62\n",
      "note_on channel=0 note=64 velocity=0 time=53\n",
      "note_on channel=0 note=52 velocity=0 time=12\n",
      "note_on channel=0 note=67 velocity=0 time=20\n",
      "note_on channel=0 note=72 velocity=0 time=52\n",
      "note_on channel=0 note=58 velocity=0 time=11\n",
      "note_on channel=0 note=79 velocity=61 time=590\n",
      "note_on channel=0 note=67 velocity=51 time=2\n",
      "note_on channel=0 note=60 velocity=46 time=2\n",
      "note_on channel=0 note=72 velocity=56 time=6\n",
      "note_on channel=0 note=67 velocity=0 time=174\n",
      "note_on channel=0 note=79 velocity=0 time=4\n",
      "note_on channel=0 note=72 velocity=0 time=7\n",
      "note_on channel=0 note=60 velocity=0 time=78\n",
      "control_change channel=0 control=64 value=105 time=1055\n",
      "control_change channel=0 control=64 value=48 time=17\n",
      "note_on channel=0 note=73 velocity=88 time=3\n",
      "note_on channel=0 note=56 velocity=73 time=5\n",
      "note_on channel=0 note=41 velocity=72 time=1\n",
      "note_on channel=0 note=68 velocity=79 time=0\n",
      "note_on channel=0 note=61 velocity=76 time=1\n",
      "note_on channel=0 note=65 velocity=76 time=3\n",
      "control_change channel=0 control=64 value=0 time=4\n",
      "note_on channel=0 note=49 velocity=74 time=3\n",
      "note_on channel=0 note=46 velocity=73 time=1\n",
      "control_change channel=0 control=64 value=25 time=182\n",
      "control_change channel=0 control=64 value=52 time=19\n",
      "control_change channel=0 control=64 value=65 time=16\n",
      "control_change channel=0 control=64 value=70 time=20\n",
      "control_change channel=0 control=64 value=76 time=18\n",
      "control_change channel=0 control=64 value=84 time=20\n",
      "control_change channel=0 control=64 value=99 time=16\n",
      "control_change channel=0 control=64 value=121 time=18\n",
      "control_change channel=0 control=64 value=127 time=20\n",
      "note_on channel=0 note=61 velocity=0 time=20\n",
      "note_on channel=0 note=41 velocity=0 time=2\n",
      "note_on channel=0 note=46 velocity=0 time=31\n",
      "note_on channel=0 note=65 velocity=0 time=8\n",
      "note_on channel=0 note=49 velocity=0 time=6\n",
      "note_on channel=0 note=56 velocity=0 time=9\n",
      "note_on channel=0 note=73 velocity=0 time=23\n",
      "note_on channel=0 note=68 velocity=0 time=27\n",
      "control_change channel=0 control=64 value=120 time=531\n",
      "note_on channel=0 note=58 velocity=78 time=2\n",
      "note_on channel=0 note=75 velocity=90 time=0\n",
      "note_on channel=0 note=43 velocity=74 time=4\n",
      "note_on channel=0 note=70 velocity=81 time=0\n",
      "note_on channel=0 note=48 velocity=75 time=2\n",
      "note_on channel=0 note=63 velocity=78 time=2\n",
      "note_on channel=0 note=67 velocity=75 time=4\n",
      "control_change channel=0 control=64 value=71 time=5\n",
      "note_on channel=0 note=51 velocity=76 time=0\n",
      "control_change channel=0 control=64 value=0 time=19\n",
      "control_change channel=0 control=64 value=41 time=220\n",
      "control_change channel=0 control=64 value=57 time=20\n",
      "control_change channel=0 control=64 value=65 time=18\n",
      "control_change channel=0 control=64 value=69 time=17\n",
      "control_change channel=0 control=64 value=76 time=21\n",
      "control_change channel=0 control=64 value=86 time=18\n",
      "control_change channel=0 control=64 value=102 time=19\n",
      "control_change channel=0 control=64 value=120 time=16\n",
      "control_change channel=0 control=64 value=127 time=19\n",
      "note_on channel=0 note=63 velocity=0 time=29\n",
      "note_on channel=0 note=43 velocity=0 time=38\n",
      "note_on channel=0 note=48 velocity=0 time=5\n",
      "note_on channel=0 note=67 velocity=0 time=32\n",
      "note_on channel=0 note=51 velocity=0 time=15\n",
      "note_on channel=0 note=58 velocity=0 time=30\n",
      "note_on channel=0 note=70 velocity=0 time=50\n",
      "note_on channel=0 note=75 velocity=0 time=11\n",
      "note_on channel=0 note=44 velocity=57 time=234\n",
      "note_on channel=0 note=50 velocity=72 time=31\n",
      "note_on channel=0 note=53 velocity=79 time=16\n",
      "control_change channel=0 control=64 value=109 time=4\n",
      "note_on channel=0 note=77 velocity=91 time=0\n",
      "note_on channel=0 note=65 velocity=87 time=8\n",
      "note_on channel=0 note=68 velocity=86 time=0\n",
      "note_on channel=0 note=72 velocity=80 time=2\n",
      "note_on channel=0 note=60 velocity=83 time=1\n",
      "control_change channel=0 control=64 value=79 time=8\n",
      "control_change channel=0 control=64 value=69 time=16\n",
      "note_on channel=0 note=44 velocity=0 time=7\n",
      "control_change channel=0 control=64 value=75 time=12\n",
      "control_change channel=0 control=64 value=91 time=17\n",
      "note_on channel=0 note=75 velocity=15 time=8\n",
      "note_on channel=0 note=50 velocity=0 time=4\n",
      "note_on channel=0 note=53 velocity=0 time=3\n",
      "control_change channel=0 control=64 value=124 time=3\n",
      "note_on channel=0 note=65 velocity=0 time=18\n",
      "note_on channel=0 note=60 velocity=0 time=10\n",
      "note_on channel=0 note=72 velocity=0 time=13\n",
      "note_on channel=0 note=68 velocity=0 time=4\n",
      "note_on channel=0 note=75 velocity=0 time=5\n",
      "note_on channel=0 note=77 velocity=0 time=10\n",
      "note_on channel=0 note=46 velocity=84 time=154\n",
      "note_on channel=0 note=61 velocity=89 time=0\n",
      "note_on channel=0 note=79 velocity=92 time=0\n",
      "note_on channel=0 note=55 velocity=64 time=2\n",
      "note_on channel=0 note=70 velocity=86 time=1\n",
      "note_on channel=0 note=73 velocity=84 time=1\n",
      "note_on channel=0 note=52 velocity=79 time=2\n",
      "note_on channel=0 note=67 velocity=91 time=0\n",
      "control_change channel=0 control=64 value=86 time=1\n",
      "control_change channel=0 control=64 value=0 time=20\n",
      "control_change channel=0 control=64 value=52 time=56\n",
      "control_change channel=0 control=64 value=79 time=19\n",
      "note_on channel=0 note=46 velocity=0 time=4\n",
      "note_on channel=0 note=67 velocity=0 time=3\n",
      "note_on channel=0 note=55 velocity=0 time=5\n",
      "control_change channel=0 control=64 value=107 time=6\n",
      "note_on channel=0 note=52 velocity=0 time=7\n",
      "note_on channel=0 note=70 velocity=0 time=5\n",
      "note_on channel=0 note=61 velocity=0 time=2\n",
      "control_change channel=0 control=64 value=127 time=5\n",
      "note_on channel=0 note=79 velocity=0 time=0\n",
      "note_on channel=0 note=73 velocity=0 time=13\n",
      "note_on channel=0 note=53 velocity=75 time=310\n",
      "note_on channel=0 note=63 velocity=86 time=3\n",
      "note_on channel=0 note=48 velocity=80 time=7\n",
      "note_on channel=0 note=56 velocity=77 time=7\n",
      "note_on channel=0 note=75 velocity=90 time=2\n",
      "note_on channel=0 note=80 velocity=95 time=1\n",
      "note_on channel=0 note=68 velocity=95 time=2\n",
      "note_on channel=0 note=72 velocity=83 time=3\n",
      "control_change channel=0 control=64 value=82 time=15\n",
      "control_change channel=0 control=64 value=0 time=20\n",
      "control_change channel=0 control=64 value=44 time=181\n",
      "control_change channel=0 control=64 value=60 time=19\n",
      "control_change channel=0 control=64 value=64 time=19\n",
      "control_change channel=0 control=64 value=67 time=16\n",
      "control_change channel=0 control=64 value=72 time=19\n",
      "control_change channel=0 control=64 value=81 time=18\n",
      "control_change channel=0 control=64 value=93 time=20\n",
      "control_change channel=0 control=64 value=109 time=19\n",
      "control_change channel=0 control=64 value=123 time=19\n",
      "control_change channel=0 control=64 value=127 time=18\n",
      "note_on channel=0 note=48 velocity=0 time=19\n",
      "note_on channel=0 note=68 velocity=0 time=46\n",
      "note_on channel=0 note=53 velocity=0 time=69\n",
      "note_on channel=0 note=72 velocity=0 time=33\n",
      "note_on channel=0 note=56 velocity=0 time=11\n",
      "note_on channel=0 note=63 velocity=0 time=94\n",
      "note_on channel=0 note=75 velocity=0 time=14\n",
      "note_on channel=0 note=80 velocity=0 time=120\n",
      "note_on channel=0 note=80 velocity=86 time=536\n",
      "note_on channel=0 note=77 velocity=87 time=1\n",
      "note_on channel=0 note=65 velocity=56 time=3\n",
      "note_on channel=0 note=74 velocity=57 time=16\n",
      "note_on channel=0 note=72 velocity=58 time=1\n",
      "note_on channel=0 note=77 velocity=0 time=38\n",
      "note_on channel=0 note=72 velocity=0 time=1\n",
      "note_on channel=0 note=74 velocity=0 time=1\n",
      "note_on channel=0 note=65 velocity=0 time=78\n",
      "note_on channel=0 note=65 velocity=36 time=0\n",
      "note_on channel=0 note=80 velocity=0 time=29\n",
      "control_change channel=0 control=67 value=8 time=266\n",
      "note_on channel=0 note=65 velocity=0 time=15\n",
      "control_change channel=0 control=67 value=12 time=110\n",
      "control_change channel=0 control=67 value=16 time=56\n",
      "control_change channel=0 control=67 value=20 time=203\n",
      "note_on channel=0 note=61 velocity=80 time=935\n",
      "note_on channel=0 note=79 velocity=90 time=0\n",
      "control_change channel=0 control=64 value=117 time=1\n",
      "note_on channel=0 note=46 velocity=71 time=3\n",
      "note_on channel=0 note=55 velocity=71 time=5\n",
      "note_on channel=0 note=73 velocity=79 time=1\n",
      "note_on channel=0 note=67 velocity=79 time=2\n",
      "note_on channel=0 note=70 velocity=77 time=1\n",
      "note_on channel=0 note=52 velocity=70 time=5\n",
      "control_change channel=0 control=64 value=78 time=1\n",
      "control_change channel=0 control=64 value=0 time=18\n",
      "control_change channel=0 control=67 value=24 time=72\n",
      "control_change channel=0 control=64 value=51 time=20\n",
      "control_change channel=0 control=64 value=70 time=16\n",
      "control_change channel=0 control=64 value=85 time=19\n",
      "control_change channel=0 control=64 value=101 time=20\n",
      "control_change channel=0 control=67 value=29 time=2\n",
      "control_change channel=0 control=64 value=118 time=15\n",
      "control_change channel=0 control=64 value=127 time=17\n",
      "control_change channel=0 control=67 value=33 time=2\n",
      "note_on channel=0 note=61 velocity=0 time=46\n",
      "note_on channel=0 note=55 velocity=0 time=30\n",
      "note_on channel=0 note=52 velocity=0 time=28\n",
      "control_change channel=0 control=67 value=38 time=25\n",
      "note_on channel=0 note=79 velocity=0 time=2\n",
      "note_on channel=0 note=46 velocity=0 time=53\n",
      "note_on channel=0 note=67 velocity=0 time=3\n",
      "note_on channel=0 note=70 velocity=0 time=129\n",
      "note_on channel=0 note=73 velocity=0 time=24\n",
      "note_on channel=0 note=44 velocity=67 time=527\n",
      "note_on channel=0 note=77 velocity=91 time=1\n",
      "note_on channel=0 note=68 velocity=76 time=12\n",
      "note_on channel=0 note=72 velocity=74 time=0\n",
      "note_on channel=0 note=60 velocity=71 time=4\n",
      "note_on channel=0 note=50 velocity=63 time=1\n",
      "note_on channel=0 note=65 velocity=76 time=0\n",
      "note_on channel=0 note=53 velocity=70 time=7\n",
      "control_change channel=0 control=64 value=83 time=6\n",
      "control_change channel=0 control=64 value=0 time=18\n",
      "control_change channel=0 control=64 value=42 time=73\n",
      "control_change channel=0 control=64 value=65 time=19\n",
      "note_on channel=0 note=60 velocity=0 time=13\n",
      "control_change channel=0 control=64 value=82 time=4\n",
      "note_on channel=0 note=68 velocity=0 time=11\n",
      "note_on channel=0 note=65 velocity=0 time=6\n",
      "control_change channel=0 control=64 value=102 time=3\n",
      "note_on channel=0 note=50 velocity=0 time=0\n",
      "note_on channel=0 note=44 velocity=0 time=4\n",
      "note_on channel=0 note=53 velocity=0 time=3\n",
      "control_change channel=0 control=64 value=125 time=13\n",
      "control_change channel=0 control=67 value=42 time=1\n",
      "note_on channel=0 note=72 velocity=0 time=2\n",
      "note_on channel=0 note=77 velocity=0 time=3\n",
      "note_on channel=0 note=77 velocity=85 time=380\n",
      "note_on channel=0 note=60 velocity=63 time=5\n",
      "note_on channel=0 note=44 velocity=58 time=2\n",
      "note_on channel=0 note=72 velocity=71 time=4\n",
      "note_on channel=0 note=68 velocity=71 time=1\n",
      "note_on channel=0 note=65 velocity=70 time=4\n",
      "note_on channel=0 note=53 velocity=62 time=3\n",
      "note_on channel=0 note=50 velocity=62 time=2\n",
      "control_change channel=0 control=64 value=112 time=11\n",
      "control_change channel=0 control=67 value=46 time=1\n",
      "control_change channel=0 control=64 value=74 time=18\n",
      "control_change channel=0 control=64 value=0 time=18\n",
      "control_change channel=0 control=67 value=51 time=73\n",
      "control_change channel=0 control=64 value=33 time=56\n",
      "control_change channel=0 control=64 value=54 time=19\n",
      "control_change channel=0 control=64 value=66 time=18\n",
      "control_change channel=0 control=67 value=55 time=1\n",
      "control_change channel=0 control=64 value=75 time=18\n",
      "control_change channel=0 control=67 value=59 time=1\n",
      "control_change channel=0 control=64 value=86 time=17\n",
      "control_change channel=0 control=67 value=64 time=3\n",
      "note_on channel=0 note=44 velocity=0 time=13\n",
      "control_change channel=0 control=64 value=102 time=1\n",
      "control_change channel=0 control=64 value=122 time=19\n",
      "control_change channel=0 control=64 value=127 time=19\n",
      "control_change channel=0 control=67 value=68 time=2\n",
      "note_on channel=0 note=65 velocity=0 time=9\n",
      "note_on channel=0 note=50 velocity=0 time=24\n",
      "control_change channel=0 control=67 value=75 time=18\n",
      "note_on channel=0 note=68 velocity=0 time=23\n",
      "note_on channel=0 note=53 velocity=0 time=10\n",
      "control_change channel=0 control=67 value=81 time=3\n",
      "control_change channel=0 control=67 value=85 time=56\n",
      "note_on channel=0 note=72 velocity=0 time=9\n",
      "note_on channel=0 note=77 velocity=0 time=1\n",
      "note_on channel=0 note=60 velocity=0 time=39\n",
      "note_on channel=0 note=72 velocity=58 time=965\n",
      "note_on channel=0 note=79 velocity=55 time=14\n",
      "note_on channel=0 note=91 velocity=70 time=6\n",
      "note_on channel=0 note=84 velocity=59 time=4\n",
      "note_on channel=0 note=84 velocity=0 time=106\n",
      "note_on channel=0 note=79 velocity=0 time=17\n",
      "note_on channel=0 note=91 velocity=0 time=27\n",
      "note_on channel=0 note=72 velocity=0 time=119\n",
      "note_on channel=0 note=75 velocity=77 time=1658\n",
      "note_on channel=0 note=70 velocity=65 time=17\n",
      "note_on channel=0 note=58 velocity=55 time=1\n",
      "note_on channel=0 note=63 velocity=66 time=3\n",
      "note_on channel=0 note=43 velocity=59 time=3\n",
      "note_on channel=0 note=67 velocity=58 time=3\n",
      "note_on channel=0 note=51 velocity=58 time=2\n",
      "note_on channel=0 note=48 velocity=57 time=12\n",
      "control_change channel=0 control=64 value=104 time=2\n",
      "control_change channel=0 control=64 value=67 time=18\n",
      "control_change channel=0 control=64 value=0 time=19\n",
      "control_change channel=0 control=64 value=29 time=75\n",
      "control_change channel=0 control=64 value=58 time=32\n",
      "control_change channel=0 control=64 value=72 time=17\n",
      "control_change channel=0 control=64 value=83 time=20\n",
      "control_change channel=0 control=64 value=98 time=20\n",
      "control_change channel=0 control=64 value=116 time=18\n",
      "control_change channel=0 control=64 value=127 time=15\n",
      "note_on channel=0 note=58 velocity=0 time=32\n",
      "note_on channel=0 note=48 velocity=0 time=27\n",
      "note_on channel=0 note=51 velocity=0 time=13\n",
      "note_on channel=0 note=43 velocity=0 time=28\n",
      "note_on channel=0 note=75 velocity=0 time=36\n",
      "note_on channel=0 note=67 velocity=0 time=84\n",
      "note_on channel=0 note=70 velocity=0 time=29\n",
      "note_on channel=0 note=63 velocity=0 time=152\n",
      "note_on channel=0 note=73 velocity=74 time=647\n",
      "note_on channel=0 note=56 velocity=54 time=16\n",
      "note_on channel=0 note=61 velocity=64 time=1\n",
      "control_change channel=0 control=64 value=103 time=3\n",
      "note_on channel=0 note=41 velocity=46 time=2\n",
      "note_on channel=0 note=65 velocity=59 time=1\n",
      "note_on channel=0 note=68 velocity=58 time=2\n",
      "note_on channel=0 note=49 velocity=48 time=4\n",
      "control_change channel=0 control=64 value=62 time=6\n",
      "note_on channel=0 note=46 velocity=46 time=0\n",
      "control_change channel=0 control=64 value=0 time=19\n",
      "control_change channel=0 control=64 value=51 time=55\n",
      "control_change channel=0 control=64 value=71 time=18\n",
      "control_change channel=0 control=64 value=87 time=20\n",
      "note_on channel=0 note=56 velocity=0 time=5\n",
      "control_change channel=0 control=64 value=108 time=13\n",
      "note_on channel=0 note=49 velocity=0 time=1\n",
      "note_on channel=0 note=46 velocity=0 time=4\n",
      "note_on channel=0 note=61 velocity=0 time=1\n",
      "note_on channel=0 note=65 velocity=0 time=0\n",
      "note_on channel=0 note=68 velocity=0 time=3\n",
      "note_on channel=0 note=73 velocity=0 time=3\n",
      "control_change channel=0 control=64 value=126 time=6\n",
      "note_on channel=0 note=41 velocity=0 time=28\n",
      "note_on channel=0 note=73 velocity=69 time=472\n",
      "note_on channel=0 note=56 velocity=47 time=7\n",
      "note_on channel=0 note=41 velocity=47 time=5\n",
      "note_on channel=0 note=61 velocity=59 time=1\n",
      "control_change channel=0 control=64 value=116 time=3\n",
      "note_on channel=0 note=65 velocity=57 time=0\n",
      "note_on channel=0 note=46 velocity=46 time=6\n",
      "note_on channel=0 note=49 velocity=46 time=2\n",
      "note_on channel=0 note=68 velocity=48 time=2\n",
      "control_change channel=0 control=64 value=93 time=9\n",
      "control_change channel=0 control=64 value=66 time=33\n",
      "control_change channel=0 control=64 value=0 time=18\n",
      "control_change channel=0 control=64 value=28 time=220\n",
      "control_change channel=0 control=64 value=43 time=19\n",
      "control_change channel=0 control=64 value=53 time=19\n",
      "control_change channel=0 control=64 value=59 time=17\n",
      "control_change channel=0 control=64 value=63 time=18\n",
      "control_change channel=0 control=64 value=66 time=18\n",
      "control_change channel=0 control=64 value=69 time=20\n",
      "control_change channel=0 control=64 value=71 time=17\n",
      "control_change channel=0 control=64 value=74 time=20\n",
      "control_change channel=0 control=64 value=77 time=18\n",
      "control_change channel=0 control=64 value=82 time=20\n",
      "control_change channel=0 control=64 value=88 time=17\n",
      "control_change channel=0 control=64 value=96 time=18\n",
      "control_change channel=0 control=64 value=105 time=19\n",
      "control_change channel=0 control=64 value=113 time=19\n",
      "control_change channel=0 control=64 value=119 time=18\n",
      "control_change channel=0 control=64 value=125 time=37\n",
      "control_change channel=0 control=67 value=90 time=311\n",
      "note_on channel=0 note=56 velocity=0 time=35\n",
      "note_on channel=0 note=41 velocity=0 time=42\n",
      "note_on channel=0 note=61 velocity=0 time=92\n",
      "note_on channel=0 note=73 velocity=0 time=91\n",
      "note_on channel=0 note=65 velocity=0 time=88\n",
      "note_on channel=0 note=68 velocity=0 time=84\n",
      "note_on channel=0 note=49 velocity=0 time=61\n",
      "note_on channel=0 note=46 velocity=0 time=220\n",
      "control_change channel=0 control=64 value=109 time=881\n",
      "control_change channel=0 control=64 value=83 time=19\n",
      "control_change channel=0 control=67 value=94 time=2\n",
      "note_on channel=0 note=71 velocity=51 time=8\n",
      "control_change channel=0 control=64 value=56 time=9\n",
      "note_on channel=0 note=59 velocity=43 time=10\n",
      "note_on channel=0 note=62 velocity=41 time=0\n",
      "note_on channel=0 note=50 velocity=39 time=3\n",
      "note_on channel=0 note=55 velocity=32 time=3\n",
      "note_on channel=0 note=43 velocity=41 time=1\n",
      "control_change channel=0 control=64 value=20 time=3\n",
      "note_on channel=0 note=67 velocity=48 time=1\n",
      "control_change channel=0 control=64 value=25 time=17\n",
      "control_change channel=0 control=67 value=98 time=1\n",
      "control_change channel=0 control=64 value=47 time=15\n",
      "control_change channel=0 control=64 value=62 time=20\n",
      "control_change channel=0 control=67 value=104 time=2\n",
      "control_change channel=0 control=64 value=74 time=16\n",
      "control_change channel=0 control=67 value=109 time=1\n",
      "control_change channel=0 control=64 value=84 time=17\n",
      "control_change channel=0 control=67 value=113 time=4\n",
      "control_change channel=0 control=64 value=96 time=14\n",
      "control_change channel=0 control=67 value=117 time=0\n",
      "control_change channel=0 control=64 value=109 time=17\n",
      "note_on channel=0 note=67 velocity=0 time=7\n",
      "note_on channel=0 note=59 velocity=0 time=3\n",
      "note_on channel=0 note=62 velocity=0 time=3\n",
      "control_change channel=0 control=64 value=119 time=6\n",
      "note_on channel=0 note=50 velocity=0 time=0\n",
      "control_change channel=0 control=67 value=122 time=1\n",
      "note_on channel=0 note=71 velocity=0 time=2\n",
      "control_change channel=0 control=64 value=127 time=17\n",
      "note_on channel=0 note=43 velocity=0 time=4\n",
      "control_change channel=0 control=67 value=127 time=14\n",
      "note_on channel=0 note=55 velocity=0 time=6\n",
      "control_change channel=0 control=64 value=117 time=450\n",
      "control_change channel=0 control=64 value=100 time=20\n",
      "note_on channel=0 note=72 velocity=60 time=3\n",
      "note_on channel=0 note=58 velocity=47 time=10\n",
      "note_on channel=0 note=48 velocity=38 time=1\n",
      "note_on channel=0 note=55 velocity=37 time=1\n",
      "control_change channel=0 control=64 value=79 time=1\n",
      "note_on channel=0 note=67 velocity=40 time=5\n",
      "note_on channel=0 note=40 velocity=39 time=1\n",
      "control_change channel=0 control=64 value=54 time=14\n",
      "control_change channel=0 control=64 value=0 time=19\n",
      "control_change channel=0 control=64 value=25 time=92\n",
      "control_change channel=0 control=64 value=51 time=16\n",
      "control_change channel=0 control=64 value=66 time=19\n",
      "control_change channel=0 control=64 value=76 time=20\n",
      "control_change channel=0 control=64 value=84 time=18\n",
      "control_change channel=0 control=64 value=94 time=18\n",
      "control_change channel=0 control=64 value=106 time=19\n",
      "control_change channel=0 control=64 value=120 time=18\n",
      "note_on channel=0 note=58 velocity=0 time=4\n",
      "control_change channel=0 control=64 value=127 time=15\n",
      "note_on channel=0 note=40 velocity=0 time=66\n",
      "note_on channel=0 note=67 velocity=0 time=35\n",
      "note_on channel=0 note=48 velocity=0 time=6\n",
      "note_on channel=0 note=72 velocity=0 time=94\n",
      "note_on channel=0 note=55 velocity=0 time=87\n",
      "note_on channel=0 note=79 velocity=44 time=782\n",
      "note_on channel=0 note=60 velocity=40 time=9\n",
      "note_on channel=0 note=72 velocity=34 time=14\n",
      "note_on channel=0 note=67 velocity=31 time=3\n",
      "note_on channel=0 note=79 velocity=0 time=178\n",
      "note_on channel=0 note=72 velocity=0 time=53\n",
      "note_on channel=0 note=67 velocity=0 time=14\n",
      "note_on channel=0 note=60 velocity=0 time=2\n",
      "note_on channel=0 note=38 velocity=59 time=1594\n",
      "note_on channel=0 note=54 velocity=66 time=148\n",
      "note_on channel=0 note=60 velocity=78 time=122\n",
      "note_on channel=0 note=70 velocity=82 time=217\n",
      "control_change channel=0 control=64 value=104 time=20\n",
      "control_change channel=0 control=64 value=77 time=19\n",
      "control_change channel=0 control=64 value=28 time=17\n",
      "control_change channel=0 control=64 value=0 time=20\n",
      "control_change channel=0 control=64 value=32 time=73\n",
      "control_change channel=0 control=64 value=53 time=19\n",
      "control_change channel=0 control=64 value=63 time=17\n",
      "control_change channel=0 control=64 value=70 time=18\n",
      "control_change channel=0 control=64 value=76 time=19\n",
      "control_change channel=0 control=64 value=81 time=19\n",
      "control_change channel=0 control=64 value=88 time=19\n",
      "control_change channel=0 control=64 value=96 time=18\n",
      "control_change channel=0 control=64 value=105 time=19\n",
      "control_change channel=0 control=64 value=115 time=18\n",
      "control_change channel=0 control=64 value=122 time=20\n",
      "control_change channel=0 control=64 value=127 time=15\n",
      "note_on channel=0 note=38 velocity=0 time=396\n",
      "note_on channel=0 note=70 velocity=0 time=327\n",
      "note_on channel=0 note=54 velocity=0 time=145\n",
      "note_on channel=0 note=60 velocity=0 time=206\n",
      "note_on channel=0 note=69 velocity=61 time=427\n",
      "note_on channel=0 note=69 velocity=0 time=118\n",
      "note_on channel=0 note=69 velocity=61 time=172\n",
      "note_on channel=0 note=39 velocity=52 time=21\n",
      "control_change channel=0 control=64 value=104 time=2\n",
      "note_on channel=0 note=55 velocity=43 time=0\n",
      "note_on channel=0 note=60 velocity=51 time=7\n",
      "control_change channel=0 control=64 value=76 time=13\n",
      "control_change channel=0 control=64 value=22 time=19\n",
      "control_change channel=0 control=64 value=0 time=18\n",
      "note_on channel=0 note=60 velocity=0 time=73\n",
      "note_on channel=0 note=60 velocity=44 time=0\n",
      "control_change channel=0 control=64 value=41 time=19\n",
      "control_change channel=0 control=64 value=61 time=19\n",
      "control_change channel=0 control=64 value=72 time=18\n",
      "control_change channel=0 control=64 value=82 time=20\n",
      "control_change channel=0 control=64 value=91 time=17\n",
      "control_change channel=0 control=64 value=100 time=19\n",
      "note_on channel=0 note=39 velocity=0 time=5\n",
      "control_change channel=0 control=64 value=109 time=14\n",
      "control_change channel=0 control=64 value=118 time=31\n",
      "control_change channel=0 control=64 value=126 time=19\n",
      "note_on channel=0 note=69 velocity=0 time=155\n",
      "note_on channel=0 note=60 velocity=0 time=5\n",
      "note_on channel=0 note=55 velocity=0 time=27\n",
      "note_on channel=0 note=79 velocity=42 time=792\n",
      "note_on channel=0 note=60 velocity=38 time=8\n",
      "note_on channel=0 note=67 velocity=39 time=11\n",
      "note_on channel=0 note=72 velocity=42 time=1\n",
      "note_on channel=0 note=79 velocity=0 time=197\n",
      "note_on channel=0 note=60 velocity=0 time=6\n",
      "note_on channel=0 note=72 velocity=0 time=7\n",
      "note_on channel=0 note=67 velocity=0 time=40\n",
      "note_on channel=0 note=37 velocity=57 time=1595\n",
      "note_on channel=0 note=52 velocity=60 time=125\n",
      "note_on channel=0 note=58 velocity=68 time=118\n",
      "control_change channel=0 control=67 value=123 time=251\n",
      "control_change channel=0 control=64 value=121 time=19\n",
      "control_change channel=0 control=64 value=114 time=37\n",
      "note_on channel=0 note=68 velocity=76 time=5\n",
      "control_change channel=0 control=64 value=108 time=12\n",
      "control_change channel=0 control=64 value=101 time=19\n",
      "control_change channel=0 control=64 value=89 time=17\n",
      "control_change channel=0 control=64 value=73 time=20\n",
      "control_change channel=0 control=64 value=54 time=18\n",
      "control_change channel=0 control=64 value=0 time=19\n",
      "control_change channel=0 control=64 value=16 time=92\n",
      "control_change channel=0 control=64 value=34 time=18\n",
      "control_change channel=0 control=64 value=49 time=19\n",
      "control_change channel=0 control=64 value=59 time=17\n",
      "control_change channel=0 control=64 value=65 time=19\n",
      "control_change channel=0 control=64 value=69 time=19\n",
      "control_change channel=0 control=64 value=71 time=33\n",
      "control_change channel=0 control=64 value=74 time=19\n",
      "control_change channel=0 control=64 value=76 time=18\n",
      "control_change channel=0 control=64 value=79 time=38\n",
      "control_change channel=0 control=64 value=82 time=17\n",
      "control_change channel=0 control=64 value=85 time=18\n",
      "control_change channel=0 control=64 value=91 time=20\n",
      "control_change channel=0 control=64 value=99 time=18\n",
      "control_change channel=0 control=64 value=107 time=17\n",
      "control_change channel=0 control=64 value=114 time=18\n",
      "control_change channel=0 control=64 value=120 time=19\n",
      "control_change channel=0 control=64 value=126 time=19\n",
      "control_change channel=0 control=67 value=119 time=147\n",
      "note_on channel=0 note=37 velocity=0 time=219\n",
      "note_on channel=0 note=58 velocity=0 time=38\n",
      "note_on channel=0 note=68 velocity=0 time=428\n",
      "note_on channel=0 note=52 velocity=0 time=523\n",
      "note_on channel=0 note=67 velocity=57 time=195\n",
      "note_on channel=0 note=67 velocity=0 time=145\n",
      "note_on channel=0 note=38 velocity=42 time=177\n",
      "note_on channel=0 note=59 velocity=47 time=240\n",
      "note_on channel=0 note=53 velocity=44 time=11\n",
      "control_change channel=0 control=64 value=115 time=23\n",
      "control_change channel=0 control=64 value=104 time=20\n",
      "control_change channel=0 control=64 value=91 time=17\n",
      "note_on channel=0 note=67 velocity=55 time=5\n",
      "control_change channel=0 control=64 value=75 time=12\n",
      "control_change channel=0 control=64 value=56 time=20\n",
      "control_change channel=0 control=64 value=0 time=18\n",
      "control_change channel=0 control=64 value=37 time=130\n",
      "control_change channel=0 control=64 value=57 time=18\n",
      "control_change channel=0 control=64 value=68 time=18\n",
      "control_change channel=0 control=64 value=77 time=17\n",
      "control_change channel=0 control=64 value=86 time=19\n",
      "control_change channel=0 control=64 value=96 time=18\n",
      "control_change channel=0 control=64 value=107 time=19\n",
      "control_change channel=0 control=64 value=118 time=16\n",
      "control_change channel=0 control=64 value=127 time=20\n",
      "note_on channel=0 note=38 velocity=0 time=5\n",
      "note_on channel=0 note=59 velocity=0 time=79\n",
      "note_on channel=0 note=67 velocity=0 time=78\n",
      "note_on channel=0 note=53 velocity=0 time=18\n",
      "note_on channel=0 note=79 velocity=40 time=965\n",
      "note_on channel=0 note=59 velocity=32 time=5\n",
      "note_on channel=0 note=67 velocity=25 time=1\n",
      "note_on channel=0 note=71 velocity=26 time=20\n",
      "note_on channel=0 note=79 velocity=0 time=197\n",
      "note_on channel=0 note=71 velocity=0 time=2\n",
      "note_on channel=0 note=59 velocity=0 time=48\n",
      "note_on channel=0 note=67 velocity=0 time=22\n",
      "control_change channel=0 control=64 value=123 time=1656\n",
      "control_change channel=0 control=64 value=118 time=56\n",
      "control_change channel=0 control=64 value=114 time=54\n",
      "control_change channel=0 control=64 value=110 time=56\n",
      "control_change channel=0 control=64 value=105 time=55\n",
      "control_change channel=0 control=64 value=101 time=37\n",
      "control_change channel=0 control=64 value=95 time=37\n",
      "control_change channel=0 control=64 value=87 time=35\n",
      "control_change channel=0 control=64 value=83 time=20\n",
      "control_change channel=0 control=64 value=78 time=20\n",
      "control_change channel=0 control=64 value=74 time=17\n",
      "control_change channel=0 control=64 value=71 time=17\n",
      "control_change channel=0 control=64 value=69 time=74\n",
      "control_change channel=0 control=64 value=68 time=148\n",
      "control_change channel=0 control=64 value=67 time=72\n",
      "note_on channel=0 note=65 velocity=60 time=31\n",
      "note_on channel=0 note=53 velocity=43 time=4\n",
      "note_on channel=0 note=49 velocity=44 time=4\n",
      "note_on channel=0 note=56 velocity=46 time=13\n",
      "control_change channel=0 control=64 value=66 time=1\n",
      "control_change channel=0 control=64 value=64 time=19\n",
      "control_change channel=0 control=64 value=62 time=19\n",
      "control_change channel=0 control=64 value=61 time=17\n",
      "control_change channel=0 control=64 value=59 time=19\n",
      "control_change channel=0 control=64 value=56 time=36\n",
      "control_change channel=0 control=64 value=59 time=148\n",
      "control_change channel=0 control=64 value=61 time=20\n",
      "control_change channel=0 control=64 value=65 time=16\n",
      "control_change channel=0 control=64 value=69 time=19\n",
      "control_change channel=0 control=64 value=73 time=18\n",
      "control_change channel=0 control=64 value=77 time=20\n",
      "control_change channel=0 control=64 value=82 time=16\n",
      "control_change channel=0 control=64 value=88 time=19\n",
      "control_change channel=0 control=64 value=97 time=19\n",
      "control_change channel=0 control=64 value=107 time=18\n",
      "control_change channel=0 control=64 value=117 time=19\n",
      "control_change channel=0 control=64 value=127 time=18\n",
      "note_on channel=0 note=56 velocity=0 time=221\n",
      "note_on channel=0 note=53 velocity=0 time=9\n",
      "note_on channel=0 note=49 velocity=0 time=25\n",
      "control_change channel=0 control=64 value=112 time=699\n",
      "note_on channel=0 note=49 velocity=54 time=0\n",
      "note_on channel=0 note=63 velocity=75 time=4\n",
      "note_on channel=0 note=65 velocity=0 time=5\n",
      "note_on channel=0 note=46 velocity=48 time=7\n",
      "control_change channel=0 control=64 value=92 time=3\n",
      "note_on channel=0 note=55 velocity=59 time=7\n",
      "control_change channel=0 control=64 value=69 time=10\n",
      "control_change channel=0 control=64 value=44 time=18\n",
      "control_change channel=0 control=64 value=25 time=19\n",
      "control_change channel=0 control=64 value=36 time=36\n",
      "control_change channel=0 control=64 value=53 time=18\n",
      "control_change channel=0 control=64 value=65 time=19\n",
      "control_change channel=0 control=64 value=73 time=19\n",
      "control_change channel=0 control=64 value=80 time=18\n",
      "control_change channel=0 control=64 value=87 time=18\n",
      "control_change channel=0 control=64 value=98 time=17\n",
      "note_on channel=0 note=55 velocity=0 time=15\n",
      "control_change channel=0 control=64 value=110 time=3\n",
      "control_change channel=0 control=64 value=123 time=20\n",
      "note_on channel=0 note=46 velocity=0 time=17\n",
      "control_change channel=0 control=64 value=127 time=1\n",
      "note_on channel=0 note=49 velocity=0 time=23\n",
      "note_on channel=0 note=56 velocity=69 time=428\n",
      "note_on channel=0 note=63 velocity=0 time=90\n",
      "note_on channel=0 note=56 velocity=0 time=24\n",
      "note_on channel=0 note=61 velocity=65 time=125\n",
      "note_on channel=0 note=57 velocity=54 time=12\n",
      "control_change channel=0 control=64 value=114 time=13\n",
      "note_on channel=0 note=45 velocity=48 time=6\n",
      "note_on channel=0 note=52 velocity=49 time=7\n",
      "control_change channel=0 control=64 value=93 time=6\n",
      "control_change channel=0 control=64 value=68 time=19\n",
      "control_change channel=0 control=64 value=0 time=17\n",
      "control_change channel=0 control=64 value=33 time=205\n",
      "control_change channel=0 control=64 value=51 time=17\n",
      "control_change channel=0 control=64 value=63 time=16\n",
      "control_change channel=0 control=64 value=73 time=19\n",
      "control_change channel=0 control=64 value=84 time=20\n",
      "control_change channel=0 control=64 value=98 time=18\n",
      "control_change channel=0 control=64 value=114 time=32\n",
      "control_change channel=0 control=64 value=127 time=18\n",
      "note_on channel=0 note=57 velocity=0 time=142\n",
      "note_on channel=0 note=45 velocity=0 time=142\n",
      "note_on channel=0 note=52 velocity=0 time=1\n",
      "note_on channel=0 note=61 velocity=0 time=61\n",
      "note_on channel=0 note=60 velocity=67 time=793\n",
      "control_change channel=0 control=64 value=121 time=18\n",
      "note_on channel=0 note=44 velocity=43 time=1\n",
      "note_on channel=0 note=52 velocity=43 time=1\n",
      "note_on channel=0 note=58 velocity=46 time=10\n",
      "control_change channel=0 control=64 value=104 time=4\n",
      "control_change channel=0 control=64 value=87 time=20\n",
      "note_on channel=0 note=48 velocity=33 time=14\n",
      "control_change channel=0 control=64 value=73 time=4\n",
      "control_change channel=0 control=64 value=68 time=19\n",
      "control_change channel=0 control=64 value=71 time=20\n",
      "control_change channel=0 control=64 value=77 time=18\n",
      "control_change channel=0 control=64 value=86 time=19\n",
      "control_change channel=0 control=64 value=97 time=16\n",
      "control_change channel=0 control=64 value=107 time=19\n",
      "note_on channel=0 note=58 velocity=0 time=16\n",
      "control_change channel=0 control=64 value=116 time=1\n",
      "note_on channel=0 note=44 velocity=0 time=12\n",
      "note_on channel=0 note=48 velocity=0 time=6\n",
      "note_on channel=0 note=52 velocity=0 time=1\n",
      "control_change channel=0 control=64 value=122 time=1\n",
      "note_on channel=0 note=60 velocity=0 time=13\n",
      "control_change channel=0 control=64 value=126 time=6\n",
      "control_change channel=0 control=64 value=121 time=313\n",
      "control_change channel=0 control=67 value=123 time=2\n",
      "control_change channel=0 control=64 value=111 time=17\n",
      "note_on channel=0 note=60 velocity=66 time=9\n",
      "control_change channel=0 control=64 value=94 time=9\n",
      "note_on channel=0 note=43 velocity=50 time=0\n",
      "note_on channel=0 note=52 velocity=42 time=16\n",
      "note_on channel=0 note=58 velocity=46 time=1\n",
      "note_on channel=0 note=48 velocity=43 time=1\n",
      "control_change channel=0 control=64 value=72 time=2\n",
      "control_change channel=0 control=64 value=36 time=15\n",
      "control_change channel=0 control=64 value=0 time=20\n",
      "control_change channel=0 control=64 value=42 time=126\n",
      "control_change channel=0 control=64 value=60 time=17\n",
      "control_change channel=0 control=64 value=71 time=19\n",
      "control_change channel=0 control=64 value=82 time=19\n",
      "control_change channel=0 control=64 value=93 time=18\n",
      "control_change channel=0 control=64 value=107 time=18\n",
      "control_change channel=0 control=64 value=120 time=18\n",
      "control_change channel=0 control=64 value=127 time=18\n",
      "note_on channel=0 note=43 velocity=0 time=46\n",
      "note_on channel=0 note=60 velocity=0 time=12\n",
      "note_on channel=0 note=58 velocity=0 time=3\n",
      "note_on channel=0 note=48 velocity=0 time=22\n",
      "note_on channel=0 note=52 velocity=0 time=25\n",
      "note_on channel=0 note=79 velocity=51 time=792\n",
      "note_on channel=0 note=60 velocity=33 time=15\n",
      "note_on channel=0 note=72 velocity=41 time=10\n",
      "note_on channel=0 note=67 velocity=45 time=1\n",
      "note_on channel=0 note=79 velocity=0 time=147\n",
      "note_on channel=0 note=67 velocity=0 time=49\n",
      "note_on channel=0 note=72 velocity=0 time=26\n",
      "note_on channel=0 note=60 velocity=0 time=96\n",
      "note_on channel=0 note=44 velocity=49 time=984\n",
      "note_on channel=0 note=46 velocity=58 time=216\n",
      "note_on channel=0 note=48 velocity=66 time=237\n",
      "note_on channel=0 note=46 velocity=0 time=56\n",
      "note_on channel=0 note=44 velocity=0 time=18\n",
      "control_change channel=0 control=64 value=123 time=252\n",
      "note_on channel=0 note=41 velocity=65 time=11\n",
      "control_change channel=0 control=64 value=98 time=6\n",
      "note_on channel=0 note=60 velocity=59 time=1\n",
      "note_on channel=0 note=51 velocity=52 time=8\n",
      "control_change channel=0 control=64 value=66 time=14\n",
      "note_on channel=0 note=57 velocity=40 time=1\n",
      "control_change channel=0 control=64 value=0 time=15\n",
      "control_change channel=0 control=64 value=48 time=92\n",
      "control_change channel=0 control=64 value=65 time=18\n",
      "control_change channel=0 control=64 value=74 time=20\n",
      "control_change channel=0 control=64 value=83 time=17\n",
      "control_change channel=0 control=64 value=92 time=20\n",
      "control_change channel=0 control=64 value=103 time=17\n",
      "control_change channel=0 control=64 value=115 time=18\n",
      "note_on channel=0 note=51 velocity=0 time=11\n",
      "control_change channel=0 control=64 value=125 time=7\n",
      "note_on channel=0 note=60 velocity=0 time=29\n",
      "note_on channel=0 note=41 velocity=0 time=14\n",
      "note_on channel=0 note=48 velocity=0 time=22\n",
      "note_on channel=0 note=57 velocity=0 time=45\n",
      "note_on channel=0 note=79 velocity=48 time=839\n",
      "note_on channel=0 note=67 velocity=41 time=6\n",
      "note_on channel=0 note=60 velocity=41 time=1\n",
      "note_on channel=0 note=72 velocity=41 time=7\n",
      "note_on channel=0 note=67 velocity=0 time=154\n",
      "note_on channel=0 note=79 velocity=0 time=8\n",
      "note_on channel=0 note=72 velocity=0 time=27\n",
      "note_on channel=0 note=60 velocity=0 time=97\n",
      "note_on channel=0 note=43 velocity=42 time=1095\n",
      "note_on channel=0 note=45 velocity=59 time=249\n",
      "note_on channel=0 note=43 velocity=0 time=228\n",
      "note_on channel=0 note=48 velocity=66 time=14\n",
      "note_on channel=0 note=45 velocity=0 time=39\n",
      "note_on channel=0 note=39 velocity=67 time=334\n",
      "note_on channel=0 note=44 velocity=59 time=22\n",
      "note_on channel=0 note=60 velocity=60 time=23\n",
      "control_change channel=0 control=64 value=113 time=7\n",
      "note_on channel=0 note=56 velocity=49 time=9\n",
      "note_on channel=0 note=51 velocity=51 time=5\n",
      "control_change channel=0 control=64 value=88 time=5\n",
      "note_on channel=0 note=48 velocity=0 time=4\n",
      "control_change channel=0 control=64 value=61 time=17\n",
      "control_change channel=0 control=64 value=0 time=16\n",
      "control_change channel=0 control=64 value=13 time=57\n",
      "control_change channel=0 control=64 value=47 time=18\n",
      "control_change channel=0 control=64 value=63 time=19\n",
      "control_change channel=0 control=64 value=72 time=18\n",
      "control_change channel=0 control=64 value=79 time=20\n",
      "control_change channel=0 control=64 value=86 time=17\n",
      "control_change channel=0 control=64 value=96 time=16\n",
      "control_change channel=0 control=64 value=107 time=21\n",
      "note_on channel=0 note=51 velocity=0 time=2\n",
      "control_change channel=0 control=64 value=118 time=16\n",
      "control_change channel=0 control=64 value=127 time=17\n",
      "note_on channel=0 note=60 velocity=0 time=21\n",
      "note_on channel=0 note=39 velocity=0 time=42\n",
      "note_on channel=0 note=56 velocity=0 time=12\n",
      "note_on channel=0 note=44 velocity=0 time=10\n",
      "note_on channel=0 note=80 velocity=63 time=856\n",
      "note_on channel=0 note=68 velocity=46 time=14\n",
      "note_on channel=0 note=63 velocity=46 time=15\n",
      "note_on channel=0 note=71 velocity=50 time=1\n",
      "note_on channel=0 note=68 velocity=0 time=99\n",
      "note_on channel=0 note=63 velocity=0 time=15\n",
      "note_on channel=0 note=80 velocity=0 time=3\n",
      "note_on channel=0 note=79 velocity=59 time=38\n",
      "note_on channel=0 note=72 velocity=57 time=15\n",
      "note_on channel=0 note=60 velocity=50 time=5\n",
      "note_on channel=0 note=67 velocity=38 time=7\n",
      "note_on channel=0 note=71 velocity=0 time=10\n",
      "note_on channel=0 note=79 velocity=0 time=126\n",
      "note_on channel=0 note=67 velocity=0 time=39\n",
      "note_on channel=0 note=72 velocity=0 time=65\n",
      "note_on channel=0 note=60 velocity=0 time=35\n",
      "control_change channel=0 control=67 value=119 time=572\n",
      "note_on channel=0 note=41 velocity=48 time=532\n",
      "note_on channel=0 note=43 velocity=54 time=293\n",
      "note_on channel=0 note=41 velocity=0 time=24\n",
      "note_on channel=0 note=44 velocity=57 time=229\n",
      "note_on channel=0 note=43 velocity=0 time=7\n",
      "note_on channel=0 note=38 velocity=61 time=403\n",
      "control_change channel=0 control=64 value=111 time=31\n",
      "note_on channel=0 note=60 velocity=58 time=1\n",
      "control_change channel=0 control=64 value=85 time=16\n",
      "note_on channel=0 note=53 velocity=47 time=0\n",
      "control_change channel=0 control=64 value=57 time=19\n",
      "control_change channel=0 control=64 value=0 time=19\n",
      "control_change channel=0 control=64 value=47 time=75\n",
      "control_change channel=0 control=64 value=67 time=19\n",
      "control_change channel=0 control=64 value=80 time=17\n",
      "control_change channel=0 control=64 value=93 time=18\n",
      "control_change channel=0 control=64 value=109 time=18\n",
      "control_change channel=0 control=64 value=123 time=20\n",
      "note_on channel=0 note=53 velocity=0 time=9\n",
      "control_change channel=0 control=64 value=127 time=7\n",
      "note_on channel=0 note=38 velocity=0 time=23\n",
      "note_on channel=0 note=60 velocity=0 time=30\n",
      "note_on channel=0 note=44 velocity=0 time=22\n",
      "note_on channel=0 note=79 velocity=40 time=1045\n",
      "note_on channel=0 note=60 velocity=37 time=5\n",
      "note_on channel=0 note=72 velocity=42 time=1\n",
      "note_on channel=0 note=67 velocity=40 time=2\n",
      "note_on channel=0 note=67 velocity=0 time=140\n",
      "note_on channel=0 note=72 velocity=0 time=13\n",
      "note_on channel=0 note=79 velocity=0 time=37\n",
      "note_on channel=0 note=60 velocity=0 time=93\n",
      "control_change channel=0 control=67 value=113 time=166\n",
      "control_change channel=0 control=67 value=107 time=38\n",
      "control_change channel=0 control=67 value=100 time=35\n",
      "control_change channel=0 control=67 value=96 time=19\n",
      "control_change channel=0 control=67 value=90 time=37\n",
      "control_change channel=0 control=67 value=86 time=37\n",
      "control_change channel=0 control=67 value=79 time=39\n",
      "control_change channel=0 control=67 value=73 time=34\n",
      "control_change channel=0 control=67 value=68 time=73\n",
      "control_change channel=0 control=67 value=64 time=37\n",
      "control_change channel=0 control=67 value=60 time=93\n",
      "note_on channel=0 note=39 velocity=42 time=562\n",
      "note_on channel=0 note=41 velocity=52 time=340\n",
      "note_on channel=0 note=44 velocity=60 time=337\n",
      "note_on channel=0 note=41 velocity=0 time=97\n",
      "note_on channel=0 note=39 velocity=0 time=33\n",
      "control_change channel=0 control=67 value=64 time=150\n",
      "note_on channel=0 note=53 velocity=52 time=175\n",
      "note_on channel=0 note=59 velocity=57 time=0\n",
      "note_on channel=0 note=37 velocity=51 time=10\n",
      "control_change channel=0 control=64 value=120 time=37\n",
      "control_change channel=0 control=64 value=101 time=17\n",
      "control_change channel=0 control=64 value=79 time=19\n",
      "control_change channel=0 control=64 value=62 time=17\n",
      "note_on channel=0 note=44 velocity=0 time=9\n",
      "control_change channel=0 control=64 value=55 time=9\n",
      "control_change channel=0 control=64 value=52 time=57\n",
      "control_change channel=0 control=64 value=50 time=56\n",
      "note_on channel=0 note=39 velocity=44 time=190\n",
      "note_on channel=0 note=37 velocity=0 time=27\n",
      "note_on channel=0 note=41 velocity=39 time=509\n",
      "note_on channel=0 note=39 velocity=0 time=81\n",
      "control_change channel=0 control=67 value=68 time=221\n",
      "note_on channel=0 note=43 velocity=40 time=518\n",
      "control_change channel=0 control=64 value=48 time=28\n",
      "note_on channel=0 note=41 velocity=0 time=31\n",
      "control_change channel=0 control=64 value=45 time=5\n",
      "control_change channel=0 control=64 value=43 time=21\n",
      "control_change channel=0 control=64 value=50 time=91\n",
      "control_change channel=0 control=64 value=57 time=18\n",
      "control_change channel=0 control=64 value=63 time=17\n",
      "control_change channel=0 control=64 value=68 time=19\n",
      "control_change channel=0 control=64 value=72 time=19\n",
      "control_change channel=0 control=67 value=73 time=1\n",
      "control_change channel=0 control=64 value=76 time=17\n",
      "control_change channel=0 control=64 value=80 time=20\n",
      "control_change channel=0 control=64 value=86 time=19\n",
      "control_change channel=0 control=67 value=77 time=3\n",
      "control_change channel=0 control=64 value=95 time=15\n",
      "control_change channel=0 control=64 value=101 time=20\n",
      "control_change channel=0 control=64 value=106 time=33\n",
      "control_change channel=0 control=67 value=82 time=1\n",
      "control_change channel=0 control=64 value=112 time=37\n",
      "control_change channel=0 control=64 value=116 time=17\n",
      "note_on channel=0 note=43 velocity=0 time=9\n",
      "control_change channel=0 control=67 value=87 time=9\n",
      "note_on channel=0 note=53 velocity=0 time=13\n",
      "control_change channel=0 control=64 value=121 time=5\n",
      "control_change channel=0 control=64 value=126 time=39\n",
      "control_change channel=0 control=67 value=92 time=1\n",
      "note_on channel=0 note=59 velocity=0 time=33\n",
      "control_change channel=0 control=67 value=96 time=2\n",
      "control_change channel=0 control=67 value=101 time=70\n",
      "control_change channel=0 control=67 value=105 time=111\n",
      "control_change channel=0 control=67 value=109 time=239\n",
      "control_change channel=0 control=67 value=113 time=149\n",
      "control_change channel=0 control=67 value=117 time=165\n",
      "control_change channel=0 control=67 value=121 time=146\n",
      "control_change channel=0 control=67 value=125 time=217\n",
      "control_change channel=0 control=64 value=121 time=239\n",
      "control_change channel=0 control=64 value=116 time=19\n",
      "control_change channel=0 control=64 value=110 time=19\n",
      "note_on channel=0 note=60 velocity=39 time=2\n",
      "control_change channel=0 control=64 value=102 time=16\n",
      "note_on channel=0 note=24 velocity=30 time=0\n",
      "note_on channel=0 note=36 velocity=30 time=5\n",
      "note_on channel=0 note=52 velocity=40 time=0\n",
      "control_change channel=0 control=64 value=94 time=13\n",
      "control_change channel=0 control=64 value=85 time=17\n",
      "control_change channel=0 control=64 value=75 time=18\n",
      "control_change channel=0 control=64 value=64 time=19\n",
      "control_change channel=0 control=64 value=54 time=19\n",
      "control_change channel=0 control=64 value=47 time=18\n",
      "control_change channel=0 control=64 value=53 time=72\n",
      "control_change channel=0 control=64 value=61 time=21\n",
      "control_change channel=0 control=64 value=68 time=17\n",
      "control_change channel=0 control=64 value=72 time=19\n",
      "control_change channel=0 control=64 value=76 time=18\n",
      "control_change channel=0 control=64 value=80 time=19\n",
      "control_change channel=0 control=64 value=86 time=17\n",
      "control_change channel=0 control=64 value=94 time=19\n",
      "note_on channel=0 note=24 velocity=0 time=3\n",
      "control_change channel=0 control=64 value=102 time=15\n",
      "control_change channel=0 control=64 value=111 time=20\n",
      "control_change channel=0 control=64 value=118 time=16\n",
      "control_change channel=0 control=64 value=125 time=19\n",
      "note_on channel=0 note=52 velocity=0 time=15\n",
      "note_on channel=0 note=60 velocity=0 time=42\n",
      "note_on channel=0 note=36 velocity=0 time=219\n",
      "note_on channel=0 note=43 velocity=33 time=1066\n",
      "note_on channel=0 note=52 velocity=37 time=465\n",
      "note_on channel=0 note=43 velocity=0 time=130\n",
      "note_on channel=0 note=52 velocity=0 time=95\n",
      "note_on channel=0 note=52 velocity=41 time=174\n",
      "note_on channel=0 note=52 velocity=0 time=115\n",
      "note_on channel=0 note=60 velocity=39 time=241\n",
      "note_on channel=0 note=60 velocity=0 time=144\n",
      "note_on channel=0 note=52 velocity=32 time=196\n",
      "note_on channel=0 note=52 velocity=0 time=100\n",
      "note_on channel=0 note=52 velocity=25 time=267\n",
      "note_on channel=0 note=43 velocity=36 time=360\n",
      "note_on channel=0 note=52 velocity=0 time=8\n",
      "note_on channel=0 note=43 velocity=0 time=195\n",
      "note_on channel=0 note=55 velocity=38 time=483\n",
      "note_on channel=0 note=52 velocity=17 time=44\n",
      "note_on channel=0 note=55 velocity=0 time=167\n",
      "note_on channel=0 note=60 velocity=44 time=102\n",
      "note_on channel=0 note=52 velocity=0 time=6\n",
      "note_on channel=0 note=55 velocity=34 time=45\n",
      "note_on channel=0 note=60 velocity=0 time=78\n",
      "note_on channel=0 note=60 velocity=47 time=188\n",
      "note_on channel=0 note=67 velocity=44 time=9\n",
      "note_on channel=0 note=55 velocity=0 time=6\n",
      "note_on channel=0 note=60 velocity=0 time=295\n",
      "note_on channel=0 note=72 velocity=52 time=17\n",
      "note_on channel=0 note=64 velocity=42 time=19\n",
      "note_on channel=0 note=67 velocity=0 time=39\n",
      "note_on channel=0 note=72 velocity=0 time=87\n",
      "note_on channel=0 note=64 velocity=0 time=25\n",
      "note_on channel=0 note=52 velocity=43 time=129\n",
      "note_on channel=0 note=60 velocity=41 time=11\n",
      "note_on channel=0 note=60 velocity=0 time=253\n",
      "note_on channel=0 note=52 velocity=0 time=35\n",
      "note_on channel=0 note=67 velocity=43 time=39\n",
      "note_on channel=0 note=55 velocity=38 time=9\n",
      "note_on channel=0 note=55 velocity=0 time=67\n",
      "note_on channel=0 note=43 velocity=45 time=232\n",
      "note_on channel=0 note=55 velocity=28 time=33\n",
      "note_on channel=0 note=55 velocity=0 time=72\n",
      "note_on channel=0 note=67 velocity=0 time=55\n",
      "note_on channel=0 note=36 velocity=48 time=161\n",
      "note_on channel=0 note=43 velocity=0 time=60\n",
      "note_on channel=0 note=36 velocity=0 time=9\n",
      "note_on channel=0 note=60 velocity=44 time=255\n",
      "note_on channel=0 note=43 velocity=46 time=5\n",
      "note_on channel=0 note=43 velocity=0 time=76\n",
      "note_on channel=0 note=60 velocity=0 time=158\n",
      "note_on channel=0 note=52 velocity=41 time=61\n",
      "note_on channel=0 note=67 velocity=49 time=2\n",
      "note_on channel=0 note=52 velocity=0 time=70\n",
      "note_on channel=0 note=72 velocity=47 time=226\n",
      "note_on channel=0 note=67 velocity=0 time=5\n",
      "note_on channel=0 note=52 velocity=42 time=4\n",
      "note_on channel=0 note=52 velocity=0 time=315\n",
      "note_on channel=0 note=79 velocity=58 time=12\n",
      "note_on channel=0 note=60 velocity=45 time=8\n",
      "note_on channel=0 note=72 velocity=0 time=125\n",
      "note_on channel=0 note=79 velocity=0 time=1\n",
      "note_on channel=0 note=60 velocity=0 time=7\n",
      "note_on channel=0 note=67 velocity=41 time=160\n",
      "note_on channel=0 note=52 velocity=30 time=16\n",
      "note_on channel=0 note=52 velocity=0 time=55\n",
      "note_on channel=0 note=67 velocity=0 time=190\n",
      "note_on channel=0 note=72 velocity=32 time=72\n",
      "note_on channel=0 note=52 velocity=40 time=3\n",
      "note_on channel=0 note=60 velocity=36 time=363\n",
      "note_on channel=0 note=43 velocity=33 time=5\n",
      "note_on channel=0 note=60 velocity=0 time=89\n",
      "note_on channel=0 note=52 velocity=0 time=4\n",
      "note_on channel=0 note=43 velocity=0 time=11\n",
      "note_on channel=0 note=72 velocity=0 time=59\n",
      "note_on channel=0 note=67 velocity=41 time=461\n",
      "note_on channel=0 note=52 velocity=38 time=9\n",
      "note_on channel=0 note=52 velocity=0 time=309\n",
      "note_on channel=0 note=55 velocity=41 time=1\n",
      "note_on channel=0 note=72 velocity=47 time=12\n",
      "note_on channel=0 note=67 velocity=0 time=3\n",
      "note_on channel=0 note=79 velocity=51 time=291\n",
      "note_on channel=0 note=72 velocity=0 time=2\n",
      "note_on channel=0 note=60 velocity=42 time=5\n",
      "note_on channel=0 note=55 velocity=0 time=1\n",
      "note_on channel=0 note=84 velocity=58 time=313\n",
      "note_on channel=0 note=64 velocity=42 time=26\n",
      "note_on channel=0 note=60 velocity=0 time=2\n",
      "note_on channel=0 note=84 velocity=0 time=141\n",
      "note_on channel=0 note=79 velocity=0 time=67\n",
      "note_on channel=0 note=64 velocity=0 time=16\n",
      "note_on channel=0 note=72 velocity=42 time=62\n",
      "note_on channel=0 note=52 velocity=36 time=8\n",
      "note_on channel=0 note=52 velocity=0 time=297\n",
      "note_on channel=0 note=72 velocity=0 time=0\n",
      "note_on channel=0 note=79 velocity=49 time=18\n",
      "note_on channel=0 note=55 velocity=30 time=36\n",
      "note_on channel=0 note=55 velocity=0 time=274\n",
      "note_on channel=0 note=43 velocity=49 time=11\n",
      "note_on channel=0 note=43 velocity=0 time=94\n",
      "note_on channel=0 note=67 velocity=18 time=15\n",
      "note_on channel=0 note=67 velocity=0 time=50\n",
      "note_on channel=0 note=79 velocity=0 time=204\n",
      "note_on channel=0 note=24 velocity=55 time=67\n",
      "note_on channel=0 note=36 velocity=46 time=3\n",
      "note_on channel=0 note=24 velocity=0 time=54\n",
      "note_on channel=0 note=36 velocity=0 time=28\n",
      "note_on channel=0 note=72 velocity=46 time=288\n",
      "note_on channel=0 note=43 velocity=45 time=20\n",
      "note_on channel=0 note=43 velocity=0 time=229\n",
      "note_on channel=0 note=79 velocity=48 time=114\n",
      "note_on channel=0 note=52 velocity=35 time=8\n",
      "note_on channel=0 note=72 velocity=0 time=232\n",
      "note_on channel=0 note=52 velocity=0 time=34\n",
      "note_on channel=0 note=60 velocity=46 time=15\n",
      "note_on channel=0 note=84 velocity=42 time=17\n",
      "note_on channel=0 note=79 velocity=0 time=29\n",
      "note_on channel=0 note=84 velocity=0 time=22\n",
      "note_on channel=0 note=72 velocity=50 time=45\n",
      "note_on channel=0 note=72 velocity=0 time=106\n",
      "note_on channel=0 note=79 velocity=53 time=20\n",
      "note_on channel=0 note=84 velocity=55 time=112\n",
      "note_on channel=0 note=79 velocity=0 time=46\n",
      "note_on channel=0 note=67 velocity=54 time=169\n",
      "note_on channel=0 note=60 velocity=0 time=102\n",
      "note_on channel=0 note=91 velocity=82 time=48\n",
      "note_on channel=0 note=84 velocity=0 time=71\n",
      "note_on channel=0 note=91 velocity=0 time=19\n",
      "note_on channel=0 note=67 velocity=0 time=209\n",
      "control_change channel=0 control=67 value=121 time=3\n",
      "note_on channel=0 note=60 velocity=34 time=88\n",
      "note_on channel=0 note=79 velocity=36 time=76\n",
      "note_on channel=0 note=60 velocity=0 time=287\n",
      "note_on channel=0 note=84 velocity=46 time=6\n",
      "note_on channel=0 note=52 velocity=38 time=12\n",
      "note_on channel=0 note=72 velocity=36 time=326\n",
      "note_on channel=0 note=43 velocity=39 time=5\n",
      "note_on channel=0 note=84 velocity=0 time=29\n",
      "note_on channel=0 note=79 velocity=0 time=48\n",
      "note_on channel=0 note=43 velocity=0 time=15\n",
      "note_on channel=0 note=72 velocity=0 time=54\n",
      "note_on channel=0 note=52 velocity=0 time=18\n",
      "note_on channel=0 note=67 velocity=38 time=505\n",
      "note_on channel=0 note=52 velocity=33 time=15\n",
      "note_on channel=0 note=52 velocity=0 time=287\n",
      "note_on channel=0 note=55 velocity=44 time=15\n",
      "note_on channel=0 note=72 velocity=46 time=23\n",
      "note_on channel=0 note=67 velocity=0 time=143\n",
      "note_on channel=0 note=79 velocity=47 time=136\n",
      "note_on channel=0 note=55 velocity=0 time=22\n",
      "note_on channel=0 note=60 velocity=39 time=12\n",
      "note_on channel=0 note=72 velocity=0 time=7\n",
      "note_on channel=0 note=79 velocity=0 time=97\n",
      "note_on channel=0 note=79 velocity=52 time=186\n",
      "note_on channel=0 note=64 velocity=37 time=20\n",
      "note_on channel=0 note=60 velocity=0 time=6\n",
      "note_on channel=0 note=79 velocity=0 time=220\n",
      "note_on channel=0 note=64 velocity=0 time=8\n",
      "note_on channel=0 note=72 velocity=49 time=56\n"
     ]
    },
    {
     "name": "stdout",
     "output_type": "stream",
     "text": [
      "note_on channel=0 note=52 velocity=35 time=21\n",
      "note_on channel=0 note=52 velocity=0 time=301\n",
      "note_on channel=0 note=55 velocity=44 time=35\n",
      "note_on channel=0 note=84 velocity=65 time=29\n",
      "note_on channel=0 note=79 velocity=37 time=39\n",
      "note_on channel=0 note=79 velocity=0 time=66\n",
      "note_on channel=0 note=84 velocity=0 time=53\n",
      "note_on channel=0 note=72 velocity=0 time=42\n",
      "note_on channel=0 note=55 velocity=0 time=100\n",
      "note_on channel=0 note=43 velocity=50 time=56\n",
      "note_on channel=0 note=43 velocity=0 time=77\n",
      "note_on channel=0 note=67 velocity=38 time=47\n",
      "note_on channel=0 note=67 velocity=0 time=62\n",
      "note_on channel=0 note=72 velocity=52 time=32\n",
      "note_on channel=0 note=72 velocity=0 time=123\n",
      "note_on channel=0 note=76 velocity=47 time=12\n",
      "note_on channel=0 note=24 velocity=42 time=237\n",
      "note_on channel=0 note=36 velocity=39 time=17\n",
      "note_on channel=0 note=84 velocity=71 time=9\n",
      "note_on channel=0 note=76 velocity=0 time=47\n",
      "note_on channel=0 note=84 velocity=0 time=16\n",
      "note_on channel=0 note=24 velocity=0 time=12\n",
      "note_on channel=0 note=36 velocity=0 time=66\n",
      "note_on channel=0 note=60 velocity=41 time=407\n",
      "note_on channel=0 note=43 velocity=26 time=7\n",
      "note_on channel=0 note=43 velocity=0 time=151\n",
      "note_on channel=0 note=67 velocity=40 time=189\n",
      "note_on channel=0 note=52 velocity=35 time=6\n",
      "note_on channel=0 note=60 velocity=0 time=43\n",
      "note_on channel=0 note=52 velocity=0 time=46\n",
      "note_on channel=0 note=52 velocity=35 time=229\n",
      "note_on channel=0 note=72 velocity=40 time=23\n",
      "note_on channel=0 note=72 velocity=0 time=80\n",
      "note_on channel=0 note=67 velocity=0 time=94\n",
      "note_on channel=0 note=52 velocity=0 time=119\n",
      "note_on channel=0 note=72 velocity=45 time=31\n",
      "note_on channel=0 note=60 velocity=40 time=4\n",
      "note_on channel=0 note=60 velocity=0 time=150\n",
      "note_on channel=0 note=52 velocity=39 time=201\n",
      "note_on channel=0 note=67 velocity=35 time=6\n",
      "note_on channel=0 note=52 velocity=0 time=71\n",
      "note_on channel=0 note=52 velocity=33 time=263\n",
      "note_on channel=0 note=60 velocity=36 time=338\n",
      "note_on channel=0 note=43 velocity=34 time=3\n",
      "note_on channel=0 note=52 velocity=0 time=65\n",
      "note_on channel=0 note=60 velocity=0 time=48\n",
      "note_on channel=0 note=43 velocity=0 time=7\n",
      "note_on channel=0 note=67 velocity=0 time=53\n",
      "note_on channel=0 note=72 velocity=0 time=34\n",
      "note_on channel=0 note=67 velocity=45 time=456\n",
      "note_on channel=0 note=52 velocity=34 time=31\n",
      "note_on channel=0 note=55 velocity=43 time=338\n",
      "note_on channel=0 note=52 velocity=0 time=87\n",
      "note_on channel=0 note=79 velocity=72 time=32\n",
      "note_on channel=0 note=76 velocity=52 time=42\n",
      "note_on channel=0 note=67 velocity=0 time=56\n",
      "note_on channel=0 note=76 velocity=0 time=80\n",
      "note_on channel=0 note=60 velocity=36 time=178\n",
      "note_on channel=0 note=55 velocity=0 time=4\n",
      "note_on channel=0 note=67 velocity=46 time=9\n",
      "note_on channel=0 note=67 velocity=0 time=214\n",
      "note_on channel=0 note=64 velocity=37 time=95\n",
      "note_on channel=0 note=60 velocity=0 time=7\n",
      "note_on channel=0 note=64 velocity=0 time=217\n",
      "note_on channel=0 note=79 velocity=0 time=85\n",
      "note_on channel=0 note=52 velocity=38 time=3\n",
      "note_on channel=0 note=67 velocity=45 time=16\n",
      "note_on channel=0 note=52 velocity=0 time=267\n",
      "note_on channel=0 note=55 velocity=51 time=22\n",
      "note_on channel=0 note=81 velocity=81 time=62\n",
      "note_on channel=0 note=72 velocity=59 time=29\n",
      "note_on channel=0 note=67 velocity=0 time=1\n",
      "note_on channel=0 note=81 velocity=0 time=203\n",
      "note_on channel=0 note=43 velocity=47 time=103\n",
      "note_on channel=0 note=55 velocity=0 time=10\n",
      "note_on channel=0 note=64 velocity=59 time=2\n",
      "note_on channel=0 note=64 velocity=0 time=40\n",
      "note_on channel=0 note=43 velocity=0 time=13\n",
      "note_on channel=0 note=72 velocity=0 time=14\n",
      "note_on channel=0 note=67 velocity=52 time=199\n",
      "note_on channel=0 note=72 velocity=55 time=110\n",
      "note_on channel=0 note=76 velocity=65 time=86\n",
      "note_on channel=0 note=33 velocity=62 time=228\n",
      "control_change channel=0 control=64 value=120 time=39\n",
      "control_change channel=0 control=64 value=93 time=17\n",
      "control_change channel=0 control=64 value=63 time=19\n",
      "control_change channel=0 control=64 value=0 time=18\n",
      "note_on channel=0 note=83 velocity=82 time=4\n",
      "control_change channel=0 control=64 value=47 time=50\n",
      "control_change channel=0 control=64 value=68 time=19\n",
      "control_change channel=0 control=64 value=80 time=20\n",
      "note_on channel=0 note=76 velocity=0 time=6\n",
      "note_on channel=0 note=83 velocity=0 time=3\n",
      "control_change channel=0 control=64 value=93 time=9\n",
      "note_on channel=0 note=72 velocity=0 time=1\n",
      "control_change channel=0 control=64 value=107 time=15\n",
      "control_change channel=0 control=64 value=120 time=18\n",
      "note_on channel=0 note=33 velocity=0 time=15\n",
      "control_change channel=0 control=64 value=127 time=4\n",
      "note_on channel=0 note=67 velocity=0 time=9\n",
      "note_on channel=0 note=52 velocity=29 time=474\n",
      "note_on channel=0 note=60 velocity=39 time=3\n",
      "note_on channel=0 note=52 velocity=0 time=339\n",
      "note_on channel=0 note=55 velocity=38 time=9\n",
      "note_on channel=0 note=60 velocity=0 time=2\n",
      "note_on channel=0 note=67 velocity=33 time=20\n",
      "note_on channel=0 note=60 velocity=30 time=308\n",
      "note_on channel=0 note=72 velocity=45 time=26\n",
      "note_on channel=0 note=55 velocity=0 time=35\n",
      "note_on channel=0 note=67 velocity=0 time=86\n",
      "note_on channel=0 note=72 velocity=0 time=5\n",
      "note_on channel=0 note=64 velocity=35 time=194\n",
      "note_on channel=0 note=72 velocity=43 time=10\n",
      "note_on channel=0 note=60 velocity=0 time=2\n",
      "note_on channel=0 note=64 velocity=0 time=187\n",
      "note_on channel=0 note=55 velocity=37 time=127\n",
      "note_on channel=0 note=67 velocity=41 time=41\n",
      "note_on channel=0 note=55 velocity=0 time=303\n",
      "note_on channel=0 note=60 velocity=36 time=35\n",
      "note_on channel=0 note=60 velocity=0 time=73\n",
      "note_on channel=0 note=67 velocity=0 time=44\n",
      "note_on channel=0 note=72 velocity=0 time=0\n",
      "note_on channel=0 note=52 velocity=41 time=234\n",
      "note_on channel=0 note=60 velocity=39 time=41\n",
      "note_on channel=0 note=52 velocity=0 time=65\n",
      "control_change channel=0 control=67 value=125 time=96\n",
      "control_change channel=0 control=64 value=109 time=292\n",
      "control_change channel=0 control=64 value=79 time=18\n",
      "control_change channel=0 control=64 value=42 time=18\n",
      "note_on channel=0 note=31 velocity=55 time=0\n",
      "control_change channel=0 control=64 value=0 time=19\n",
      "control_change channel=0 control=64 value=33 time=38\n",
      "control_change channel=0 control=64 value=61 time=17\n",
      "control_change channel=0 control=64 value=76 time=18\n",
      "control_change channel=0 control=64 value=89 time=20\n",
      "note_on channel=0 note=60 velocity=0 time=5\n",
      "control_change channel=0 control=64 value=104 time=13\n",
      "control_change channel=0 control=64 value=119 time=17\n",
      "note_on channel=0 note=31 velocity=0 time=11\n",
      "control_change channel=0 control=64 value=127 time=8\n",
      "note_on channel=0 note=43 velocity=39 time=269\n",
      "note_on channel=0 note=64 velocity=42 time=56\n",
      "note_on channel=0 note=64 velocity=0 time=83\n",
      "note_on channel=0 note=67 velocity=48 time=42\n",
      "note_on channel=0 note=67 velocity=0 time=108\n",
      "note_on channel=0 note=72 velocity=53 time=22\n",
      "note_on channel=0 note=81 velocity=69 time=248\n",
      "note_on channel=0 note=72 velocity=0 time=40\n",
      "note_on channel=0 note=81 velocity=0 time=30\n",
      "note_on channel=0 note=43 velocity=0 time=205\n",
      "note_on channel=0 note=52 velocity=41 time=86\n",
      "note_on channel=0 note=60 velocity=37 time=318\n",
      "note_on channel=0 note=52 velocity=0 time=1\n",
      "note_on channel=0 note=60 velocity=0 time=71\n",
      "note_on channel=0 note=67 velocity=49 time=274\n",
      "note_on channel=0 note=52 velocity=34 time=3\n",
      "note_on channel=0 note=52 velocity=0 time=71\n",
      "note_on channel=0 note=52 velocity=40 time=276\n",
      "note_on channel=0 note=79 velocity=69 time=83\n",
      "note_on channel=0 note=72 velocity=42 time=16\n",
      "note_on channel=0 note=67 velocity=0 time=34\n",
      "note_on channel=0 note=72 velocity=0 time=32\n",
      "note_on channel=0 note=79 velocity=0 time=28\n",
      "note_on channel=0 note=43 velocity=29 time=279\n",
      "note_on channel=0 note=52 velocity=0 time=19\n",
      "note_on channel=0 note=43 velocity=0 time=97\n",
      "note_on channel=0 note=55 velocity=17 time=19\n",
      "note_on channel=0 note=55 velocity=0 time=58\n",
      "note_on channel=0 note=60 velocity=48 time=33\n",
      "note_on channel=0 note=60 velocity=0 time=122\n",
      "note_on channel=0 note=64 velocity=48 time=8\n",
      "control_change channel=0 control=64 value=121 time=270\n",
      "note_on channel=0 note=24 velocity=43 time=10\n",
      "note_on channel=0 note=36 velocity=37 time=0\n",
      "note_on channel=0 note=72 velocity=64 time=0\n",
      "control_change channel=0 control=64 value=99 time=9\n",
      "control_change channel=0 control=64 value=78 time=20\n",
      "control_change channel=0 control=64 value=65 time=17\n",
      "control_change channel=0 control=64 value=63 time=19\n",
      "control_change channel=0 control=64 value=68 time=17\n",
      "note_on channel=0 note=64 velocity=0 time=11\n",
      "control_change channel=0 control=64 value=75 time=9\n",
      "control_change channel=0 control=64 value=85 time=18\n",
      "note_on channel=0 note=24 velocity=0 time=10\n",
      "control_change channel=0 control=64 value=98 time=8\n",
      "control_change channel=0 control=64 value=112 time=32\n",
      "control_change channel=0 control=64 value=124 time=20\n",
      "note_on channel=0 note=72 velocity=0 time=42\n",
      "note_on channel=0 note=36 velocity=0 time=23\n",
      "note_on channel=0 note=43 velocity=44 time=307\n",
      "note_on channel=0 note=52 velocity=39 time=334\n",
      "note_on channel=0 note=43 velocity=0 time=12\n",
      "note_on channel=0 note=52 velocity=0 time=91\n",
      "note_on channel=0 note=72 velocity=58 time=263\n",
      "note_on channel=0 note=60 velocity=43 time=22\n",
      "note_on channel=0 note=52 velocity=46 time=1\n",
      "note_on channel=0 note=60 velocity=0 time=72\n",
      "note_on channel=0 note=52 velocity=0 time=83\n",
      "note_on channel=0 note=72 velocity=0 time=12\n",
      "note_on channel=0 note=72 velocity=57 time=198\n",
      "note_on channel=0 note=60 velocity=50 time=21\n",
      "note_on channel=0 note=64 velocity=31 time=13\n",
      "note_on channel=0 note=60 velocity=0 time=98\n",
      "note_on channel=0 note=64 velocity=0 time=77\n",
      "note_on channel=0 note=72 velocity=0 time=112\n",
      "note_on channel=0 note=52 velocity=40 time=23\n",
      "note_on channel=0 note=60 velocity=31 time=18\n",
      "note_on channel=0 note=52 velocity=0 time=76\n",
      "note_on channel=0 note=60 velocity=0 time=170\n",
      "note_on channel=0 note=52 velocity=38 time=102\n",
      "note_on channel=0 note=64 velocity=35 time=2\n",
      "note_on channel=0 note=55 velocity=41 time=351\n",
      "note_on channel=0 note=43 velocity=27 time=22\n",
      "note_on channel=0 note=52 velocity=0 time=78\n",
      "note_on channel=0 note=43 velocity=0 time=68\n",
      "control_change channel=0 control=64 value=120 time=316\n",
      "control_change channel=0 control=64 value=96 time=18\n",
      "note_on channel=0 note=35 velocity=63 time=0\n",
      "control_change channel=0 control=64 value=69 time=17\n",
      "control_change channel=0 control=64 value=39 time=20\n",
      "control_change channel=0 control=64 value=32 time=18\n",
      "control_change channel=0 control=64 value=41 time=19\n",
      "note_on channel=0 note=55 velocity=0 time=10\n",
      "control_change channel=0 control=64 value=59 time=7\n",
      "control_change channel=0 control=64 value=72 time=20\n",
      "control_change channel=0 control=64 value=85 time=20\n",
      "control_change channel=0 control=64 value=101 time=18\n",
      "control_change channel=0 control=64 value=117 time=16\n",
      "control_change channel=0 control=64 value=127 time=19\n",
      "note_on channel=0 note=35 velocity=0 time=1\n",
      "note_on channel=0 note=52 velocity=47 time=310\n",
      "note_on channel=0 note=60 velocity=46 time=6\n",
      "note_on channel=0 note=64 velocity=0 time=57\n",
      "note_on channel=0 note=55 velocity=48 time=325\n",
      "note_on channel=0 note=52 velocity=0 time=10\n",
      "note_on channel=0 note=67 velocity=68 time=52\n",
      "note_on channel=0 note=60 velocity=0 time=24\n",
      "note_on channel=0 note=62 velocity=49 time=17\n",
      "note_on channel=0 note=62 velocity=0 time=245\n",
      "note_on channel=0 note=60 velocity=41 time=48\n",
      "note_on channel=0 note=52 velocity=30 time=16\n",
      "note_on channel=0 note=60 velocity=0 time=53\n",
      "note_on channel=0 note=55 velocity=0 time=182\n",
      "note_on channel=0 note=64 velocity=50 time=66\n",
      "note_on channel=0 note=52 velocity=0 time=56\n",
      "note_on channel=0 note=64 velocity=0 time=221\n",
      "note_on channel=0 note=52 velocity=44 time=21\n",
      "note_on channel=0 note=60 velocity=47 time=21\n",
      "note_on channel=0 note=60 velocity=0 time=272\n",
      "note_on channel=0 note=52 velocity=0 time=14\n",
      "note_on channel=0 note=55 velocity=49 time=19\n",
      "note_on channel=0 note=69 velocity=70 time=56\n",
      "note_on channel=0 note=67 velocity=0 time=9\n",
      "note_on channel=0 note=62 velocity=41 time=21\n",
      "note_on channel=0 note=62 velocity=0 time=186\n",
      "note_on channel=0 note=52 velocity=46 time=137\n",
      "note_on channel=0 note=55 velocity=0 time=24\n",
      "note_on channel=0 note=60 velocity=35 time=27\n",
      "note_on channel=0 note=52 velocity=0 time=31\n",
      "note_on channel=0 note=60 velocity=0 time=20\n",
      "note_on channel=0 note=60 velocity=50 time=127\n",
      "note_on channel=0 note=69 velocity=0 time=96\n",
      "note_on channel=0 note=64 velocity=55 time=30\n",
      "control_change channel=0 control=64 value=108 time=206\n",
      "note_on channel=0 note=33 velocity=54 time=0\n",
      "control_change channel=0 control=64 value=82 time=19\n",
      "control_change channel=0 control=64 value=43 time=19\n",
      "control_change channel=0 control=64 value=0 time=19\n",
      "note_on channel=0 note=71 velocity=72 time=38\n",
      "control_change channel=0 control=64 value=38 time=53\n",
      "control_change channel=0 control=64 value=63 time=18\n",
      "control_change channel=0 control=64 value=79 time=20\n",
      "control_change channel=0 control=64 value=93 time=19\n",
      "control_change channel=0 control=64 value=107 time=17\n",
      "note_on channel=0 note=64 velocity=0 time=11\n",
      "control_change channel=0 control=64 value=118 time=6\n",
      "note_on channel=0 note=33 velocity=0 time=11\n",
      "control_change channel=0 control=64 value=126 time=9\n",
      "note_on channel=0 note=60 velocity=0 time=16\n",
      "note_on channel=0 note=52 velocity=42 time=372\n",
      "note_on channel=0 note=60 velocity=42 time=5\n",
      "note_on channel=0 note=60 velocity=0 time=245\n",
      "note_on channel=0 note=71 velocity=0 time=44\n",
      "note_on channel=0 note=52 velocity=0 time=22\n",
      "note_on channel=0 note=55 velocity=41 time=1\n",
      "note_on channel=0 note=64 velocity=42 time=2\n",
      "note_on channel=0 note=64 velocity=0 time=231\n",
      "note_on channel=0 note=71 velocity=46 time=91\n",
      "note_on channel=0 note=55 velocity=0 time=2\n",
      "note_on channel=0 note=60 velocity=37 time=21\n",
      "note_on channel=0 note=76 velocity=57 time=338\n",
      "note_on channel=0 note=60 velocity=0 time=1\n",
      "note_on channel=0 note=64 velocity=41 time=13\n",
      "note_on channel=0 note=71 velocity=0 time=108\n",
      "note_on channel=0 note=64 velocity=0 time=31\n",
      "note_on channel=0 note=76 velocity=0 time=5\n",
      "note_on channel=0 note=55 velocity=40 time=160\n",
      "note_on channel=0 note=64 velocity=41 time=22\n",
      "note_on channel=0 note=55 velocity=0 time=290\n",
      "note_on channel=0 note=60 velocity=36 time=57\n",
      "note_on channel=0 note=60 velocity=0 time=59\n",
      "note_on channel=0 note=52 velocity=38 time=310\n",
      "note_on channel=0 note=60 velocity=37 time=25\n",
      "note_on channel=0 note=52 velocity=0 time=95\n",
      "note_on channel=0 note=64 velocity=0 time=11\n",
      "note_on channel=0 note=31 velocity=56 time=412\n",
      "control_change channel=0 control=64 value=101 time=32\n",
      "control_change channel=0 control=64 value=74 time=19\n",
      "control_change channel=0 control=64 value=45 time=20\n",
      "control_change channel=0 control=64 value=27 time=17\n",
      "control_change channel=0 control=64 value=44 time=36\n",
      "control_change channel=0 control=64 value=60 time=18\n",
      "control_change channel=0 control=64 value=71 time=19\n",
      "control_change channel=0 control=64 value=78 time=19\n",
      "control_change channel=0 control=64 value=85 time=19\n",
      "note_on channel=0 note=31 velocity=0 time=5\n",
      "note_on channel=0 note=60 velocity=0 time=1\n",
      "control_change channel=0 control=64 value=93 time=13\n",
      "control_change channel=0 control=64 value=102 time=17\n",
      "control_change channel=0 control=64 value=112 time=19\n",
      "control_change channel=0 control=64 value=120 time=19\n",
      "control_change channel=0 control=64 value=125 time=17\n",
      "note_on channel=0 note=60 velocity=36 time=203\n",
      "note_on channel=0 note=43 velocity=51 time=4\n",
      "note_on channel=0 note=52 velocity=49 time=379\n",
      "note_on channel=0 note=69 velocity=72 time=108\n",
      "note_on channel=0 note=43 velocity=0 time=64\n",
      "note_on channel=0 note=52 velocity=0 time=47\n",
      "note_on channel=0 note=60 velocity=0 time=210\n",
      "note_on channel=0 note=52 velocity=34 time=8\n",
      "note_on channel=0 note=64 velocity=39 time=15\n",
      "note_on channel=0 note=64 velocity=0 time=107\n",
      "note_on channel=0 note=52 velocity=0 time=146\n",
      "note_on channel=0 note=72 velocity=46 time=65\n",
      "note_on channel=0 note=60 velocity=37 time=7\n",
      "note_on channel=0 note=69 velocity=0 time=67\n",
      "note_on channel=0 note=60 velocity=0 time=12\n",
      "note_on channel=0 note=72 velocity=0 time=127\n",
      "note_on channel=0 note=52 velocity=45 time=119\n",
      "note_on channel=0 note=60 velocity=34 time=4\n",
      "note_on channel=0 note=52 velocity=0 time=67\n",
      "note_on channel=0 note=60 velocity=0 time=160\n",
      "note_on channel=0 note=67 velocity=63 time=137\n",
      "note_on channel=0 note=52 velocity=42 time=22\n",
      "note_on channel=0 note=52 velocity=0 time=353\n",
      "note_on channel=0 note=67 velocity=0 time=36\n",
      "note_on channel=0 note=43 velocity=43 time=33\n",
      "note_on channel=0 note=55 velocity=41 time=5\n",
      "note_on channel=0 note=43 velocity=0 time=76\n",
      "note_on channel=0 note=55 velocity=0 time=96\n",
      "note_on channel=0 note=60 velocity=58 time=459\n",
      "note_on channel=0 note=36 velocity=39 time=11\n",
      "note_on channel=0 note=24 velocity=39 time=3\n",
      "control_change channel=0 control=64 value=120 time=2\n",
      "note_on channel=0 note=52 velocity=47 time=18\n",
      "control_change channel=0 control=64 value=99 time=1\n",
      "control_change channel=0 control=64 value=71 time=20\n",
      "control_change channel=0 control=64 value=36 time=17\n",
      "control_change channel=0 control=64 value=11 time=19\n",
      "control_change channel=0 control=64 value=25 time=21\n",
      "control_change channel=0 control=64 value=48 time=16\n",
      "control_change channel=0 control=64 value=63 time=20\n",
      "control_change channel=0 control=64 value=72 time=18\n",
      "control_change channel=0 control=64 value=79 time=33\n",
      "note_on channel=0 note=24 velocity=0 time=2\n",
      "control_change channel=0 control=64 value=86 time=15\n",
      "control_change channel=0 control=64 value=96 time=19\n",
      "control_change channel=0 control=64 value=107 time=20\n",
      "control_change channel=0 control=64 value=118 time=18\n",
      "control_change channel=0 control=64 value=126 time=17\n",
      "note_on channel=0 note=52 velocity=0 time=66\n",
      "note_on channel=0 note=36 velocity=0 time=9\n",
      "note_on channel=0 note=60 velocity=0 time=122\n",
      "note_on channel=0 note=55 velocity=39 time=120\n",
      "note_on channel=0 note=43 velocity=35 time=46\n",
      "note_on channel=0 note=43 velocity=0 time=199\n",
      "note_on channel=0 note=55 velocity=0 time=52\n",
      "note_on channel=0 note=67 velocity=46 time=41\n",
      "note_on channel=0 note=52 velocity=42 time=35\n",
      "note_on channel=0 note=52 velocity=0 time=86\n",
      "note_on channel=0 note=67 velocity=0 time=186\n",
      "note_on channel=0 note=60 velocity=64 time=33\n",
      "note_on channel=0 note=52 velocity=45 time=27\n",
      "note_on channel=0 note=60 velocity=0 time=139\n",
      "note_on channel=0 note=52 velocity=0 time=103\n",
      "note_on channel=0 note=60 velocity=51 time=99\n",
      "note_on channel=0 note=72 velocity=47 time=18\n",
      "note_on channel=0 note=60 velocity=0 time=119\n",
      "note_on channel=0 note=72 velocity=0 time=46\n",
      "note_on channel=0 note=60 velocity=28 time=161\n",
      "note_on channel=0 note=52 velocity=22 time=3\n",
      "note_on channel=0 note=52 velocity=0 time=74\n",
      "note_on channel=0 note=60 velocity=0 time=174\n",
      "note_on channel=0 note=67 velocity=41 time=61\n",
      "note_on channel=0 note=52 velocity=39 time=27\n",
      "note_on channel=0 note=67 velocity=0 time=227\n",
      "note_on channel=0 note=55 velocity=32 time=121\n",
      "note_on channel=0 note=52 velocity=0 time=3\n",
      "note_on channel=0 note=43 velocity=31 time=9\n",
      "note_on channel=0 note=55 velocity=0 time=65\n",
      "note_on channel=0 note=43 velocity=0 time=139\n",
      "note_on channel=0 note=43 velocity=42 time=493\n",
      "note_on channel=0 note=52 velocity=47 time=454\n",
      "note_on channel=0 note=59 velocity=71 time=98\n",
      "note_on channel=0 note=43 velocity=0 time=32\n",
      "note_on channel=0 note=52 velocity=0 time=59\n",
      "note_on channel=0 note=59 velocity=0 time=284\n",
      "note_on channel=0 note=52 velocity=38 time=4\n",
      "note_on channel=0 note=55 velocity=42 time=34\n",
      "note_on channel=0 note=52 velocity=0 time=109\n",
      "note_on channel=0 note=55 velocity=0 time=44\n",
      "note_on channel=0 note=67 velocity=43 time=123\n",
      "note_on channel=0 note=64 velocity=47 time=1\n",
      "note_on channel=0 note=64 velocity=0 time=171\n",
      "note_on channel=0 note=52 velocity=43 time=144\n",
      "note_on channel=0 note=55 velocity=44 time=16\n",
      "note_on channel=0 note=67 velocity=0 time=150\n",
      "note_on channel=0 note=57 velocity=72 time=165\n",
      "note_on channel=0 note=55 velocity=0 time=27\n",
      "note_on channel=0 note=52 velocity=0 time=217\n",
      "note_on channel=0 note=57 velocity=0 time=89\n",
      "note_on channel=0 note=43 velocity=53 time=69\n",
      "note_on channel=0 note=43 velocity=0 time=57\n",
      "note_on channel=0 note=24 velocity=47 time=377\n",
      "note_on channel=0 note=36 velocity=52 time=169\n",
      "note_on channel=0 note=53 velocity=60 time=23\n",
      "note_on channel=0 note=57 velocity=61 time=2\n",
      "note_on channel=0 note=62 velocity=56 time=46\n",
      "control_change channel=0 control=64 value=115 time=21\n",
      "control_change channel=0 control=64 value=85 time=18\n",
      "control_change channel=0 control=64 value=50 time=20\n",
      "control_change channel=0 control=64 value=11 time=16\n",
      "control_change channel=0 control=64 value=22 time=20\n",
      "control_change channel=0 control=64 value=42 time=20\n",
      "control_change channel=0 control=64 value=58 time=18\n",
      "control_change channel=0 control=64 value=67 time=15\n",
      "note_on channel=0 note=67 velocity=51 time=13\n",
      "control_change channel=0 control=64 value=72 time=6\n",
      "control_change channel=0 control=64 value=76 time=21\n",
      "control_change channel=0 control=64 value=79 time=18\n",
      "control_change channel=0 control=64 value=84 time=16\n",
      "control_change channel=0 control=64 value=91 time=21\n",
      "control_change channel=0 control=64 value=101 time=17\n",
      "control_change channel=0 control=64 value=110 time=18\n",
      "control_change channel=0 control=64 value=118 time=19\n",
      "control_change channel=0 control=64 value=125 time=18\n",
      "note_on channel=0 note=24 velocity=0 time=20\n",
      "note_on channel=0 note=53 velocity=0 time=32\n",
      "note_on channel=0 note=36 velocity=0 time=62\n",
      "note_on channel=0 note=57 velocity=0 time=55\n",
      "note_on channel=0 note=62 velocity=0 time=126\n",
      "note_on channel=0 note=43 velocity=44 time=204\n",
      "note_on channel=0 note=43 velocity=0 time=317\n",
      "note_on channel=0 note=53 velocity=46 time=39\n",
      "note_on channel=0 note=64 velocity=48 time=15\n",
      "note_on channel=0 note=67 velocity=0 time=69\n",
      "note_on channel=0 note=53 velocity=0 time=136\n",
      "note_on channel=0 note=62 velocity=52 time=71\n",
      "note_on channel=0 note=64 velocity=0 time=1\n",
      "note_on channel=0 note=57 velocity=40 time=11\n",
      "note_on channel=0 note=57 velocity=0 time=75\n",
      "note_on channel=0 note=62 velocity=0 time=129\n",
      "note_on channel=0 note=67 velocity=57 time=17\n",
      "note_on channel=0 note=67 velocity=0 time=147\n",
      "note_on channel=0 note=57 velocity=55 time=71\n",
      "note_on channel=0 note=53 velocity=49 time=17\n",
      "note_on channel=0 note=57 velocity=0 time=72\n",
      "note_on channel=0 note=70 velocity=74 time=132\n",
      "note_on channel=0 note=57 velocity=52 time=10\n",
      "note_on channel=0 note=53 velocity=0 time=10\n",
      "note_on channel=0 note=57 velocity=0 time=157\n",
      "note_on channel=0 note=62 velocity=57 time=53\n",
      "note_on channel=0 note=70 velocity=0 time=4\n",
      "note_on channel=0 note=69 velocity=73 time=3\n",
      "note_on channel=0 note=69 velocity=0 time=120\n",
      "note_on channel=0 note=61 velocity=56 time=135\n",
      "note_on channel=0 note=62 velocity=0 time=2\n",
      "control_change channel=0 control=64 value=109 time=71\n",
      "control_change channel=0 control=64 value=82 time=18\n",
      "note_on channel=0 note=76 velocity=75 time=0\n",
      "control_change channel=0 control=64 value=56 time=18\n",
      "control_change channel=0 control=64 value=30 time=18\n",
      "control_change channel=0 control=64 value=38 time=55\n",
      "control_change channel=0 control=64 value=55 time=18\n",
      "control_change channel=0 control=64 value=66 time=19\n",
      "control_change channel=0 control=64 value=72 time=19\n",
      "control_change channel=0 control=64 value=76 time=18\n",
      "control_change channel=0 control=64 value=79 time=19\n",
      "control_change channel=0 control=64 value=82 time=18\n",
      "control_change channel=0 control=64 value=84 time=20\n",
      "control_change channel=0 control=64 value=88 time=17\n",
      "note_on channel=0 note=61 velocity=0 time=12\n",
      "control_change channel=0 control=64 value=93 time=4\n",
      "control_change channel=0 control=64 value=101 time=21\n",
      "note_on channel=0 note=57 velocity=34 time=3\n",
      "note_on channel=0 note=69 velocity=42 time=13\n",
      "control_change channel=0 control=64 value=108 time=2\n",
      "control_change channel=0 control=64 value=112 time=19\n",
      "note_on channel=0 note=76 velocity=0 time=38\n",
      "control_change channel=0 control=64 value=117 time=16\n",
      "control_change channel=0 control=64 value=123 time=37\n",
      "control_change channel=0 control=64 value=127 time=38\n",
      "note_on channel=0 note=77 velocity=55 time=102\n",
      "note_on channel=0 note=57 velocity=0 time=1\n",
      "note_on channel=0 note=61 velocity=31 time=12\n",
      "note_on channel=0 note=69 velocity=0 time=58\n",
      "note_on channel=0 note=61 velocity=0 time=92\n",
      "note_on channel=0 note=76 velocity=53 time=41\n",
      "note_on channel=0 note=67 velocity=43 time=5\n",
      "note_on channel=0 note=77 velocity=0 time=12\n",
      "note_on channel=0 note=67 velocity=0 time=91\n",
      "note_on channel=0 note=81 velocity=55 time=105\n",
      "note_on channel=0 note=73 velocity=51 time=2\n",
      "note_on channel=0 note=76 velocity=0 time=49\n",
      "note_on channel=0 note=73 velocity=0 time=9\n",
      "note_on channel=0 note=81 velocity=0 time=80\n",
      "note_on channel=0 note=69 velocity=51 time=73\n",
      "note_on channel=0 note=69 velocity=0 time=75\n",
      "note_on channel=0 note=74 velocity=65 time=139\n",
      "note_on channel=0 note=70 velocity=54 time=33\n",
      "note_on channel=0 note=53 velocity=53 time=1\n",
      "control_change channel=0 control=64 value=123 time=6\n",
      "control_change channel=0 control=64 value=99 time=18\n",
      "control_change channel=0 control=64 value=72 time=19\n",
      "control_change channel=0 control=64 value=56 time=18\n",
      "control_change channel=0 control=64 value=61 time=55\n",
      "control_change channel=0 control=64 value=66 time=18\n",
      "control_change channel=0 control=64 value=73 time=16\n",
      "control_change channel=0 control=64 value=79 time=20\n",
      "control_change channel=0 control=64 value=83 time=18\n",
      "control_change channel=0 control=64 value=90 time=19\n",
      "control_change channel=0 control=64 value=96 time=18\n",
      "note_on channel=0 note=57 velocity=38 time=11\n",
      "note_on channel=0 note=69 velocity=49 time=0\n",
      "note_on channel=0 note=70 velocity=0 time=5\n",
      "note_on channel=0 note=74 velocity=0 time=0\n",
      "control_change channel=0 control=64 value=102 time=3\n",
      "note_on channel=0 note=53 velocity=0 time=15\n",
      "control_change channel=0 control=64 value=109 time=3\n",
      "control_change channel=0 control=64 value=115 time=19\n",
      "control_change channel=0 control=64 value=121 time=19\n",
      "control_change channel=0 control=64 value=127 time=18\n",
      "control_change channel=0 control=67 value=121 time=56\n",
      "note_on channel=0 note=57 velocity=0 time=19\n",
      "note_on channel=0 note=69 velocity=0 time=33\n",
      "control_change channel=0 control=67 value=115 time=1\n",
      "control_change channel=0 control=67 value=110 time=38\n",
      "note_on channel=0 note=62 velocity=41 time=31\n",
      "note_on channel=0 note=74 velocity=64 time=1\n",
      "control_change channel=0 control=64 value=123 time=6\n",
      "control_change channel=0 control=64 value=101 time=18\n",
      "control_change channel=0 control=64 value=74 time=17\n",
      "control_change channel=0 control=64 value=54 time=20\n",
      "control_change channel=0 control=67 value=106 time=0\n",
      "control_change channel=0 control=64 value=52 time=19\n",
      "control_change channel=0 control=64 value=56 time=17\n",
      "control_change channel=0 control=64 value=62 time=17\n",
      "control_change channel=0 control=64 value=69 time=19\n",
      "control_change channel=0 control=64 value=74 time=18\n",
      "control_change channel=0 control=64 value=80 time=19\n",
      "control_change channel=0 control=64 value=85 time=22\n",
      "control_change channel=0 control=64 value=91 time=15\n",
      "control_change channel=0 control=64 value=96 time=19\n",
      "control_change channel=0 control=64 value=102 time=19\n",
      "control_change channel=0 control=64 value=108 time=19\n",
      "note_on channel=0 note=62 velocity=0 time=4\n",
      "note_on channel=0 note=57 velocity=46 time=2\n",
      "control_change channel=0 control=64 value=113 time=12\n",
      "control_change channel=0 control=64 value=117 time=17\n",
      "note_on channel=0 note=74 velocity=0 time=21\n",
      "note_on channel=0 note=69 velocity=40 time=11\n",
      "control_change channel=0 control=64 value=122 time=4\n",
      "control_change channel=0 control=64 value=126 time=56\n",
      "note_on channel=0 note=57 velocity=0 time=178\n",
      "note_on channel=0 note=76 velocity=46 time=29\n",
      "note_on channel=0 note=62 velocity=34 time=5\n",
      "note_on channel=0 note=69 velocity=0 time=45\n",
      "note_on channel=0 note=62 velocity=0 time=78\n",
      "note_on channel=0 note=76 velocity=0 time=54\n",
      "note_on channel=0 note=74 velocity=44 time=50\n",
      "note_on channel=0 note=69 velocity=42 time=34\n",
      "note_on channel=0 note=69 velocity=0 time=31\n",
      "control_change channel=0 control=67 value=102 time=45\n",
      "note_on channel=0 note=81 velocity=50 time=101\n",
      "control_change channel=0 control=67 value=98 time=139\n",
      "note_on channel=0 note=81 velocity=0 time=3\n",
      "note_on channel=0 note=74 velocity=0 time=8\n",
      "control_change channel=0 control=67 value=94 time=25\n",
      "note_on channel=0 note=69 velocity=48 time=26\n",
      "note_on channel=0 note=69 velocity=0 time=50\n",
      "control_change channel=0 control=67 value=89 time=54\n",
      "control_change channel=0 control=67 value=85 time=69\n",
      "note_on channel=0 note=31 velocity=43 time=50\n",
      "note_on channel=0 note=71 velocity=48 time=2\n",
      "control_change channel=0 control=67 value=81 time=21\n",
      "control_change channel=0 control=67 value=77 time=110\n",
      "note_on channel=0 note=31 velocity=0 time=52\n",
      "note_on channel=0 note=43 velocity=56 time=37\n",
      "note_on channel=0 note=69 velocity=50 time=14\n",
      "note_on channel=0 note=71 velocity=0 time=4\n",
      "note_on channel=0 note=43 velocity=0 time=24\n",
      "note_on channel=0 note=76 velocity=53 time=247\n",
      "note_on channel=0 note=59 velocity=77 time=5\n",
      "note_on channel=0 note=53 velocity=68 time=12\n",
      "note_on channel=0 note=59 velocity=0 time=54\n",
      "note_on channel=0 note=53 velocity=0 time=25\n",
      "note_on channel=0 note=69 velocity=0 time=75\n",
      "note_on channel=0 note=76 velocity=0 time=11\n",
      "note_on channel=0 note=64 velocity=39 time=57\n",
      "note_on channel=0 note=64 velocity=0 time=53\n",
      "note_on channel=0 note=43 velocity=52 time=191\n",
      "note_on channel=0 note=64 velocity=42 time=1\n",
      "note_on channel=0 note=64 velocity=0 time=199\n",
      "note_on channel=0 note=62 velocity=50 time=8\n",
      "note_on channel=0 note=43 velocity=0 time=4\n",
      "note_on channel=0 note=52 velocity=49 time=8\n",
      "note_on channel=0 note=69 velocity=44 time=210\n",
      "note_on channel=0 note=52 velocity=0 time=7\n",
      "note_on channel=0 note=53 velocity=57 time=36\n",
      "note_on channel=0 note=53 velocity=0 time=102\n",
      "note_on channel=0 note=59 velocity=43 time=79\n",
      "note_on channel=0 note=62 velocity=0 time=1\n",
      "note_on channel=0 note=69 velocity=0 time=47\n",
      "note_on channel=0 note=57 velocity=73 time=230\n",
      "note_on channel=0 note=64 velocity=44 time=48\n",
      "note_on channel=0 note=59 velocity=0 time=14\n",
      "note_on channel=0 note=57 velocity=0 time=12\n",
      "note_on channel=0 note=64 velocity=0 time=185\n",
      "note_on channel=0 note=62 velocity=43 time=29\n",
      "note_on channel=0 note=62 velocity=0 time=49\n",
      "note_on channel=0 note=24 velocity=45 time=165\n",
      "note_on channel=0 note=53 velocity=59 time=194\n",
      "note_on channel=0 note=57 velocity=62 time=5\n",
      "note_on channel=0 note=36 velocity=54 time=10\n",
      "note_on channel=0 note=62 velocity=65 time=6\n",
      "control_change channel=0 control=64 value=100 time=22\n",
      "control_change channel=0 control=64 value=76 time=20\n",
      "control_change channel=0 control=64 value=68 time=33\n",
      "control_change channel=0 control=64 value=70 time=17\n",
      "note_on channel=0 note=24 velocity=0 time=0\n",
      "control_change channel=0 control=64 value=75 time=20\n",
      "control_change channel=0 control=64 value=83 time=18\n",
      "note_on channel=0 note=67 velocity=62 time=6\n",
      "control_change channel=0 control=64 value=95 time=12\n",
      "control_change channel=0 control=64 value=107 time=18\n",
      "control_change channel=0 control=64 value=118 time=18\n",
      "control_change channel=0 control=64 value=126 time=21\n",
      "note_on channel=0 note=36 velocity=0 time=28\n",
      "note_on channel=0 note=53 velocity=0 time=31\n",
      "note_on channel=0 note=57 velocity=0 time=100\n",
      "note_on channel=0 note=62 velocity=0 time=92\n",
      "note_on channel=0 note=43 velocity=11 time=181\n",
      "note_on channel=0 note=53 velocity=53 time=152\n",
      "note_on channel=0 note=43 velocity=0 time=19\n",
      "note_on channel=0 note=64 velocity=53 time=22\n",
      "note_on channel=0 note=67 velocity=0 time=85\n",
      "note_on channel=0 note=53 velocity=0 time=28\n",
      "note_on channel=0 note=57 velocity=45 time=79\n",
      "note_on channel=0 note=62 velocity=54 time=36\n",
      "note_on channel=0 note=64 velocity=0 time=20\n",
      "note_on channel=0 note=57 velocity=0 time=10\n",
      "note_on channel=0 note=67 velocity=62 time=193\n",
      "note_on channel=0 note=62 velocity=0 time=33\n",
      "note_on channel=0 note=67 velocity=0 time=83\n",
      "note_on channel=0 note=53 velocity=53 time=64\n",
      "note_on channel=0 note=57 velocity=57 time=10\n",
      "note_on channel=0 note=57 velocity=0 time=81\n",
      "note_on channel=0 note=57 velocity=56 time=114\n",
      "note_on channel=0 note=70 velocity=78 time=10\n",
      "note_on channel=0 note=53 velocity=0 time=10\n",
      "note_on channel=0 note=57 velocity=0 time=154\n",
      "note_on channel=0 note=62 velocity=66 time=40\n",
      "note_on channel=0 note=69 velocity=79 time=4\n",
      "control_change channel=0 control=67 value=71 time=26\n",
      "note_on channel=0 note=70 velocity=0 time=8\n",
      "note_on channel=0 note=69 velocity=0 time=64\n",
      "note_on channel=0 note=61 velocity=61 time=203\n",
      "note_on channel=0 note=62 velocity=0 time=15\n",
      "note_on channel=0 note=76 velocity=81 time=53\n",
      "control_change channel=0 control=64 value=121 time=22\n",
      "control_change channel=0 control=64 value=96 time=19\n",
      "control_change channel=0 control=64 value=67 time=19\n",
      "control_change channel=0 control=64 value=23 time=16\n",
      "control_change channel=0 control=64 value=9 time=19\n",
      "control_change channel=0 control=64 value=20 time=19\n",
      "control_change channel=0 control=64 value=43 time=19\n",
      "control_change channel=0 control=64 value=61 time=18\n",
      "control_change channel=0 control=64 value=70 time=19\n",
      "control_change channel=0 control=64 value=77 time=19\n",
      "control_change channel=0 control=64 value=84 time=19\n",
      "control_change channel=0 control=64 value=91 time=19\n",
      "control_change channel=0 control=64 value=99 time=15\n",
      "control_change channel=0 control=64 value=105 time=20\n",
      "control_change channel=0 control=64 value=110 time=19\n",
      "note_on channel=0 note=57 velocity=46 time=10\n",
      "control_change channel=0 control=64 value=116 time=7\n",
      "note_on channel=0 note=69 velocity=48 time=3\n",
      "note_on channel=0 note=61 velocity=0 time=6\n",
      "control_change channel=0 control=64 value=122 time=8\n",
      "control_change channel=0 control=64 value=127 time=19\n",
      "note_on channel=0 note=76 velocity=0 time=38\n",
      "control_change channel=0 control=67 value=67 time=91\n",
      "note_on channel=0 note=61 velocity=41 time=81\n",
      "note_on channel=0 note=77 velocity=59 time=10\n",
      "note_on channel=0 note=57 velocity=0 time=7\n",
      "note_on channel=0 note=69 velocity=0 time=122\n",
      "note_on channel=0 note=61 velocity=0 time=37\n",
      "note_on channel=0 note=76 velocity=61 time=35\n",
      "note_on channel=0 note=77 velocity=0 time=4\n",
      "note_on channel=0 note=67 velocity=41 time=17\n",
      "note_on channel=0 note=67 velocity=0 time=94\n",
      "note_on channel=0 note=76 velocity=0 time=91\n",
      "note_on channel=0 note=81 velocity=61 time=6\n",
      "note_on channel=0 note=73 velocity=51 time=8\n",
      "note_on channel=0 note=73 velocity=0 time=52\n",
      "note_on channel=0 note=81 velocity=0 time=87\n",
      "note_on channel=0 note=69 velocity=61 time=54\n",
      "note_on channel=0 note=69 velocity=0 time=118\n",
      "control_change channel=0 control=67 value=71 time=76\n",
      "note_on channel=0 note=74 velocity=71 time=34\n",
      "control_change channel=0 control=64 value=104 time=1\n",
      "note_on channel=0 note=53 velocity=47 time=2\n",
      "control_change channel=0 control=64 value=71 time=17\n",
      "note_on channel=0 note=70 velocity=51 time=0\n",
      "control_change channel=0 control=64 value=0 time=20\n",
      "control_change channel=0 control=64 value=16 time=35\n",
      "control_change channel=0 control=64 value=48 time=20\n",
      "control_change channel=0 control=64 value=65 time=18\n",
      "control_change channel=0 control=67 value=77 time=1\n",
      "control_change channel=0 control=64 value=75 time=18\n",
      "control_change channel=0 control=67 value=81 time=2\n",
      "control_change channel=0 control=64 value=85 time=17\n",
      "control_change channel=0 control=64 value=96 time=33\n",
      "control_change channel=0 control=64 value=107 time=19\n",
      "control_change channel=0 control=64 value=115 time=18\n",
      "control_change channel=0 control=64 value=121 time=18\n",
      "control_change channel=0 control=64 value=127 time=18\n",
      "note_on channel=0 note=57 velocity=43 time=1\n",
      "note_on channel=0 note=69 velocity=53 time=12\n",
      "control_change channel=0 control=67 value=86 time=5\n",
      "note_on channel=0 note=70 velocity=0 time=7\n",
      "note_on channel=0 note=53 velocity=0 time=17\n",
      "control_change channel=0 control=67 value=91 time=68\n",
      "note_on channel=0 note=74 velocity=0 time=9\n",
      "control_change channel=0 control=67 value=96 time=29\n",
      "note_on channel=0 note=57 velocity=0 time=72\n",
      "note_on channel=0 note=69 velocity=0 time=36\n",
      "control_change channel=0 control=67 value=103 time=2\n",
      "note_on channel=0 note=62 velocity=43 time=33\n",
      "control_change channel=0 control=67 value=108 time=21\n",
      "note_on channel=0 note=74 velocity=64 time=13\n",
      "control_change channel=0 control=64 value=118 time=5\n",
      "control_change channel=0 control=64 value=99 time=19\n",
      "control_change channel=0 control=64 value=86 time=19\n",
      "control_change channel=0 control=67 value=113 time=1\n",
      "control_change channel=0 control=64 value=83 time=18\n",
      "control_change channel=0 control=67 value=117 time=2\n",
      "control_change channel=0 control=64 value=85 time=17\n",
      "control_change channel=0 control=67 value=121 time=3\n",
      "control_change channel=0 control=64 value=88 time=15\n",
      "control_change channel=0 control=64 value=94 time=19\n",
      "control_change channel=0 control=67 value=127 time=1\n",
      "control_change channel=0 control=64 value=103 time=15\n",
      "control_change channel=0 control=64 value=113 time=19\n",
      "control_change channel=0 control=64 value=121 time=19\n",
      "control_change channel=0 control=64 value=126 time=18\n",
      "note_on channel=0 note=62 velocity=0 time=26\n",
      "note_on channel=0 note=57 velocity=38 time=70\n",
      "note_on channel=0 note=69 velocity=48 time=16\n",
      "note_on channel=0 note=74 velocity=0 time=32\n",
      "note_on channel=0 note=69 velocity=0 time=29\n",
      "note_on channel=0 note=62 velocity=38 time=282\n",
      "note_on channel=0 note=83 velocity=58 time=68\n",
      "note_on channel=0 note=57 velocity=0 time=204\n",
      "note_on channel=0 note=62 velocity=0 time=62\n",
      "note_on channel=0 note=81 velocity=52 time=43\n",
      "note_on channel=0 note=69 velocity=51 time=11\n",
      "note_on channel=0 note=83 velocity=0 time=25\n",
      "note_on channel=0 note=69 velocity=0 time=18\n",
      "note_on channel=0 note=88 velocity=61 time=153\n",
      "note_on channel=0 note=81 velocity=0 time=158\n",
      "note_on channel=0 note=88 velocity=0 time=14\n",
      "note_on channel=0 note=76 velocity=58 time=40\n",
      "note_on channel=0 note=76 velocity=0 time=68\n",
      "note_on channel=0 note=76 velocity=53 time=151\n",
      "note_on channel=0 note=31 velocity=44 time=13\n",
      "control_change channel=0 control=64 value=113 time=19\n",
      "control_change channel=0 control=64 value=104 time=19\n",
      "control_change channel=0 control=64 value=109 time=37\n",
      "control_change channel=0 control=64 value=116 time=19\n",
      "control_change channel=0 control=64 value=125 time=17\n",
      "note_on channel=0 note=31 velocity=0 time=72\n",
      "note_on channel=0 note=43 velocity=58 time=15\n",
      "note_on channel=0 note=74 velocity=62 time=1\n",
      "note_on channel=0 note=76 velocity=0 time=19\n",
      "note_on channel=0 note=43 velocity=0 time=21\n",
      "note_on channel=0 note=59 velocity=72 time=242\n",
      "note_on channel=0 note=81 velocity=54 time=13\n",
      "note_on channel=0 note=53 velocity=66 time=5\n",
      "note_on channel=0 note=59 velocity=0 time=69\n",
      "note_on channel=0 note=53 velocity=0 time=15\n",
      "note_on channel=0 note=81 velocity=0 time=91\n",
      "note_on channel=0 note=74 velocity=0 time=16\n",
      "note_on channel=0 note=69 velocity=47 time=66\n",
      "note_on channel=0 note=69 velocity=0 time=62\n",
      "note_on channel=0 note=43 velocity=47 time=129\n",
      "note_on channel=0 note=71 velocity=48 time=36\n",
      "note_on channel=0 note=71 velocity=0 time=193\n",
      "note_on channel=0 note=52 velocity=51 time=9\n",
      "note_on channel=0 note=69 velocity=50 time=1\n",
      "note_on channel=0 note=43 velocity=0 time=72\n",
      "note_on channel=0 note=76 velocity=35 time=167\n",
      "note_on channel=0 note=52 velocity=0 time=3\n",
      "note_on channel=0 note=53 velocity=56 time=11\n",
      "note_on channel=0 note=53 velocity=0 time=77\n",
      "note_on channel=0 note=69 velocity=0 time=104\n",
      "note_on channel=0 note=76 velocity=0 time=66\n",
      "note_on channel=0 note=64 velocity=43 time=10\n",
      "note_on channel=0 note=60 velocity=73 time=324\n",
      "note_on channel=0 note=60 velocity=0 time=51\n",
      "note_on channel=0 note=69 velocity=48 time=8\n",
      "note_on channel=0 note=64 velocity=0 time=75\n",
      "note_on channel=0 note=69 velocity=0 time=229\n",
      "note_on channel=0 note=67 velocity=48 time=19\n",
      "note_on channel=0 note=67 velocity=0 time=68\n",
      "note_on channel=0 note=24 velocity=44 time=376\n",
      "control_change channel=0 control=64 value=116 time=126\n",
      "note_on channel=0 note=60 velocity=73 time=13\n",
      "control_change channel=0 control=64 value=88 time=2\n",
      "control_change channel=0 control=64 value=63 time=20\n",
      "note_on channel=0 note=36 velocity=51 time=14\n",
      "control_change channel=0 control=64 value=55 time=2\n",
      "note_on channel=0 note=53 velocity=43 time=0\n",
      "note_on channel=0 note=58 velocity=47 time=2\n",
      "control_change channel=0 control=64 value=60 time=19\n",
      "note_on channel=0 note=24 velocity=0 time=11\n",
      "control_change channel=0 control=64 value=68 time=9\n",
      "control_change channel=0 control=64 value=76 time=18\n",
      "control_change channel=0 control=64 value=87 time=19\n",
      "note_on channel=0 note=53 velocity=0 time=12\n",
      "control_change channel=0 control=64 value=101 time=5\n",
      "control_change channel=0 control=64 value=116 time=18\n",
      "control_change channel=0 control=64 value=127 time=19\n",
      "note_on channel=0 note=36 velocity=0 time=27\n",
      "note_on channel=0 note=60 velocity=0 time=62\n",
      "note_on channel=0 note=58 velocity=0 time=9\n",
      "note_on channel=0 note=43 velocity=40 time=237\n",
      "note_on channel=0 note=43 velocity=0 time=235\n",
      "note_on channel=0 note=48 velocity=43 time=57\n",
      "note_on channel=0 note=53 velocity=51 time=224\n",
      "note_on channel=0 note=48 velocity=0 time=85\n",
      "note_on channel=0 note=53 velocity=0 time=119\n",
      "note_on channel=0 note=67 velocity=69 time=59\n",
      "note_on channel=0 note=55 velocity=51 time=9\n",
      "note_on channel=0 note=67 velocity=0 time=119\n",
      "note_on channel=0 note=48 velocity=45 time=92\n",
      "note_on channel=0 note=55 velocity=0 time=18\n",
      "note_on channel=0 note=48 velocity=0 time=155\n",
      "note_on channel=0 note=43 velocity=52 time=27\n",
      "note_on channel=0 note=43 velocity=0 time=199\n",
      "note_on channel=0 note=36 velocity=66 time=10\n",
      "note_on channel=0 note=61 velocity=74 time=262\n",
      "control_change channel=0 control=64 value=106 time=9\n",
      "note_on channel=0 note=52 velocity=54 time=18\n",
      "note_on channel=0 note=58 velocity=61 time=1\n",
      "control_change channel=0 control=64 value=81 time=2\n",
      "control_change channel=0 control=64 value=66 time=18\n",
      "control_change channel=0 control=64 value=68 time=19\n",
      "control_change channel=0 control=64 value=73 time=17\n",
      "control_change channel=0 control=64 value=82 time=20\n",
      "control_change channel=0 control=64 value=93 time=18\n",
      "control_change channel=0 control=64 value=107 time=20\n",
      "note_on channel=0 note=52 velocity=0 time=6\n",
      "control_change channel=0 control=64 value=119 time=9\n",
      "control_change channel=0 control=64 value=126 time=20\n",
      "note_on channel=0 note=36 velocity=0 time=81\n",
      "note_on channel=0 note=58 velocity=0 time=12\n",
      "note_on channel=0 note=44 velocity=50 time=25\n",
      "note_on channel=0 note=52 velocity=59 time=279\n",
      "note_on channel=0 note=44 velocity=0 time=8\n",
      "note_on channel=0 note=68 velocity=74 time=117\n",
      "note_on channel=0 note=52 velocity=0 time=44\n",
      "note_on channel=0 note=61 velocity=0 time=30\n",
      "note_on channel=0 note=56 velocity=80 time=118\n",
      "note_on channel=0 note=56 velocity=0 time=236\n",
      "note_on channel=0 note=64 velocity=58 time=22\n",
      "note_on channel=0 note=64 velocity=0 time=135\n",
      "note_on channel=0 note=58 velocity=80 time=49\n",
      "note_on channel=0 note=58 velocity=0 time=52\n",
      "note_on channel=0 note=52 velocity=55 time=185\n",
      "note_on channel=0 note=52 velocity=0 time=69\n",
      "note_on channel=0 note=68 velocity=0 time=87\n",
      "note_on channel=0 note=42 velocity=54 time=55\n",
      "note_on channel=0 note=62 velocity=71 time=4\n",
      "note_on channel=0 note=42 velocity=0 time=40\n",
      "note_on channel=0 note=62 velocity=0 time=114\n",
      "note_on channel=0 note=36 velocity=68 time=125\n",
      "note_on channel=0 note=24 velocity=61 time=4\n",
      "control_change channel=0 control=64 value=112 time=16\n",
      "note_on channel=0 note=62 velocity=77 time=8\n",
      "control_change channel=0 control=64 value=80 time=24\n",
      "note_on channel=0 note=60 velocity=69 time=7\n",
      "control_change channel=0 control=64 value=62 time=11\n",
      "note_on channel=0 note=55 velocity=55 time=4\n",
      "control_change channel=0 control=64 value=64 time=16\n",
      "control_change channel=0 control=64 value=71 time=18\n",
      "note_on channel=0 note=24 velocity=0 time=2\n",
      "control_change channel=0 control=64 value=82 time=16\n",
      "control_change channel=0 control=64 value=101 time=18\n",
      "note_on channel=0 note=36 velocity=0 time=5\n",
      "control_change channel=0 control=64 value=124 time=15\n",
      "note_on channel=0 note=55 velocity=0 time=146\n",
      "note_on channel=0 note=45 velocity=50 time=62\n",
      "note_on channel=0 note=45 velocity=0 time=158\n",
      "note_on channel=0 note=50 velocity=57 time=21\n",
      "note_on channel=0 note=50 velocity=0 time=202\n",
      "note_on channel=0 note=55 velocity=56 time=0\n",
      "note_on channel=0 note=55 velocity=0 time=162\n",
      "note_on channel=0 note=69 velocity=83 time=45\n",
      "note_on channel=0 note=57 velocity=63 time=6\n",
      "note_on channel=0 note=60 velocity=0 time=20\n",
      "note_on channel=0 note=62 velocity=0 time=27\n",
      "note_on channel=0 note=57 velocity=0 time=126\n",
      "note_on channel=0 note=50 velocity=54 time=22\n",
      "note_on channel=0 note=69 velocity=0 time=12\n",
      "note_on channel=0 note=50 velocity=0 time=160\n",
      "note_on channel=0 note=45 velocity=63 time=24\n",
      "note_on channel=0 note=45 velocity=0 time=158\n",
      "note_on channel=0 note=36 velocity=60 time=39\n",
      "note_on channel=0 note=38 velocity=50 time=22\n",
      "note_on channel=0 note=38 velocity=0 time=42\n",
      "control_change channel=0 control=67 value=123 time=179\n",
      "note_on channel=0 note=63 velocity=80 time=24\n",
      "note_on channel=0 note=54 velocity=75 time=6\n",
      "note_on channel=0 note=60 velocity=73 time=4\n",
      "control_change channel=0 control=64 value=91 time=2\n",
      "control_change channel=0 control=64 value=46 time=19\n",
      "control_change channel=0 control=64 value=0 time=20\n",
      "note_on channel=0 note=54 velocity=0 time=30\n",
      "control_change channel=0 control=64 value=43 time=19\n",
      "control_change channel=0 control=64 value=65 time=19\n",
      "control_change channel=0 control=64 value=80 time=19\n",
      "control_change channel=0 control=67 value=119 time=1\n",
      "control_change channel=0 control=64 value=95 time=18\n",
      "control_change channel=0 control=64 value=112 time=19\n",
      "control_change channel=0 control=64 value=124 time=18\n",
      "note_on channel=0 note=44 velocity=70 time=57\n",
      "note_on channel=0 note=36 velocity=0 time=54\n",
      "note_on channel=0 note=60 velocity=0 time=19\n",
      "control_change channel=0 control=67 value=115 time=109\n",
      "note_on channel=0 note=54 velocity=72 time=72\n",
      "note_on channel=0 note=44 velocity=0 time=18\n",
      "control_change channel=0 control=67 value=110 time=56\n",
      "note_on channel=0 note=54 velocity=0 time=16\n",
      "note_on channel=0 note=70 velocity=86 time=20\n",
      "note_on channel=0 note=63 velocity=0 time=30\n",
      "control_change channel=0 control=67 value=106 time=7\n",
      "control_change channel=0 control=67 value=101 time=93\n",
      "note_on channel=0 note=58 velocity=87 time=34\n",
      "control_change channel=0 control=67 value=94 time=3\n",
      "control_change channel=0 control=67 value=89 time=18\n",
      "control_change channel=0 control=67 value=82 time=19\n",
      "control_change channel=0 control=67 value=73 time=17\n",
      "control_change channel=0 control=67 value=65 time=20\n",
      "control_change channel=0 control=67 value=61 time=18\n",
      "control_change channel=0 control=67 value=57 time=74\n",
      "control_change channel=0 control=67 value=53 time=37\n",
      "note_on channel=0 note=58 velocity=0 time=26\n",
      "note_on channel=0 note=66 velocity=63 time=26\n",
      "control_change channel=0 control=67 value=49 time=35\n",
      "control_change channel=0 control=67 value=45 time=38\n",
      "note_on channel=0 note=66 velocity=0 time=24\n",
      "control_change channel=0 control=67 value=41 time=32\n",
      "control_change channel=0 control=67 value=34 time=35\n",
      "note_on channel=0 note=60 velocity=78 time=17\n",
      "control_change channel=0 control=67 value=28 time=1\n",
      "control_change channel=0 control=67 value=20 time=19\n",
      "control_change channel=0 control=67 value=12 time=20\n",
      "note_on channel=0 note=60 velocity=0 time=15\n",
      "note_on channel=0 note=54 velocity=62 time=164\n",
      "note_on channel=0 note=54 velocity=0 time=70\n",
      "note_on channel=0 note=70 velocity=0 time=61\n",
      "note_on channel=0 note=44 velocity=64 time=104\n",
      "note_on channel=0 note=64 velocity=78 time=1\n",
      "note_on channel=0 note=44 velocity=0 time=31\n",
      "note_on channel=0 note=64 velocity=0 time=140\n",
      "note_on channel=0 note=24 velocity=76 time=104\n",
      "note_on channel=0 note=36 velocity=73 time=0\n",
      "control_change channel=0 control=64 value=107 time=41\n",
      "control_change channel=0 control=64 value=66 time=19\n",
      "note_on channel=0 note=64 velocity=85 time=2\n",
      "note_on channel=0 note=62 velocity=78 time=11\n",
      "control_change channel=0 control=64 value=0 time=5\n",
      "note_on channel=0 note=57 velocity=72 time=0\n",
      "note_on channel=0 note=24 velocity=0 time=33\n",
      "control_change channel=0 control=64 value=45 time=5\n",
      "control_change channel=0 control=64 value=70 time=18\n",
      "control_change channel=0 control=64 value=90 time=20\n",
      "note_on channel=0 note=36 velocity=0 time=8\n",
      "control_change channel=0 control=64 value=118 time=11\n",
      "control_change channel=0 control=64 value=127 time=16\n",
      "note_on channel=0 note=57 velocity=0 time=208\n",
      "note_on channel=0 note=45 velocity=48 time=12\n",
      "note_on channel=0 note=45 velocity=0 time=138\n",
      "note_on channel=0 note=52 velocity=64 time=33\n",
      "note_on channel=0 note=57 velocity=70 time=180\n",
      "note_on channel=0 note=52 velocity=0 time=18\n",
      "note_on channel=0 note=57 velocity=0 time=153\n",
      "note_on channel=0 note=71 velocity=88 time=43\n",
      "note_on channel=0 note=59 velocity=74 time=5\n",
      "note_on channel=0 note=62 velocity=0 time=15\n",
      "note_on channel=0 note=64 velocity=0 time=8\n",
      "note_on channel=0 note=59 velocity=0 time=137\n",
      "note_on channel=0 note=52 velocity=48 time=24\n",
      "note_on channel=0 note=50 velocity=40 time=42\n",
      "note_on channel=0 note=71 velocity=0 time=12\n",
      "note_on channel=0 note=50 velocity=0 time=47\n",
      "note_on channel=0 note=52 velocity=0 time=38\n",
      "note_on channel=0 note=45 velocity=69 time=41\n",
      "control_change channel=0 control=67 value=0 time=92\n",
      "note_on channel=0 note=45 velocity=0 time=44\n",
      "note_on channel=0 note=36 velocity=80 time=68\n",
      "control_change channel=0 control=64 value=116 time=128\n",
      "control_change channel=0 control=64 value=76 time=21\n",
      "control_change channel=0 control=64 value=0 time=16\n",
      "control_change channel=0 control=64 value=30 time=38\n",
      "control_change channel=0 control=64 value=62 time=19\n",
      "note_on channel=0 note=65 velocity=81 time=4\n",
      "note_on channel=0 note=56 velocity=81 time=4\n",
      "note_on channel=0 note=62 velocity=79 time=3\n",
      "control_change channel=0 control=64 value=80 time=7\n",
      "control_change channel=0 control=64 value=100 time=17\n",
      "control_change channel=0 control=64 value=126 time=20\n",
      "note_on channel=0 note=56 velocity=0 time=27\n",
      "note_on channel=0 note=44 velocity=85 time=152\n",
      "note_on channel=0 note=36 velocity=0 time=36\n",
      "note_on channel=0 note=62 velocity=0 time=94\n",
      "note_on channel=0 note=53 velocity=80 time=103\n",
      "note_on channel=0 note=44 velocity=0 time=29\n",
      "note_on channel=0 note=53 velocity=0 time=46\n",
      "note_on channel=0 note=72 velocity=88 time=13\n",
      "note_on channel=0 note=65 velocity=0 time=8\n",
      "note_on channel=0 note=60 velocity=95 time=146\n",
      "note_on channel=0 note=60 velocity=0 time=139\n",
      "note_on channel=0 note=68 velocity=79 time=117\n",
      "note_on channel=0 note=68 velocity=0 time=54\n",
      "note_on channel=0 note=62 velocity=93 time=140\n",
      "note_on channel=0 note=62 velocity=0 time=52\n",
      "note_on channel=0 note=72 velocity=0 time=16\n",
      "note_on channel=0 note=53 velocity=85 time=156\n",
      "note_on channel=0 note=53 velocity=0 time=59\n",
      "note_on channel=0 note=44 velocity=85 time=190\n",
      "note_on channel=0 note=66 velocity=98 time=0\n",
      "note_on channel=0 note=44 velocity=0 time=40\n",
      "note_on channel=0 note=66 velocity=0 time=140\n",
      "note_on channel=0 note=24 velocity=96 time=238\n",
      "note_on channel=0 note=36 velocity=93 time=1\n",
      "control_change channel=0 control=64 value=111 time=35\n",
      "note_on channel=0 note=63 velocity=88 time=4\n",
      "note_on channel=0 note=55 velocity=90 time=3\n",
      "note_on channel=0 note=66 velocity=93 time=3\n",
      "note_on channel=0 note=60 velocity=80 time=5\n",
      "control_change channel=0 control=64 value=60 time=4\n",
      "control_change channel=0 control=64 value=0 time=18\n",
      "control_change channel=0 control=64 value=51 time=73\n",
      "note_on channel=0 note=24 velocity=0 time=12\n",
      "control_change channel=0 control=64 value=74 time=7\n",
      "control_change channel=0 control=64 value=97 time=17\n",
      "note_on channel=0 note=36 velocity=0 time=18\n",
      "control_change channel=0 control=64 value=127 time=1\n",
      "note_on channel=0 note=55 velocity=0 time=56\n",
      "note_on channel=0 note=60 velocity=0 time=70\n",
      "note_on channel=0 note=66 velocity=0 time=13\n",
      "note_on channel=0 note=43 velocity=74 time=20\n",
      "note_on channel=0 note=63 velocity=0 time=24\n",
      "note_on channel=0 note=43 velocity=0 time=98\n",
      "note_on channel=0 note=51 velocity=76 time=4\n",
      "note_on channel=0 note=51 velocity=0 time=84\n",
      "note_on channel=0 note=54 velocity=81 time=34\n",
      "note_on channel=0 note=54 velocity=0 time=65\n",
      "note_on channel=0 note=57 velocity=76 time=74\n",
      "note_on channel=0 note=60 velocity=73 time=150\n",
      "note_on channel=0 note=57 velocity=0 time=42\n",
      "note_on channel=0 note=66 velocity=92 time=172\n",
      "note_on channel=0 note=60 velocity=0 time=42\n",
      "note_on channel=0 note=81 velocity=99 time=42\n",
      "note_on channel=0 note=81 velocity=0 time=58\n",
      "note_on channel=0 note=66 velocity=0 time=6\n",
      "note_on channel=0 note=60 velocity=64 time=61\n",
      "note_on channel=0 note=60 velocity=0 time=116\n",
      "note_on channel=0 note=57 velocity=73 time=3\n",
      "note_on channel=0 note=57 velocity=0 time=31\n",
      "note_on channel=0 note=51 velocity=79 time=116\n",
      "note_on channel=0 note=51 velocity=0 time=83\n",
      "note_on channel=0 note=43 velocity=80 time=54\n",
      "note_on channel=0 note=67 velocity=81 time=33\n",
      "note_on channel=0 note=43 velocity=0 time=29\n",
      "note_on channel=0 note=55 velocity=85 time=106\n",
      "note_on channel=0 note=67 velocity=0 time=16\n",
      "note_on channel=0 note=60 velocity=76 time=68\n",
      "note_on channel=0 note=55 velocity=0 time=7\n",
      "note_on channel=0 note=67 velocity=80 time=62\n",
      "control_change channel=0 control=64 value=118 time=30\n",
      "note_on channel=0 note=60 velocity=0 time=18\n",
      "control_change channel=0 control=64 value=62 time=1\n",
      "note_on channel=0 note=28 velocity=93 time=10\n",
      "note_on channel=0 note=40 velocity=95 time=0\n",
      "control_change channel=0 control=64 value=0 time=8\n",
      "note_on channel=0 note=72 velocity=97 time=3\n",
      "note_on channel=0 note=67 velocity=0 time=33\n",
      "control_change channel=0 control=64 value=37 time=1\n",
      "note_on channel=0 note=28 velocity=0 time=6\n",
      "note_on channel=0 note=72 velocity=0 time=8\n",
      "control_change channel=0 control=64 value=83 time=4\n",
      "note_on channel=0 note=40 velocity=0 time=3\n",
      "control_change channel=0 control=64 value=127 time=18\n",
      "note_on channel=0 note=48 velocity=72 time=263\n",
      "note_on channel=0 note=55 velocity=80 time=149\n",
      "note_on channel=0 note=48 velocity=0 time=38\n",
      "note_on channel=0 note=55 velocity=0 time=99\n",
      "note_on channel=0 note=60 velocity=88 time=3\n",
      "note_on channel=0 note=60 velocity=0 time=68\n",
      "note_on channel=0 note=60 velocity=87 time=107\n",
      "note_on channel=0 note=67 velocity=88 time=232\n",
      "note_on channel=0 note=60 velocity=0 time=44\n",
      "note_on channel=0 note=79 velocity=96 time=0\n",
      "note_on channel=0 note=79 velocity=0 time=59\n",
      "note_on channel=0 note=67 velocity=0 time=58\n",
      "note_on channel=0 note=60 velocity=74 time=71\n",
      "note_on channel=0 note=60 velocity=0 time=26\n",
      "note_on channel=0 note=57 velocity=52 time=197\n",
      "note_on channel=0 note=71 velocity=86 time=16\n",
      "note_on channel=0 note=69 velocity=82 time=12\n",
      "note_on channel=0 note=55 velocity=43 time=5\n",
      "note_on channel=0 note=69 velocity=0 time=22\n",
      "note_on channel=0 note=55 velocity=0 time=8\n",
      "note_on channel=0 note=57 velocity=0 time=0\n",
      "note_on channel=0 note=71 velocity=0 time=37\n",
      "note_on channel=0 note=48 velocity=81 time=161\n",
      "note_on channel=0 note=48 velocity=0 time=29\n",
      "note_on channel=0 note=33 velocity=88 time=264\n",
      "control_change channel=0 control=64 value=94 time=9\n",
      "control_change channel=0 control=64 value=0 time=20\n",
      "note_on channel=0 note=71 velocity=89 time=15\n",
      "note_on channel=0 note=64 velocity=82 time=6\n",
      "note_on channel=0 note=62 velocity=66 time=14\n",
      "control_change channel=0 control=64 value=58 time=38\n",
      "control_change channel=0 control=64 value=79 time=17\n",
      "control_change channel=0 control=64 value=102 time=20\n",
      "control_change channel=0 control=64 value=127 time=19\n",
      "note_on channel=0 note=33 velocity=0 time=6\n",
      "note_on channel=0 note=62 velocity=0 time=183\n",
      "note_on channel=0 note=64 velocity=0 time=7\n",
      "note_on channel=0 note=52 velocity=76 time=2\n",
      "note_on channel=0 note=55 velocity=77 time=239\n",
      "note_on channel=0 note=76 velocity=34 time=120\n",
      "note_on channel=0 note=62 velocity=81 time=73\n",
      "note_on channel=0 note=76 velocity=0 time=38\n",
      "note_on channel=0 note=55 velocity=0 time=11\n",
      "note_on channel=0 note=62 velocity=0 time=141\n",
      "note_on channel=0 note=76 velocity=89 time=34\n",
      "note_on channel=0 note=64 velocity=73 time=15\n",
      "note_on channel=0 note=71 velocity=0 time=15\n",
      "note_on channel=0 note=52 velocity=0 time=72\n",
      "note_on channel=0 note=64 velocity=0 time=80\n",
      "note_on channel=0 note=76 velocity=0 time=11\n",
      "note_on channel=0 note=55 velocity=69 time=11\n",
      "note_on channel=0 note=55 velocity=0 time=225\n",
      "note_on channel=0 note=52 velocity=66 time=3\n",
      "note_on channel=0 note=52 velocity=0 time=153\n",
      "note_on channel=0 note=45 velocity=76 time=29\n",
      "note_on channel=0 note=45 velocity=0 time=67\n",
      "note_on channel=0 note=38 velocity=81 time=175\n",
      "control_change channel=0 control=64 value=79 time=12\n",
      "control_change channel=0 control=64 value=0 time=19\n",
      "note_on channel=0 note=69 velocity=85 time=18\n",
      "note_on channel=0 note=65 velocity=80 time=11\n",
      "note_on channel=0 note=60 velocity=76 time=2\n",
      "control_change channel=0 control=64 value=37 time=23\n",
      "control_change channel=0 control=64 value=70 time=18\n",
      "control_change channel=0 control=64 value=93 time=19\n",
      "control_change channel=0 control=64 value=126 time=19\n",
      "note_on channel=0 note=38 velocity=0 time=1\n",
      "note_on channel=0 note=60 velocity=0 time=41\n",
      "note_on channel=0 note=50 velocity=80 time=129\n",
      "note_on channel=0 note=65 velocity=0 time=26\n",
      "note_on channel=0 note=53 velocity=71 time=267\n",
      "note_on channel=0 note=77 velocity=91 time=9\n",
      "note_on channel=0 note=69 velocity=0 time=16\n",
      "note_on channel=0 note=77 velocity=0 time=105\n",
      "note_on channel=0 note=60 velocity=70 time=102\n",
      "note_on channel=0 note=60 velocity=0 time=189\n",
      "note_on channel=0 note=65 velocity=76 time=8\n",
      "note_on channel=0 note=53 velocity=0 time=48\n",
      "note_on channel=0 note=65 velocity=0 time=118\n",
      "note_on channel=0 note=57 velocity=73 time=8\n",
      "note_on channel=0 note=50 velocity=0 time=74\n",
      "note_on channel=0 note=52 velocity=75 time=159\n",
      "note_on channel=0 note=67 velocity=87 time=8\n",
      "note_on channel=0 note=57 velocity=0 time=32\n",
      "note_on channel=0 note=67 velocity=0 time=73\n",
      "note_on channel=0 note=50 velocity=76 time=104\n",
      "note_on channel=0 note=52 velocity=0 time=29\n",
      "note_on channel=0 note=50 velocity=0 time=31\n",
      "note_on channel=0 note=67 velocity=82 time=177\n",
      "note_on channel=0 note=59 velocity=80 time=10\n",
      "note_on channel=0 note=65 velocity=81 time=2\n",
      "control_change channel=0 control=64 value=80 time=12\n",
      "control_change channel=0 control=64 value=0 time=20\n",
      "control_change channel=0 control=64 value=42 time=53\n",
      "control_change channel=0 control=64 value=71 time=18\n",
      "control_change channel=0 control=64 value=92 time=20\n",
      "control_change channel=0 control=64 value=123 time=18\n",
      "control_change channel=0 control=64 value=127 time=18\n",
      "note_on channel=0 note=38 velocity=79 time=80\n",
      "note_on channel=0 note=59 velocity=0 time=15\n",
      "note_on channel=0 note=43 velocity=75 time=227\n",
      "note_on channel=0 note=38 velocity=0 time=39\n",
      "note_on channel=0 note=50 velocity=76 time=155\n",
      "note_on channel=0 note=43 velocity=0 time=15\n",
      "note_on channel=0 note=50 velocity=0 time=33\n",
      "note_on channel=0 note=59 velocity=75 time=195\n",
      "note_on channel=0 note=74 velocity=88 time=6\n",
      "note_on channel=0 note=65 velocity=0 time=108\n",
      "note_on channel=0 note=67 velocity=0 time=23\n",
      "note_on channel=0 note=74 velocity=0 time=22\n",
      "note_on channel=0 note=59 velocity=0 time=36\n",
      "note_on channel=0 note=52 velocity=76 time=15\n",
      "note_on channel=0 note=52 velocity=0 time=203\n",
      "note_on channel=0 note=53 velocity=77 time=7\n",
      "note_on channel=0 note=53 velocity=0 time=214\n",
      "note_on channel=0 note=43 velocity=77 time=4\n",
      "note_on channel=0 note=43 velocity=0 time=69\n",
      "note_on channel=0 note=65 velocity=87 time=178\n",
      "control_change channel=0 control=64 value=77 time=5\n",
      "note_on channel=0 note=58 velocity=82 time=2\n",
      "note_on channel=0 note=60 velocity=76 time=2\n",
      "control_change channel=0 control=64 value=0 time=15\n",
      "control_change channel=0 control=64 value=37 time=54\n",
      "control_change channel=0 control=64 value=68 time=19\n",
      "control_change channel=0 control=64 value=89 time=18\n",
      "control_change channel=0 control=64 value=118 time=18\n",
      "control_change channel=0 control=64 value=127 time=19\n",
      "note_on channel=0 note=36 velocity=87 time=91\n",
      "note_on channel=0 note=60 velocity=0 time=29\n",
      "note_on channel=0 note=65 velocity=0 time=12\n",
      "note_on channel=0 note=73 velocity=91 time=291\n",
      "note_on channel=0 note=48 velocity=67 time=19\n",
      "note_on channel=0 note=36 velocity=0 time=1\n",
      "note_on channel=0 note=48 velocity=0 time=61\n",
      "note_on channel=0 note=73 velocity=0 time=64\n",
      "note_on channel=0 note=58 velocity=0 time=7\n",
      "note_on channel=0 note=48 velocity=76 time=74\n",
      "note_on channel=0 note=58 velocity=88 time=222\n",
      "note_on channel=0 note=48 velocity=0 time=26\n",
      "note_on channel=0 note=58 velocity=0 time=114\n",
      "note_on channel=0 note=48 velocity=60 time=89\n",
      "note_on channel=0 note=64 velocity=85 time=247\n",
      "note_on channel=0 note=55 velocity=75 time=12\n",
      "note_on channel=0 note=60 velocity=71 time=3\n",
      "note_on channel=0 note=55 velocity=0 time=103\n",
      "note_on channel=0 note=60 velocity=0 time=23\n",
      "note_on channel=0 note=64 velocity=0 time=54\n",
      "note_on channel=0 note=36 velocity=80 time=34\n",
      "note_on channel=0 note=48 velocity=0 time=29\n",
      "note_on channel=0 note=36 velocity=0 time=53\n",
      "note_on channel=0 note=65 velocity=88 time=245\n",
      "note_on channel=0 note=56 velocity=86 time=7\n",
      "note_on channel=0 note=60 velocity=79 time=7\n",
      "control_change channel=0 control=64 value=95 time=27\n",
      "control_change channel=0 control=64 value=0 time=19\n",
      "note_on channel=0 note=29 velocity=89 time=256\n",
      "control_change channel=0 control=64 value=67 time=52\n",
      "control_change channel=0 control=64 value=120 time=19\n",
      "control_change channel=0 control=64 value=127 time=18\n",
      "note_on channel=0 note=56 velocity=0 time=140\n",
      "note_on channel=0 note=29 velocity=0 time=56\n",
      "note_on channel=0 note=41 velocity=85 time=5\n",
      "note_on channel=0 note=41 velocity=0 time=47\n",
      "note_on channel=0 note=60 velocity=0 time=108\n",
      "note_on channel=0 note=48 velocity=77 time=55\n",
      "note_on channel=0 note=56 velocity=81 time=225\n",
      "note_on channel=0 note=72 velocity=91 time=4\n",
      "note_on channel=0 note=65 velocity=0 time=32\n",
      "note_on channel=0 note=72 velocity=0 time=50\n",
      "note_on channel=0 note=48 velocity=0 time=37\n",
      "note_on channel=0 note=56 velocity=0 time=7\n",
      "note_on channel=0 note=48 velocity=65 time=73\n",
      "note_on channel=0 note=48 velocity=0 time=99\n",
      "note_on channel=0 note=41 velocity=73 time=129\n",
      "note_on channel=0 note=29 velocity=79 time=197\n",
      "note_on channel=0 note=41 velocity=0 time=29\n",
      "note_on channel=0 note=29 velocity=0 time=22\n",
      "control_change channel=0 control=64 value=96 time=228\n",
      "note_on channel=0 note=64 velocity=84 time=8\n",
      "note_on channel=0 note=59 velocity=80 time=1\n",
      "note_on channel=0 note=57 velocity=72 time=6\n",
      "control_change channel=0 control=64 value=0 time=2\n",
      "control_change channel=0 control=64 value=51 time=72\n",
      "control_change channel=0 control=64 value=71 time=20\n",
      "control_change channel=0 control=64 value=87 time=18\n",
      "control_change channel=0 control=64 value=107 time=18\n",
      "control_change channel=0 control=64 value=127 time=19\n",
      "note_on channel=0 note=57 velocity=0 time=108\n",
      "note_on channel=0 note=35 velocity=80 time=30\n",
      "note_on channel=0 note=59 velocity=0 time=36\n",
      "note_on channel=0 note=71 velocity=90 time=230\n",
      "note_on channel=0 note=35 velocity=0 time=15\n",
      "note_on channel=0 note=47 velocity=72 time=4\n",
      "note_on channel=0 note=47 velocity=0 time=60\n",
      "note_on channel=0 note=64 velocity=0 time=44\n",
      "note_on channel=0 note=71 velocity=0 time=76\n",
      "note_on channel=0 note=47 velocity=76 time=16\n",
      "note_on channel=0 note=57 velocity=78 time=228\n",
      "note_on channel=0 note=47 velocity=0 time=20\n",
      "note_on channel=0 note=57 velocity=0 time=172\n",
      "note_on channel=0 note=47 velocity=61 time=50\n",
      "note_on channel=0 note=62 velocity=76 time=264\n",
      "note_on channel=0 note=56 velocity=73 time=12\n",
      "note_on channel=0 note=59 velocity=69 time=5\n",
      "control_change channel=0 control=64 value=99 time=21\n",
      "control_change channel=0 control=64 value=78 time=20\n",
      "control_change channel=0 control=64 value=85 time=37\n",
      "control_change channel=0 control=64 value=102 time=19\n",
      "control_change channel=0 control=64 value=127 time=18\n",
      "note_on channel=0 note=56 velocity=0 time=76\n",
      "note_on channel=0 note=59 velocity=0 time=24\n",
      "note_on channel=0 note=62 velocity=0 time=31\n",
      "note_on channel=0 note=35 velocity=69 time=3\n",
      "note_on channel=0 note=47 velocity=0 time=40\n",
      "note_on channel=0 note=35 velocity=0 time=52\n",
      "note_on channel=0 note=64 velocity=70 time=328\n",
      "control_change channel=0 control=64 value=113 time=11\n",
      "note_on channel=0 note=59 velocity=52 time=7\n",
      "note_on channel=0 note=55 velocity=61 time=1\n",
      "control_change channel=0 control=64 value=77 time=11\n",
      "control_change channel=0 control=64 value=0 time=18\n",
      "control_change channel=0 control=64 value=44 time=110\n",
      "control_change channel=0 control=64 value=57 time=20\n",
      "control_change channel=0 control=64 value=65 time=17\n",
      "control_change channel=0 control=64 value=71 time=20\n",
      "control_change channel=0 control=64 value=77 time=18\n",
      "control_change channel=0 control=64 value=82 time=18\n",
      "control_change channel=0 control=64 value=88 time=18\n",
      "control_change channel=0 control=64 value=96 time=19\n",
      "control_change channel=0 control=64 value=106 time=19\n",
      "control_change channel=0 control=64 value=118 time=18\n",
      "note_on channel=0 note=28 velocity=67 time=15\n",
      "control_change channel=0 control=64 value=127 time=1\n",
      "note_on channel=0 note=28 velocity=0 time=212\n",
      "note_on channel=0 note=40 velocity=64 time=55\n",
      "note_on channel=0 note=40 velocity=0 time=56\n",
      "note_on channel=0 note=47 velocity=60 time=156\n",
      "note_on channel=0 note=55 velocity=0 time=64\n",
      "note_on channel=0 note=67 velocity=70 time=246\n",
      "note_on channel=0 note=55 velocity=56 time=10\n",
      "note_on channel=0 note=47 velocity=0 time=2\n",
      "control_change channel=0 control=64 value=112 time=6\n",
      "control_change channel=0 control=64 value=87 time=19\n",
      "control_change channel=0 control=64 value=69 time=19\n",
      "control_change channel=0 control=64 value=62 time=17\n",
      "control_change channel=0 control=64 value=61 time=21\n",
      "control_change channel=0 control=64 value=65 time=37\n",
      "control_change channel=0 control=67 value=8 time=0\n",
      "note_on channel=0 note=59 velocity=0 time=10\n",
      "control_change channel=0 control=64 value=74 time=6\n",
      "control_change channel=0 control=64 value=85 time=20\n",
      "control_change channel=0 control=64 value=98 time=20\n",
      "control_change channel=0 control=67 value=12 time=1\n",
      "control_change channel=0 control=64 value=109 time=15\n",
      "control_change channel=0 control=64 value=115 time=18\n",
      "note_on channel=0 note=55 velocity=0 time=32\n",
      "note_on channel=0 note=48 velocity=48 time=21\n",
      "control_change channel=0 control=67 value=16 time=21\n",
      "control_change channel=0 control=64 value=120 time=18\n",
      "control_change channel=0 control=64 value=126 time=38\n",
      "control_change channel=0 control=67 value=21 time=1\n",
      "note_on channel=0 note=64 velocity=0 time=20\n",
      "control_change channel=0 control=67 value=25 time=69\n",
      "note_on channel=0 note=47 velocity=49 time=109\n",
      "control_change channel=0 control=67 value=29 time=2\n",
      "note_on channel=0 note=48 velocity=0 time=39\n",
      "note_on channel=0 note=47 velocity=0 time=294\n",
      "note_on channel=0 note=40 velocity=43 time=8\n",
      "note_on channel=0 note=67 velocity=0 time=94\n",
      "note_on channel=0 note=40 velocity=0 time=57\n",
      "control_change channel=0 control=67 value=33 time=166\n",
      "control_change channel=0 control=64 value=119 time=131\n",
      "control_change channel=0 control=67 value=37 time=1\n",
      "control_change channel=0 control=64 value=95 time=17\n",
      "note_on channel=0 note=62 velocity=52 time=1\n",
      "note_on channel=0 note=57 velocity=52 time=3\n",
      "note_on channel=0 note=60 velocity=53 time=3\n",
      "control_change channel=0 control=64 value=67 time=12\n",
      "control_change channel=0 control=64 value=33 time=17\n",
      "control_change channel=0 control=64 value=20 time=19\n",
      "control_change channel=0 control=64 value=29 time=19\n",
      "control_change channel=0 control=64 value=48 time=17\n",
      "control_change channel=0 control=67 value=42 time=1\n",
      "control_change channel=0 control=64 value=63 time=18\n",
      "control_change channel=0 control=64 value=74 time=18\n",
      "control_change channel=0 control=67 value=46 time=0\n",
      "control_change channel=0 control=64 value=83 time=19\n",
      "control_change channel=0 control=64 value=93 time=19\n",
      "control_change channel=0 control=64 value=104 time=18\n",
      "control_change channel=0 control=64 value=113 time=20\n",
      "control_change channel=0 control=67 value=50 time=1\n",
      "control_change channel=0 control=64 value=120 time=16\n",
      "control_change channel=0 control=64 value=124 time=33\n",
      "control_change channel=0 control=67 value=54 time=18\n",
      "control_change channel=0 control=67 value=58 time=54\n",
      "control_change channel=0 control=67 value=62 time=56\n",
      "note_on channel=0 note=41 velocity=39 time=46\n",
      "note_on channel=0 note=57 velocity=0 time=1\n",
      "note_on channel=0 note=50 velocity=47 time=316\n",
      "note_on channel=0 note=69 velocity=74 time=7\n",
      "note_on channel=0 note=41 velocity=0 time=38\n",
      "note_on channel=0 note=62 velocity=0 time=70\n",
      "note_on channel=0 note=60 velocity=0 time=33\n",
      "note_on channel=0 note=50 velocity=0 time=52\n",
      "note_on channel=0 note=57 velocity=54 time=55\n",
      "note_on channel=0 note=69 velocity=0 time=159\n",
      "note_on channel=0 note=57 velocity=0 time=59\n",
      "note_on channel=0 note=71 velocity=86 time=14\n",
      "note_on channel=0 note=62 velocity=67 time=6\n",
      "control_change channel=0 control=67 value=54 time=23\n",
      "control_change channel=0 control=67 value=46 time=19\n",
      "control_change channel=0 control=67 value=34 time=19\n",
      "control_change channel=0 control=67 value=21 time=18\n",
      "control_change channel=0 control=67 value=0 time=36\n",
      "note_on channel=0 note=62 velocity=0 time=17\n",
      "note_on channel=0 note=57 velocity=50 time=76\n",
      "note_on channel=0 note=72 velocity=90 time=230\n",
      "note_on channel=0 note=61 velocity=82 time=19\n",
      "note_on channel=0 note=50 velocity=66 time=3\n",
      "note_on channel=0 note=57 velocity=0 time=85\n",
      "note_on channel=0 note=61 velocity=0 time=49\n",
      "note_on channel=0 note=72 velocity=0 time=76\n",
      "note_on channel=0 note=71 velocity=0 time=36\n",
      "note_on channel=0 note=41 velocity=72 time=14\n",
      "note_on channel=0 note=50 velocity=0 time=22\n",
      "note_on channel=0 note=41 velocity=0 time=25\n",
      "note_on channel=0 note=73 velocity=89 time=332\n",
      "control_change channel=0 control=64 value=105 time=6\n",
      "note_on channel=0 note=60 velocity=73 time=5\n",
      "note_on channel=0 note=69 velocity=72 time=0\n",
      "control_change channel=0 control=64 value=65 time=14\n",
      "control_change channel=0 control=64 value=0 time=19\n",
      "control_change channel=0 control=64 value=37 time=74\n",
      "control_change channel=0 control=64 value=48 time=18\n",
      "control_change channel=0 control=64 value=51 time=19\n",
      "control_change channel=0 control=64 value=57 time=16\n",
      "control_change channel=0 control=64 value=67 time=19\n",
      "control_change channel=0 control=64 value=76 time=19\n",
      "control_change channel=0 control=64 value=83 time=18\n",
      "control_change channel=0 control=64 value=91 time=19\n",
      "control_change channel=0 control=64 value=98 time=19\n",
      "control_change channel=0 control=64 value=107 time=19\n",
      "control_change channel=0 control=64 value=117 time=19\n",
      "control_change channel=0 control=64 value=125 time=17\n",
      "note_on channel=0 note=42 velocity=46 time=114\n",
      "control_change channel=0 control=67 value=9 time=306\n",
      "note_on channel=0 note=50 velocity=39 time=7\n",
      "note_on channel=0 note=42 velocity=0 time=38\n",
      "control_change channel=0 control=67 value=16 time=83\n",
      "note_on channel=0 note=50 velocity=0 time=85\n",
      "control_change channel=0 control=67 value=20 time=26\n",
      "control_change channel=0 control=67 value=24 time=37\n",
      "note_on channel=0 note=57 velocity=45 time=5\n",
      "control_change channel=0 control=67 value=29 time=85\n",
      "control_change channel=0 control=67 value=34 time=94\n",
      "control_change channel=0 control=67 value=39 time=37\n",
      "note_on channel=0 note=57 velocity=0 time=7\n",
      "note_on channel=0 note=74 velocity=76 time=18\n",
      "note_on channel=0 note=62 velocity=53 time=22\n",
      "control_change channel=0 control=67 value=43 time=43\n",
      "note_on channel=0 note=69 velocity=0 time=0\n",
      "note_on channel=0 note=73 velocity=0 time=66\n",
      "note_on channel=0 note=62 velocity=0 time=42\n",
      "note_on channel=0 note=57 velocity=48 time=62\n",
      "control_change channel=0 control=67 value=47 time=15\n",
      "control_change channel=0 control=67 value=52 time=144\n",
      "control_change channel=0 control=67 value=57 time=37\n",
      "control_change channel=0 control=67 value=61 time=54\n",
      "note_on channel=0 note=68 velocity=68 time=29\n",
      "control_change channel=0 control=67 value=66 time=9\n",
      "note_on channel=0 note=50 velocity=54 time=3\n",
      "control_change channel=0 control=64 value=113 time=15\n",
      "control_change channel=0 control=67 value=72 time=18\n",
      "note_on channel=0 note=57 velocity=0 time=12\n",
      "control_change channel=0 control=64 value=125 time=26\n",
      "control_change channel=0 control=67 value=77 time=17\n",
      "control_change channel=0 control=67 value=83 time=38\n",
      "control_change channel=0 control=67 value=88 time=37\n",
      "note_on channel=0 note=68 velocity=0 time=11\n",
      "control_change channel=0 control=67 value=94 time=79\n",
      "note_on channel=0 note=42 velocity=48 time=32\n",
      "control_change channel=0 control=67 value=98 time=24\n",
      "note_on channel=0 note=50 velocity=0 time=59\n",
      "control_change channel=0 control=67 value=103 time=15\n"
     ]
    },
    {
     "name": "stdout",
     "output_type": "stream",
     "text": [
      "note_on channel=0 note=42 velocity=0 time=37\n",
      "control_change channel=0 control=67 value=107 time=55\n",
      "note_on channel=0 note=67 velocity=53 time=122\n",
      "control_change channel=0 control=64 value=110 time=7\n",
      "note_on channel=0 note=65 velocity=50 time=11\n",
      "control_change channel=0 control=64 value=87 time=7\n",
      "control_change channel=0 control=64 value=62 time=19\n",
      "control_change channel=0 control=67 value=111 time=2\n",
      "control_change channel=0 control=64 value=0 time=15\n",
      "control_change channel=0 control=64 value=11 time=111\n",
      "control_change channel=0 control=64 value=34 time=36\n",
      "control_change channel=0 control=64 value=48 time=16\n",
      "control_change channel=0 control=64 value=56 time=20\n",
      "control_change channel=0 control=64 value=61 time=19\n",
      "control_change channel=0 control=64 value=65 time=16\n",
      "control_change channel=0 control=64 value=68 time=18\n",
      "control_change channel=0 control=64 value=71 time=19\n",
      "control_change channel=0 control=64 value=75 time=19\n",
      "control_change channel=0 control=64 value=79 time=19\n",
      "note_on channel=0 note=31 velocity=34 time=2\n",
      "control_change channel=0 control=64 value=83 time=13\n",
      "control_change channel=0 control=64 value=88 time=20\n",
      "control_change channel=0 control=64 value=93 time=19\n",
      "control_change channel=0 control=64 value=99 time=19\n",
      "control_change channel=0 control=64 value=105 time=18\n",
      "control_change channel=0 control=64 value=110 time=20\n",
      "control_change channel=0 control=64 value=115 time=18\n",
      "control_change channel=0 control=64 value=122 time=35\n",
      "control_change channel=0 control=64 value=127 time=38\n",
      "note_on channel=0 note=31 velocity=0 time=19\n",
      "note_on channel=0 note=43 velocity=37 time=88\n",
      "note_on channel=0 note=43 velocity=0 time=69\n",
      "note_on channel=0 note=60 velocity=0 time=192\n",
      "note_on channel=0 note=53 velocity=43 time=41\n",
      "note_on channel=0 note=53 velocity=0 time=97\n",
      "note_on channel=0 note=59 velocity=46 time=257\n",
      "control_change channel=0 control=64 value=123 time=117\n",
      "control_change channel=0 control=67 value=115 time=2\n",
      "control_change channel=0 control=64 value=118 time=71\n",
      "control_change channel=0 control=67 value=120 time=55\n",
      "control_change channel=0 control=64 value=113 time=38\n",
      "control_change channel=0 control=64 value=109 time=37\n",
      "control_change channel=0 control=64 value=104 time=53\n",
      "note_on channel=0 note=52 velocity=41 time=6\n",
      "control_change channel=0 control=67 value=124 time=14\n",
      "control_change channel=0 control=64 value=98 time=36\n",
      "control_change channel=0 control=64 value=91 time=36\n",
      "control_change channel=0 control=64 value=86 time=37\n",
      "control_change channel=0 control=64 value=83 time=19\n",
      "control_change channel=0 control=64 value=79 time=38\n",
      "control_change channel=0 control=64 value=76 time=34\n",
      "control_change channel=0 control=64 value=74 time=58\n",
      "control_change channel=0 control=64 value=71 time=54\n",
      "control_change channel=0 control=64 value=69 time=88\n",
      "control_change channel=0 control=64 value=68 time=20\n",
      "control_change channel=0 control=64 value=67 time=18\n",
      "control_change channel=0 control=64 value=65 time=35\n",
      "note_on channel=0 note=50 velocity=38 time=2\n",
      "control_change channel=0 control=64 value=64 time=18\n",
      "control_change channel=0 control=64 value=62 time=18\n",
      "note_on channel=0 note=52 velocity=0 time=9\n",
      "control_change channel=0 control=64 value=61 time=8\n",
      "control_change channel=0 control=64 value=59 time=19\n",
      "control_change channel=0 control=64 value=56 time=37\n",
      "control_change channel=0 control=64 value=54 time=19\n",
      "control_change channel=0 control=64 value=50 time=19\n",
      "control_change channel=0 control=64 value=47 time=18\n",
      "control_change channel=0 control=64 value=43 time=20\n",
      "control_change channel=0 control=64 value=46 time=89\n",
      "control_change channel=0 control=64 value=53 time=18\n",
      "control_change channel=0 control=64 value=58 time=20\n",
      "control_change channel=0 control=64 value=61 time=18\n",
      "control_change channel=0 control=64 value=65 time=19\n",
      "control_change channel=0 control=64 value=69 time=18\n",
      "control_change channel=0 control=64 value=73 time=20\n",
      "control_change channel=0 control=64 value=77 time=18\n",
      "control_change channel=0 control=64 value=82 time=19\n",
      "control_change channel=0 control=64 value=85 time=17\n",
      "control_change channel=0 control=64 value=93 time=37\n",
      "note_on channel=0 note=74 velocity=0 time=13\n",
      "control_change channel=0 control=64 value=97 time=4\n",
      "control_change channel=0 control=64 value=102 time=18\n",
      "control_change channel=0 control=64 value=106 time=19\n",
      "control_change channel=0 control=64 value=110 time=18\n",
      "note_on channel=0 note=59 velocity=0 time=23\n",
      "control_change channel=0 control=64 value=115 time=14\n",
      "note_on channel=0 note=43 velocity=39 time=341\n",
      "control_change channel=0 control=64 value=110 time=4\n",
      "control_change channel=0 control=64 value=106 time=20\n",
      "control_change channel=0 control=64 value=101 time=20\n",
      "control_change channel=0 control=64 value=97 time=34\n",
      "note_on channel=0 note=72 velocity=56 time=19\n",
      "note_on channel=0 note=60 velocity=41 time=28\n",
      "control_change channel=0 control=64 value=101 time=10\n",
      "note_on channel=0 note=50 velocity=0 time=7\n",
      "control_change channel=0 control=64 value=106 time=30\n",
      "note_on channel=0 note=65 velocity=0 time=7\n",
      "note_on channel=0 note=67 velocity=0 time=19\n",
      "control_change channel=0 control=64 value=111 time=10\n",
      "control_change channel=0 control=64 value=115 time=18\n",
      "control_change channel=0 control=64 value=121 time=39\n",
      "note_on channel=0 note=72 velocity=0 time=17\n",
      "note_on channel=0 note=43 velocity=0 time=42\n",
      "control_change channel=0 control=64 value=125 time=31\n",
      "note_on channel=0 note=60 velocity=0 time=22\n",
      "control_change channel=0 control=64 value=121 time=784\n",
      "control_change channel=0 control=64 value=116 time=497\n",
      "control_change channel=0 control=64 value=111 time=36\n",
      "note_on channel=0 note=72 velocity=43 time=25\n",
      "control_change channel=0 control=64 value=105 time=12\n",
      "note_on channel=0 note=64 velocity=37 time=5\n",
      "note_on channel=0 note=60 velocity=36 time=3\n",
      "note_on channel=0 note=24 velocity=26 time=1\n",
      "control_change channel=0 control=64 value=100 time=10\n",
      "note_on channel=0 note=36 velocity=25 time=20\n",
      "control_change channel=0 control=64 value=93 time=14\n",
      "control_change channel=0 control=64 value=83 time=19\n",
      "control_change channel=0 control=64 value=71 time=18\n",
      "control_change channel=0 control=64 value=61 time=19\n",
      "control_change channel=0 control=64 value=58 time=19\n",
      "control_change channel=0 control=64 value=64 time=54\n",
      "control_change channel=0 control=64 value=70 time=17\n",
      "control_change channel=0 control=64 value=75 time=18\n",
      "control_change channel=0 control=64 value=80 time=19\n",
      "control_change channel=0 control=64 value=85 time=19\n",
      "control_change channel=0 control=64 value=93 time=20\n",
      "control_change channel=0 control=64 value=102 time=17\n",
      "control_change channel=0 control=64 value=112 time=19\n",
      "control_change channel=0 control=64 value=120 time=19\n",
      "note_on channel=0 note=24 velocity=0 time=15\n",
      "control_change channel=0 control=64 value=125 time=1\n",
      "note_on channel=0 note=72 velocity=0 time=113\n",
      "note_on channel=0 note=60 velocity=0 time=94\n",
      "note_on channel=0 note=64 velocity=0 time=6\n",
      "note_on channel=0 note=36 velocity=0 time=71\n",
      "note_on channel=0 note=43 velocity=40 time=750\n",
      "note_on channel=0 note=52 velocity=40 time=466\n",
      "note_on channel=0 note=52 velocity=0 time=141\n",
      "note_on channel=0 note=52 velocity=38 time=217\n",
      "note_on channel=0 note=52 velocity=0 time=220\n",
      "note_on channel=0 note=43 velocity=0 time=28\n",
      "note_on channel=0 note=60 velocity=41 time=72\n",
      "note_on channel=0 note=60 velocity=0 time=129\n",
      "note_on channel=0 note=52 velocity=36 time=238\n",
      "note_on channel=0 note=52 velocity=0 time=74\n",
      "note_on channel=0 note=52 velocity=37 time=309\n",
      "note_on channel=0 note=43 velocity=38 time=430\n",
      "note_on channel=0 note=52 velocity=0 time=19\n",
      "note_on channel=0 note=31 velocity=55 time=705\n",
      "note_on channel=0 note=31 velocity=0 time=142\n",
      "note_on channel=0 note=43 velocity=0 time=87\n",
      "note_on channel=0 note=60 velocity=33 time=356\n",
      "note_on channel=0 note=52 velocity=37 time=12\n",
      "note_on channel=0 note=55 velocity=42 time=381\n",
      "note_on channel=0 note=52 velocity=0 time=17\n",
      "note_on channel=0 note=67 velocity=61 time=47\n",
      "note_on channel=0 note=62 velocity=40 time=40\n",
      "note_on channel=0 note=60 velocity=0 time=33\n",
      "note_on channel=0 note=62 velocity=0 time=93\n",
      "note_on channel=0 note=52 velocity=38 time=192\n",
      "note_on channel=0 note=60 velocity=38 time=17\n",
      "note_on channel=0 note=55 velocity=0 time=120\n",
      "note_on channel=0 note=60 velocity=0 time=53\n",
      "note_on channel=0 note=64 velocity=42 time=97\n",
      "note_on channel=0 note=52 velocity=0 time=32\n",
      "note_on channel=0 note=52 velocity=42 time=234\n",
      "note_on channel=0 note=60 velocity=49 time=4\n",
      "note_on channel=0 note=64 velocity=0 time=61\n",
      "note_on channel=0 note=52 velocity=0 time=174\n",
      "note_on channel=0 note=60 velocity=0 time=22\n",
      "note_on channel=0 note=55 velocity=44 time=67\n",
      "note_on channel=0 note=69 velocity=69 time=9\n",
      "note_on channel=0 note=62 velocity=51 time=15\n",
      "note_on channel=0 note=67 velocity=0 time=49\n",
      "note_on channel=0 note=62 velocity=0 time=23\n",
      "note_on channel=0 note=55 velocity=0 time=198\n",
      "note_on channel=0 note=52 velocity=45 time=28\n",
      "note_on channel=0 note=60 velocity=46 time=14\n",
      "note_on channel=0 note=52 velocity=0 time=30\n",
      "note_on channel=0 note=60 velocity=0 time=19\n",
      "note_on channel=0 note=69 velocity=0 time=123\n",
      "note_on channel=0 note=60 velocity=45 time=4\n",
      "note_on channel=0 note=64 velocity=58 time=117\n",
      "control_change channel=0 control=64 value=121 time=160\n",
      "note_on channel=0 note=45 velocity=54 time=9\n",
      "control_change channel=0 control=64 value=101 time=23\n",
      "note_on channel=0 note=33 velocity=42 time=13\n",
      "control_change channel=0 control=64 value=81 time=4\n",
      "control_change channel=0 control=64 value=67 time=22\n",
      "control_change channel=0 control=64 value=63 time=18\n",
      "note_on channel=0 note=71 velocity=70 time=28\n",
      "control_change channel=0 control=64 value=67 time=28\n",
      "note_on channel=0 note=33 velocity=0 time=14\n",
      "control_change channel=0 control=64 value=74 time=3\n",
      "note_on channel=0 note=60 velocity=0 time=11\n",
      "control_change channel=0 control=64 value=82 time=6\n",
      "control_change channel=0 control=64 value=92 time=20\n",
      "control_change channel=0 control=64 value=102 time=18\n",
      "control_change channel=0 control=64 value=112 time=20\n",
      "note_on channel=0 note=64 velocity=0 time=6\n",
      "control_change channel=0 control=64 value=119 time=11\n",
      "control_change channel=0 control=64 value=123 time=19\n",
      "note_on channel=0 note=45 velocity=0 time=3\n",
      "control_change channel=0 control=64 value=127 time=35\n",
      "note_on channel=0 note=60 velocity=40 time=241\n",
      "note_on channel=0 note=45 velocity=27 time=50\n",
      "note_on channel=0 note=71 velocity=0 time=176\n",
      "note_on channel=0 note=64 velocity=39 time=34\n",
      "note_on channel=0 note=52 velocity=33 time=54\n",
      "note_on channel=0 note=60 velocity=0 time=54\n",
      "note_on channel=0 note=52 velocity=0 time=5\n",
      "note_on channel=0 note=64 velocity=0 time=122\n",
      "note_on channel=0 note=45 velocity=0 time=37\n",
      "note_on channel=0 note=52 velocity=48 time=6\n",
      "note_on channel=0 note=71 velocity=50 time=4\n",
      "note_on channel=0 note=52 velocity=0 time=74\n",
      "note_on channel=0 note=76 velocity=63 time=219\n",
      "note_on channel=0 note=60 velocity=39 time=7\n",
      "note_on channel=0 note=71 velocity=0 time=93\n",
      "note_on channel=0 note=60 velocity=0 time=23\n",
      "note_on channel=0 note=76 velocity=0 time=14\n",
      "note_on channel=0 note=52 velocity=37 time=175\n",
      "note_on channel=0 note=64 velocity=38 time=3\n",
      "note_on channel=0 note=52 velocity=0 time=65\n",
      "note_on channel=0 note=71 velocity=42 time=253\n",
      "note_on channel=0 note=52 velocity=42 time=16\n",
      "note_on channel=0 note=52 velocity=0 time=94\n",
      "note_on channel=0 note=64 velocity=0 time=83\n",
      "note_on channel=0 note=60 velocity=36 time=158\n",
      "note_on channel=0 note=31 velocity=67 time=411\n",
      "control_change channel=0 control=64 value=117 time=3\n",
      "control_change channel=0 control=64 value=95 time=20\n",
      "control_change channel=0 control=64 value=70 time=33\n",
      "control_change channel=0 control=64 value=59 time=17\n",
      "control_change channel=0 control=64 value=63 time=38\n",
      "control_change channel=0 control=64 value=68 time=18\n",
      "control_change channel=0 control=64 value=74 time=19\n",
      "control_change channel=0 control=64 value=81 time=19\n",
      "note_on channel=0 note=31 velocity=0 time=16\n",
      "control_change channel=0 control=64 value=90 time=3\n",
      "control_change channel=0 control=64 value=100 time=18\n",
      "control_change channel=0 control=64 value=109 time=17\n",
      "note_on channel=0 note=60 velocity=0 time=12\n",
      "control_change channel=0 control=64 value=114 time=6\n",
      "control_change channel=0 control=64 value=118 time=20\n",
      "control_change channel=0 control=64 value=123 time=35\n",
      "control_change channel=0 control=64 value=127 time=56\n",
      "note_on channel=0 note=71 velocity=0 time=47\n",
      "note_on channel=0 note=43 velocity=52 time=84\n",
      "note_on channel=0 note=59 velocity=68 time=181\n",
      "note_on channel=0 note=52 velocity=42 time=389\n",
      "note_on channel=0 note=69 velocity=69 time=68\n",
      "note_on channel=0 note=43 velocity=0 time=23\n",
      "note_on channel=0 note=52 velocity=0 time=26\n",
      "note_on channel=0 note=59 velocity=0 time=141\n",
      "note_on channel=0 note=52 velocity=41 time=101\n",
      "note_on channel=0 note=64 velocity=48 time=18\n",
      "note_on channel=0 note=52 velocity=0 time=240\n",
      "note_on channel=0 note=64 velocity=0 time=13\n",
      "note_on channel=0 note=60 velocity=41 time=38\n",
      "note_on channel=0 note=72 velocity=52 time=8\n",
      "note_on channel=0 note=60 velocity=0 time=81\n",
      "note_on channel=0 note=69 velocity=0 time=52\n",
      "note_on channel=0 note=72 velocity=0 time=67\n",
      "note_on channel=0 note=60 velocity=36 time=114\n",
      "note_on channel=0 note=52 velocity=30 time=37\n",
      "note_on channel=0 note=52 velocity=0 time=86\n",
      "note_on channel=0 note=60 velocity=0 time=102\n",
      "note_on channel=0 note=52 velocity=40 time=173\n",
      "note_on channel=0 note=67 velocity=61 time=39\n",
      "note_on channel=0 note=52 velocity=0 time=421\n",
      "note_on channel=0 note=57 velocity=54 time=84\n",
      "note_on channel=0 note=43 velocity=42 time=3\n",
      "note_on channel=0 note=67 velocity=0 time=5\n",
      "note_on channel=0 note=55 velocity=35 time=36\n",
      "note_on channel=0 note=43 velocity=0 time=22\n",
      "note_on channel=0 note=55 velocity=0 time=49\n",
      "note_on channel=0 note=57 velocity=0 time=63\n",
      "note_on channel=0 note=36 velocity=42 time=557\n",
      "note_on channel=0 note=24 velocity=42 time=2\n",
      "control_change channel=0 control=64 value=113 time=74\n",
      "control_change channel=0 control=64 value=95 time=19\n",
      "note_on channel=0 note=60 velocity=62 time=13\n",
      "control_change channel=0 control=64 value=72 time=5\n",
      "note_on channel=0 note=52 velocity=46 time=9\n",
      "control_change channel=0 control=64 value=52 time=10\n",
      "control_change channel=0 control=64 value=46 time=19\n",
      "control_change channel=0 control=64 value=48 time=19\n",
      "control_change channel=0 control=64 value=57 time=18\n",
      "control_change channel=0 control=64 value=67 time=19\n",
      "control_change channel=0 control=64 value=75 time=19\n",
      "control_change channel=0 control=64 value=83 time=16\n",
      "note_on channel=0 note=24 velocity=0 time=3\n",
      "control_change channel=0 control=64 value=93 time=16\n",
      "control_change channel=0 control=64 value=104 time=19\n",
      "control_change channel=0 control=64 value=116 time=19\n",
      "control_change channel=0 control=64 value=125 time=17\n",
      "note_on channel=0 note=36 velocity=0 time=50\n",
      "note_on channel=0 note=52 velocity=0 time=39\n",
      "note_on channel=0 note=60 velocity=0 time=128\n",
      "note_on channel=0 note=55 velocity=13 time=160\n",
      "note_on channel=0 note=43 velocity=16 time=5\n",
      "note_on channel=0 note=43 velocity=0 time=69\n",
      "note_on channel=0 note=55 velocity=0 time=12\n",
      "note_on channel=0 note=67 velocity=40 time=206\n",
      "note_on channel=0 note=52 velocity=47 time=309\n",
      "note_on channel=0 note=60 velocity=57 time=6\n",
      "note_on channel=0 note=67 velocity=0 time=26\n",
      "note_on channel=0 note=60 velocity=0 time=44\n",
      "note_on channel=0 note=52 velocity=0 time=229\n",
      "note_on channel=0 note=60 velocity=54 time=38\n",
      "note_on channel=0 note=72 velocity=38 time=54\n",
      "note_on channel=0 note=72 velocity=0 time=50\n",
      "note_on channel=0 note=60 velocity=0 time=35\n",
      "note_on channel=0 note=52 velocity=37 time=180\n",
      "note_on channel=0 note=60 velocity=38 time=6\n",
      "note_on channel=0 note=52 velocity=0 time=73\n",
      "note_on channel=0 note=60 velocity=0 time=67\n",
      "note_on channel=0 note=67 velocity=36 time=148\n",
      "note_on channel=0 note=52 velocity=30 time=34\n",
      "note_on channel=0 note=52 velocity=0 time=75\n",
      "note_on channel=0 note=55 velocity=32 time=242\n",
      "note_on channel=0 note=43 velocity=29 time=12\n",
      "note_on channel=0 note=67 velocity=0 time=46\n",
      "note_on channel=0 note=55 velocity=0 time=10\n",
      "note_on channel=0 note=43 velocity=0 time=20\n",
      "note_on channel=0 note=55 velocity=36 time=504\n",
      "note_on channel=0 note=52 velocity=32 time=9\n",
      "note_on channel=0 note=55 velocity=0 time=183\n",
      "note_on channel=0 note=52 velocity=0 time=115\n",
      "note_on channel=0 note=60 velocity=45 time=4\n",
      "note_on channel=0 note=55 velocity=32 time=2\n",
      "note_on channel=0 note=60 velocity=0 time=132\n",
      "note_on channel=0 note=55 velocity=0 time=133\n",
      "note_on channel=0 note=67 velocity=52 time=5\n",
      "note_on channel=0 note=60 velocity=48 time=6\n",
      "note_on channel=0 note=72 velocity=54 time=296\n",
      "note_on channel=0 note=64 velocity=48 time=12\n",
      "note_on channel=0 note=60 velocity=0 time=1\n",
      "note_on channel=0 note=67 velocity=0 time=65\n",
      "note_on channel=0 note=72 velocity=0 time=49\n",
      "note_on channel=0 note=64 velocity=0 time=35\n",
      "note_on channel=0 note=52 velocity=41 time=125\n",
      "note_on channel=0 note=60 velocity=36 time=15\n",
      "note_on channel=0 note=60 velocity=0 time=213\n",
      "note_on channel=0 note=52 velocity=0 time=3\n",
      "note_on channel=0 note=55 velocity=43 time=57\n",
      "note_on channel=0 note=67 velocity=37 time=4\n",
      "note_on channel=0 note=55 velocity=0 time=58\n",
      "note_on channel=0 note=43 velocity=43 time=231\n",
      "note_on channel=0 note=55 velocity=34 time=34\n",
      "note_on channel=0 note=55 velocity=0 time=53\n",
      "note_on channel=0 note=67 velocity=0 time=25\n",
      "note_on channel=0 note=36 velocity=55 time=185\n",
      "note_on channel=0 note=36 velocity=0 time=45\n",
      "note_on channel=0 note=43 velocity=0 time=6\n",
      "note_on channel=0 note=43 velocity=44 time=231\n",
      "note_on channel=0 note=60 velocity=26 time=24\n",
      "note_on channel=0 note=43 velocity=0 time=33\n",
      "note_on channel=0 note=60 velocity=0 time=119\n",
      "note_on channel=0 note=52 velocity=49 time=112\n",
      "note_on channel=0 note=67 velocity=45 time=3\n",
      "note_on channel=0 note=52 velocity=0 time=59\n",
      "note_on channel=0 note=67 velocity=0 time=175\n",
      "note_on channel=0 note=72 velocity=49 time=33\n",
      "note_on channel=0 note=52 velocity=40 time=26\n",
      "note_on channel=0 note=52 velocity=0 time=109\n",
      "note_on channel=0 note=79 velocity=56 time=166\n",
      "note_on channel=0 note=60 velocity=39 time=17\n",
      "note_on channel=0 note=60 velocity=0 time=81\n",
      "note_on channel=0 note=79 velocity=0 time=25\n",
      "note_on channel=0 note=72 velocity=0 time=75\n",
      "note_on channel=0 note=52 velocity=41 time=93\n",
      "note_on channel=0 note=67 velocity=37 time=2\n",
      "note_on channel=0 note=52 velocity=0 time=59\n",
      "note_on channel=0 note=67 velocity=0 time=154\n",
      "note_on channel=0 note=72 velocity=49 time=66\n",
      "note_on channel=0 note=52 velocity=35 time=12\n",
      "note_on channel=0 note=72 velocity=0 time=51\n",
      "note_on channel=0 note=52 velocity=0 time=117\n",
      "note_on channel=0 note=60 velocity=30 time=127\n",
      "note_on channel=0 note=43 velocity=38 time=11\n",
      "note_on channel=0 note=60 velocity=0 time=48\n",
      "note_on channel=0 note=43 velocity=0 time=16\n",
      "note_on channel=0 note=52 velocity=40 time=513\n",
      "note_on channel=0 note=67 velocity=23 time=15\n",
      "note_on channel=0 note=52 velocity=0 time=233\n",
      "note_on channel=0 note=67 velocity=0 time=41\n",
      "note_on channel=0 note=72 velocity=48 time=8\n",
      "note_on channel=0 note=55 velocity=41 time=13\n",
      "note_on channel=0 note=72 velocity=0 time=273\n",
      "note_on channel=0 note=55 velocity=0 time=2\n",
      "note_on channel=0 note=60 velocity=41 time=0\n",
      "note_on channel=0 note=79 velocity=53 time=0\n",
      "note_on channel=0 note=84 velocity=54 time=345\n",
      "note_on channel=0 note=64 velocity=40 time=2\n",
      "note_on channel=0 note=60 velocity=0 time=26\n",
      "note_on channel=0 note=84 velocity=0 time=110\n",
      "note_on channel=0 note=79 velocity=0 time=41\n",
      "note_on channel=0 note=64 velocity=0 time=73\n",
      "note_on channel=0 note=52 velocity=42 time=66\n",
      "note_on channel=0 note=72 velocity=42 time=2\n",
      "note_on channel=0 note=72 velocity=0 time=378\n",
      "note_on channel=0 note=79 velocity=46 time=24\n",
      "note_on channel=0 note=52 velocity=0 time=7\n",
      "note_on channel=0 note=55 velocity=33 time=15\n",
      "note_on channel=0 note=67 velocity=41 time=442\n",
      "note_on channel=0 note=43 velocity=38 time=37\n",
      "note_on channel=0 note=67 velocity=0 time=69\n",
      "note_on channel=0 note=43 velocity=0 time=12\n",
      "note_on channel=0 note=79 velocity=0 time=41\n",
      "note_on channel=0 note=55 velocity=0 time=46\n",
      "note_on channel=0 note=91 velocity=68 time=888\n",
      "note_on channel=0 note=67 velocity=49 time=13\n",
      "note_on channel=0 note=88 velocity=51 time=5\n",
      "note_on channel=0 note=84 velocity=54 time=1\n",
      "note_on channel=0 note=79 velocity=48 time=7\n",
      "note_on channel=0 note=55 velocity=47 time=1\n",
      "note_on channel=0 note=60 velocity=38 time=3\n",
      "note_on channel=0 note=64 velocity=44 time=14\n",
      "note_on channel=0 note=79 velocity=0 time=50\n",
      "note_on channel=0 note=84 velocity=0 time=12\n",
      "note_on channel=0 note=88 velocity=0 time=9\n",
      "note_on channel=0 note=91 velocity=0 time=20\n",
      "note_on channel=0 note=55 velocity=0 time=46\n",
      "note_on channel=0 note=67 velocity=0 time=5\n",
      "note_on channel=0 note=64 velocity=0 time=13\n",
      "note_on channel=0 note=60 velocity=0 time=61\n",
      "control_change channel=0 control=67 value=120 time=778\n",
      "control_change channel=0 control=67 value=116 time=310\n",
      "control_change channel=0 control=67 value=112 time=662\n",
      "control_change channel=0 control=67 value=108 time=346\n",
      "control_change channel=0 control=67 value=102 time=296\n",
      "note_on channel=0 note=60 velocity=50 time=13\n",
      "note_on channel=0 note=91 velocity=70 time=0\n",
      "control_change channel=0 control=67 value=98 time=3\n",
      "note_on channel=0 note=55 velocity=53 time=0\n",
      "note_on channel=0 note=64 velocity=52 time=4\n",
      "note_on channel=0 note=67 velocity=57 time=1\n",
      "note_on channel=0 note=88 velocity=57 time=2\n",
      "note_on channel=0 note=79 velocity=59 time=6\n",
      "note_on channel=0 note=84 velocity=58 time=0\n",
      "control_change channel=0 control=67 value=94 time=26\n",
      "control_change channel=0 control=67 value=90 time=74\n",
      "note_on channel=0 note=67 velocity=0 time=60\n",
      "note_on channel=0 note=64 velocity=0 time=5\n",
      "note_on channel=0 note=60 velocity=0 time=9\n",
      "note_on channel=0 note=55 velocity=0 time=5\n",
      "note_on channel=0 note=84 velocity=0 time=104\n",
      "note_on channel=0 note=88 velocity=0 time=14\n",
      "control_change channel=0 control=67 value=86 time=22\n",
      "note_on channel=0 note=79 velocity=0 time=0\n",
      "note_on channel=0 note=91 velocity=0 time=57\n",
      "control_change channel=0 control=67 value=81 time=51\n",
      "control_change channel=0 control=67 value=85 time=1763\n",
      "note_on channel=0 note=36 velocity=37 time=892\n",
      "note_on channel=0 note=24 velocity=43 time=28\n",
      "note_on channel=0 note=24 velocity=0 time=98\n",
      "note_on channel=0 note=36 velocity=0 time=9\n",
      "control_change channel=0 control=67 value=89 time=162\n",
      "note_on channel=0 note=43 velocity=43 time=924\n",
      "note_on channel=0 note=43 velocity=0 time=156\n",
      "control_change channel=0 control=67 value=94 time=186\n",
      "control_change channel=0 control=67 value=99 time=55\n",
      "control_change channel=0 control=67 value=103 time=74\n",
      "control_change channel=0 control=67 value=108 time=73\n",
      "control_change channel=0 control=67 value=112 time=54\n",
      "control_change channel=0 control=67 value=116 time=112\n",
      "control_change channel=0 control=67 value=120 time=256\n",
      "note_on channel=0 note=91 velocity=55 time=704\n",
      "note_on channel=0 note=79 velocity=28 time=34\n",
      "note_on channel=0 note=67 velocity=35 time=9\n",
      "note_on channel=0 note=52 velocity=38 time=7\n",
      "note_on channel=0 note=60 velocity=36 time=4\n",
      "note_on channel=0 note=76 velocity=29 time=2\n",
      "note_on channel=0 note=84 velocity=32 time=12\n",
      "note_on channel=0 note=55 velocity=36 time=12\n",
      "note_on channel=0 note=88 velocity=20 time=2\n",
      "control_change channel=0 control=67 value=116 time=1024\n",
      "control_change channel=0 control=67 value=112 time=1656\n",
      "note_on channel=0 note=67 velocity=0 time=2569\n",
      "note_on channel=0 note=52 velocity=0 time=277\n",
      "note_on channel=0 note=91 velocity=0 time=183\n",
      "note_on channel=0 note=60 velocity=0 time=144\n",
      "note_on channel=0 note=76 velocity=0 time=79\n",
      "note_on channel=0 note=79 velocity=0 time=84\n",
      "note_on channel=0 note=88 velocity=0 time=23\n",
      "note_on channel=0 note=84 velocity=0 time=67\n",
      "control_change channel=0 control=64 value=121 time=276\n",
      "control_change channel=0 control=64 value=117 time=74\n",
      "control_change channel=0 control=64 value=113 time=142\n",
      "control_change channel=0 control=64 value=109 time=185\n",
      "control_change channel=0 control=64 value=105 time=406\n",
      "control_change channel=0 control=64 value=101 time=109\n",
      "control_change channel=0 control=64 value=96 time=54\n",
      "control_change channel=0 control=64 value=91 time=71\n",
      "control_change channel=0 control=64 value=87 time=56\n",
      "control_change channel=0 control=64 value=85 time=18\n",
      "control_change channel=0 control=64 value=82 time=37\n",
      "control_change channel=0 control=64 value=80 time=38\n",
      "control_change channel=0 control=64 value=77 time=35\n",
      "note_on channel=0 note=55 velocity=0 time=9\n",
      "control_change channel=0 control=64 value=75 time=65\n",
      "control_change channel=0 control=64 value=73 time=38\n",
      "control_change channel=0 control=64 value=71 time=35\n",
      "control_change channel=0 control=64 value=68 time=54\n",
      "control_change channel=0 control=64 value=67 time=19\n",
      "control_change channel=0 control=64 value=66 time=37\n",
      "control_change channel=0 control=64 value=65 time=19\n",
      "control_change channel=0 control=64 value=64 time=38\n",
      "control_change channel=0 control=64 value=63 time=17\n",
      "control_change channel=0 control=64 value=61 time=20\n",
      "control_change channel=0 control=64 value=60 time=16\n",
      "control_change channel=0 control=64 value=57 time=56\n",
      "control_change channel=0 control=64 value=54 time=36\n",
      "control_change channel=0 control=64 value=51 time=19\n",
      "control_change channel=0 control=67 value=108 time=1\n",
      "control_change channel=0 control=64 value=49 time=18\n",
      "control_change channel=0 control=64 value=47 time=18\n",
      "control_change channel=0 control=67 value=103 time=1\n",
      "control_change channel=0 control=64 value=44 time=19\n",
      "control_change channel=0 control=64 value=41 time=37\n",
      "control_change channel=0 control=64 value=36 time=34\n",
      "control_change channel=0 control=64 value=31 time=38\n",
      "control_change channel=0 control=67 value=99 time=1\n",
      "control_change channel=0 control=64 value=26 time=72\n",
      "control_change channel=0 control=67 value=40 time=53\n",
      "control_change channel=0 control=64 value=22 time=37\n",
      "control_change channel=0 control=67 value=20 time=514\n",
      "control_change channel=0 control=64 value=28 time=19\n",
      "control_change channel=0 control=67 value=0 time=35\n",
      "control_change channel=0 control=64 value=0 time=38\n",
      "<meta message end_of_track time=1>\n"
     ]
    }
   ],
   "source": [
    "for msg in midi.tracks[0]:\n",
    "    print(msg)"
   ]
  },
  {
   "cell_type": "markdown",
   "metadata": {},
   "source": [
    "### Gather MIDI information \n",
    "\n",
    "Before we dive into the representation of MIDI we need to gather basic information and determine whether the MIDI file that we are getting can be used. "
   ]
  },
  {
   "cell_type": "code",
   "execution_count": 5,
   "metadata": {},
   "outputs": [
    {
     "name": "stdout",
     "output_type": "stream",
     "text": [
      "True\n",
      "512819\n",
      "480\n",
      "0\n",
      "4 4\n"
     ]
    }
   ],
   "source": [
    "good_midi = midi.type == 0\n",
    "tempo = -1\n",
    "numerator = 4\n",
    "denominator = 4\n",
    "for msg in midi.tracks[0]:\n",
    "    if msg.is_meta and msg.type == 'time_signature':\n",
    "        numerator = msg.numerator\n",
    "        denominator = msg.denominator\n",
    "        good_midi = denominator == 4\n",
    "    if msg.is_meta and msg.type == 'set_tempo' and tempo == -1:\n",
    "        tempo = msg.tempo\n",
    "print(good_midi)\n",
    "print(tempo)\n",
    "print(midi.ticks_per_beat)\n",
    "print(midi.type)\n",
    "print(numerator, denominator)"
   ]
  },
  {
   "cell_type": "markdown",
   "metadata": {},
   "source": [
    "### Generate time matrix\n",
    "\n",
    "Here we will generate the matrix to represent out midi file. This matrix will first be blank. Depending on the size of the music we are getting we will have different sized matricies. the matrix follows the following order\n",
    "\n",
    "Each row is a timestamp. We will tolerate only 8 ticks per beat (this is a 1/32 note). Each timestamp is $\\frac{1}{8}$ beat.  Thus we will shove ticks_per_beat / 8 ticks into one tick. Any notes played between them will be considered as played on the same time.\n",
    "\n",
    "First we need to find the duration in terms of beats of the midi file.\n"
   ]
  },
  {
   "cell_type": "code",
   "execution_count": 6,
   "metadata": {},
   "outputs": [],
   "source": [
    "# Ignore all non-timed messages\n",
    "cleaned_midi = [msg for msg in midi.tracks[0] if not msg.is_meta and hasattr(msg, 'time')]\n",
    "cumsum = np.cumsum(np.array([msg.time for msg in cleaned_midi])) / (midi.ticks_per_beat / 8)"
   ]
  },
  {
   "cell_type": "markdown",
   "metadata": {},
   "source": [
    "Now we can create our music matrix"
   ]
  },
  {
   "cell_type": "code",
   "execution_count": 9,
   "metadata": {},
   "outputs": [
    {
     "data": {
      "text/plain": [
       "<matplotlib.image.AxesImage at 0x1fb3a66f6d8>"
      ]
     },
     "execution_count": 9,
     "metadata": {},
     "output_type": "execute_result"
    },
    {
     "data": {
      "image/png": "iVBORw0KGgoAAAANSUhEUgAAAekAAAHVCAYAAADVdgNBAAAABHNCSVQICAgIfAhkiAAAAAlwSFlzAAALEgAACxIB0t1+/AAAADl0RVh0U29mdHdhcmUAbWF0cGxvdGxpYiB2ZXJzaW9uIDMuMC4yLCBodHRwOi8vbWF0cGxvdGxpYi5vcmcvOIA7rQAAFZ9JREFUeJzt3X+s5XV95/HXexkYCl0Co8XADK6YzLa1plUzC4ibjXG6AawR/tAsxrSTlnR2N3Rrf2QrrEnr9q8am9o2a9mdVSttCOpSuxBja8kUYxrL1FFZ5IfArO4O06EOXUSMZhG2n/3jfgfuMHdkuGfunDf3PB7JzT3f7/mecz588r33yff7PfdMjTECAPTzj+Y9AABgZSINAE2JNAA0JdIA0JRIA0BTIg0ATYk0ADS1ZpGuqsur6oGq2ldV163V6wDAelVr8WEmVXVKkgeT/MskB5J8Ick7xhj3nfAXA4B1asMaPe9FSfaNMb6WJFX1sSRXJlkx0qfVxnF6zlyjoQBAH/8338n3xpN1PNuuVaQ3J3l42fKBJBcfa+PTc2Yuru1rNBQA6GPP2H3c265VpFf6P4QjzqtX1c4kO5Pk9JyxRsMAgBevtXrj2IEkFyxb3pLk4PINxhi7xhjbxhjbTs3GNRoGALx4rVWkv5Bka1VdWFWnJbk6yW1r9FoAsC6tyenuMcbTVfULST6T5JQkHxlj3LsWrwUA69VaXZPOGOPTST69Vs8PAOudTxwDgKZEGgCaEmkAaEqkAaApkQaApkQaAJoSaQBoSqQBoCmRBoCmRBoAmhJpAGhKpAGgKZEGgKZEGgCaEmkAaEqkAaApkQaApkQaAJoSaQBoSqQBoCmRBoCmRBoAmhJpAGhKpAGgKZEGgKZEGgCaEmkAaEqkAaApkQaApkQaAJoSaQBoSqQBoCmRBoCmRBoAmhJpAGhKpAGgKZEGgKZEGgCaEmkAaEqkAaApkQaApkQaAJoSaQBoSqQBoCmRBoCmRBoAmhJpAGhKpAGgKZEGgKZEGgCaEmkAaEqkAaApkQaApkQaAJoSaQBoSqQBoCmRBoCmRBoAmhJpAGhKpAGgqVVHuqouqKo7qur+qrq3qt41rd9UVbdX1UPT93NO3HABYHHMciT9dJJfHWP8aJJLklxbVa9Kcl2S3WOMrUl2T8sAwAu06kiPMR4ZY3xpuv3tJPcn2ZzkyiQ3TpvdmOSqWQcJAIvohFyTrqpXJHltkj1JXjbGeCRZCnmSc4/xmJ1Vtbeq9j6VJ0/EMABgXZk50lX1g0n+JMkvjTGeON7HjTF2jTG2jTG2nZqNsw4DANadmSJdVadmKdA3jTE+Oa3+RlWdN91/XpJDsw0RABbTLO/uriQfTnL/GON3lt11W5Id0+0dSW5d/fAAYHFtmOGxb0jy00m+UlV3Tev+Q5LfSvKJqromyf4kb59tiACwmFYd6THGXyWpY9y9fbXPCwAs8YljANCUSANAUyINAE2JNAA0JdIA0JRIA0BTIg0ATYk0ADQl0gDQlEgDQFMiDQBNiTQANCXSANCUSANAUyINAE2JNAA0JdIA0JRIA0BTIg0ATYk0ADQl0gDQlEgDQFMiDQBNiTQANCXSANCUSANAUyINAE2JNAA0JdIA0JRIA0BTIg0ATYk0ADQl0gDQlEgDQFMiDQBNiTQANCXSANCUSANAUyINAE2JNAA0JdIA0JRIA0BTIg0ATYk0ADQl0gDQlEgDQFMiDQBNiTQANCXSANCUSANAUyINAE2JNAA0JdIA0JRIA0BTIg0ATYk0ADQl0gDQlEgDQFMiDQBNzRzpqjqlqr5cVZ+ali+sqj1V9VBVfbyqTpt9mACweE7EkfS7kty/bPl9ST4wxtia5JtJrjkBrwEAC2emSFfVliQ/leRD03IleVOSW6ZNbkxy1SyvAQCLatYj6d9N8mtJ/mFafkmSx8cYT0/LB5JsnvE1AGAhrTrSVfWWJIfGGF9cvnqFTccxHr+zqvZW1d6n8uRqhwEA69aGGR77hiRvrao3Jzk9yVlZOrI+u6o2TEfTW5IcXOnBY4xdSXYlyVm1acWQA8AiW/WR9Bjj+jHGljHGK5JcneQvxxjvTHJHkrdNm+1IcuvMowSABbQWfyf97iS/UlX7snSN+sNr8BoAsO7Ncrr7GWOMzyb57HT7a0kuOhHPCwCLzCeOAUBTIg0ATYk0ADQl0gDQlEgDQFMiDQBNiTQANHVC/k4aAPj+PnPwriTJRZd997gf40gaAJoSaQBoyuluAFgDh09vH3bZ+a9Jkjw4/s9xP4cjaQBoSqQBoCmRBoCmXJMGgDVw+Br0LBxJA0BTIg0ATYk0ADQl0gDQlEgDQFMiDQBNiTQANCXSANCUSANAUyINAE2JNAA0JdIA0JRIA0BTIg0ATYk0ADQl0gDQlEgDQFMiDQBNiTQANCXSANCUSANAUyINAE2JNAA0JdIA0JRIA0BTIg0ATYk0ADQl0gDQlEgDQFMiDQBNiTQANCXSANCUSANAUyINAE2JNAA0JdIA0NSGeQ+AF48n3nHJEctn3XznnEby/f39v379M7df+l/+eo4jAZiNI2kAaEqkAaApkQaApmqMMe8x5KzaNC6u7fMeBgCsuT1jd54Yj9XxbOtIGgCaEmkAaMqfYLFq3/5Xz/5J1j/+eM8/xzp07aXP3D73g5+f40gAXjhH0gDQ1EyRrqqzq+qWqvpqVd1fVa+vqk1VdXtVPTR9P+dEDRYAFsmsR9K/l+TPxxg/kuQnktyf5Loku8cYW5PsnpYBgBdo1X+CVVVnJfkfSV45lj1JVT2Q5I1jjEeq6rwknx1j/PD3ey5/grX+PP7Tz34059l/3POjOff/+rPXq1/+m65XAyfHyfoTrFcmeTTJH1bVl6vqQ1V1ZpKXjTEeSZLp+7krPbiqdlbV3qra+1SenGEYALA+zRLpDUlel+SGMcZrk3wnL+DU9hhj1xhj2xhj26nZOMMwAGB9muVPsA4kOTDG2DMt35KlSH+jqs5bdrr70KyD5MWn6ynu5ZziBrpb9ZH0GOPvkjxcVYevN29Pcl+S25LsmNbtSHLrTCMEgAU164eZ/LskN1XVaUm+luRnsxT+T1TVNUn2J3n7jK8BAAtppkiPMe5Ksm2Fu7xVm2P65o5n3/l9zo09T4vvf++yd36/12lxYD584hgANCXSANCUSANAU6v+xLETySeOAbAoTtYnjgEAa0ikAaApkQaApkQaAJoSaQBoSqQBoKlZP7sbAFjBZw7edcTyZee/5gU/hyNpAGhKpAGgKae7AWANrOb09nM5kgaApkQaAJoSaQBoSqQBoCmRBoCmRBoAmhJpAGhKpAGgKZEGgKZEGgCaEmkAaEqkAaApkQaApkQaAJoSaQBoSqQBoCmRBoCmRBoAmhJpAGhKpAGgKZEGgKZEGgCaEmkAaEqkAaApkQaApkQaAJoSaQBoSqQBoCmRBoCmRBoAmhJpAGhKpAGgKZEGgKZEGgCaEmkAaEqkAaApkQaApkQaAJoSaQBoSqQBoCmRBoCmRBoAmhJpAGhKpAGgKZEGgKZminRV/XJV3VtV91TVzVV1elVdWFV7quqhqvp4VZ12ogYLAItk1ZGuqs1JfjHJtjHGq5OckuTqJO9L8oExxtYk30xyzYkYKAAsmllPd29I8gNVtSHJGUkeSfKmJLdM99+Y5KoZXwMAFtKqIz3G+Nskv51kf5bi/K0kX0zy+Bjj6WmzA0k2zzpIAFhEs5zuPifJlUkuTHJ+kjOTXLHCpuMYj99ZVXurau9TeXK1wwCAdWuW090/meTrY4xHxxhPJflkkkuTnD2d/k6SLUkOrvTgMcauMca2Mca2U7NxhmEAwPo0S6T3J7mkqs6oqkqyPcl9Se5I8rZpmx1Jbp1tiACwmGa5Jr0nS28Q+1KSr0zPtSvJu5P8SlXtS/KSJB8+AeMEgIVTY6x4yfikOqs2jYtr+7yHAQBrbs/YnSfGY3U82/rEMQBoSqQBoCmRBoCmRBoAmhJpAGhKpAGgKZEGgKZEGgCaEmkAaEqkAaApkQaApkQaAJoSaQBoSqQBoCmRBoCmRBoAmhJpAGhKpAGgKZEGgKZEGgCa2jDvAUBHh6699Jnb537w86t6jv2//uxzvPw3j/0cD/2ni49Y3voLe1b1ess9+F//2TO3/+nPf2Hm5wPmw5E0ADQl0gDQlEgDQFM1xpj3GHJWbRoX1/Z5DwMA1tyesTtPjMfqeLZ1JA0ATYk0ADQl0gDQlEgDQFMiDQBNiTQANCXSANCUSANAUyINAE2JNAA0JdIA0JRIA0BTIg0ATYk0ADQl0gDQlEgDQFMiDQBNiTQANCXSANCUSANAUyINAE2JNAA0JdIA0JRIA0BTIg0ATYk0ADQl0gDQlEgDQFMiDQBNiTQANCXSANCUSANAUyINAE2JNAA0JdIA0NTzRrqqPlJVh6rqnmXrNlXV7VX10PT9nGl9VdXvV9W+qrq7ql63loMHgPXseI6kP5rk8uesuy7J7jHG1iS7p+UkuSLJ1ulrZ5IbTswwAWDxPG+kxxifS/LYc1ZfmeTG6faNSa5atv6PxpI7k5xdVeedqMECwCJZ7TXpl40xHkmS6fu50/rNSR5ett2Bad1RqmpnVe2tqr1P5clVDgMA1q8T/caxWmHdWGnDMcauMca2Mca2U7PxBA8DAF78Vhvpbxw+jT19PzStP5DkgmXbbUlycPXDA4DFtdpI35Zkx3R7R5Jbl63/meld3pck+dbh0+IAwAuz4fk2qKqbk7wxyUur6kCS30jyW0k+UVXXJNmf5O3T5p9O8uYk+5J8N8nPrsGYAWAhPG+kxxjvOMZd21fYdiS5dtZBAQA+cQwA2hJpAGhKpAGgKZEGgKZEGgCaEmkAaEqkAaApkQaApkQaAJoSaQBoSqQBoCmRBoCmRBoAmhJpAGhKpAGgKZEGgKZEGgCaEmkAaEqkAaApkQaApkQaAJoSaQBoSqQBoCmRBoCmRBoAmhJpAGhKpAGgKZEGgKZEGgCaEmkAaGrDvAcAAOvRZw7edcTyZee/5gU/hyNpAGhKpAGgKZEGgKZckwaANbCaa9DP5UgaAJoSaQBoSqQBoCmRBoCmRBoAmhJpAGhKpAGgKZEGgKZEGgCaEmkAaEqkAaApkQaApkQaAJoSaQBoSqQBoCmRBoCmRBoAmhJpAGhKpAGgKZEGgKZEGgCaEmkAaEqkAaApkQaApp430lX1kao6VFX3LFv3/qr6alXdXVV/WlVnL7vv+qraV1UPVNVlazVwAFjvjudI+qNJLn/OutuTvHqM8eNJHkxyfZJU1auSXJ3kx6bH/EFVnXLCRgsAC+R5Iz3G+FySx56z7i/GGE9Pi3cm2TLdvjLJx8YYT44xvp5kX5KLTuB4AWBhnIhr0j+X5M+m25uTPLzsvgPTOgDgBdowy4Or6j1Jnk5y0+FVK2w2jvHYnUl2JsnpOWOWYQDAurTqSFfVjiRvSbJ9jHE4xAeSXLBssy1JDq70+DHGriS7kuSs2rRiyAFgka3qdHdVXZ7k3UneOsb47rK7bktydVVtrKoLk2xN8jezDxMAFs/zHklX1c1J3pjkpVV1IMlvZOnd3BuT3F5VSXLnGOPfjDHurapPJLkvS6fBrx1j/L+1GjwArGf17Jnq+TmrNo2La/u8hwEAa27P2J0nxmMrvYfrKD5xDACaEmkAaEqkAaApkQaApkQaAJoSaQBoSqQBoCmRBoCmRBoAmhJpAGhqpn+qErp79N++/pnbP3TDX89tHAf//aVHLJ///s+ftOfY/94jH/fy977w1wbmw5E0ADQl0gDQlEgDQFP+qUoAOIn8U5UAsA6INAA01eJ0d1U9muR/J3lpkr+f83A6MR9HMydHMh9HMydHMh9Hm/ec/JMxxg8dz4YtIn1YVe0dY2yb9zi6MB9HMydHMh9HMydHMh9HezHNidPdANCUSANAU90ivWveA2jGfBzNnBzJfBzNnBzJfBztRTMnra5JAwDP6nYkDQBMRBoAmmoR6aq6vKoeqKp9VXXdvMczD1V1QVXdUVX3V9W9VfWuaf2mqrq9qh6avp8z77GeTFV1SlV9uao+NS1fWFV7pvn4eFWdNu8xnkxVdXZV3VJVX532ldcv8j5SVb88/bzcU1U3V9Xpi7aPVNVHqupQVd2zbN2K+0Qt+f3pd+3dVfW6+Y18bRxjPt4//czcXVV/WlVnL7vv+mk+Hqiqy+Yz6mObe6Sr6pQkH0xyRZJXJXlHVb1qvqOai6eT/OoY40eTXJLk2mkerkuye4yxNcnuaXmRvCvJ/cuW35fkA9N8fDPJNXMZ1fz8XpI/H2P8SJKfyNLcLOQ+UlWbk/xikm1jjFcnOSXJ1Vm8feSjSS5/zrpj7RNXJNk6fe1McsNJGuPJ9NEcPR+3J3n1GOPHkzyY5PokmX7HXp3kx6bH/MHUpDbmHukkFyXZN8b42hjje0k+luTKOY/ppBtjPDLG+NJ0+9tZ+uW7OUtzceO02Y1JrprPCE++qtqS5KeSfGhariRvSnLLtMmizcdZSf5Fkg8nyRjje2OMx7PA+0iSDUl+oKo2JDkjySNZsH1kjPG5JI89Z/Wx9okrk/zRWHJnkrOr6ryTM9KTY6X5GGP8xRjj6WnxziRbpttXJvnYGOPJMcbXk+zLUpPa6BDpzUkeXrZ8YFq3sKrqFUlem2RPkpeNMR5JlkKe5Nz5jeyk+90kv5bkH6bllyR5fNkP26LtK69M8miSP5wuAXyoqs7Mgu4jY4y/TfLbSfZnKc7fSvLFLPY+ctix9gm/b5OfS/Jn0+3289Eh0iv9c10L+3dhVfWDSf4kyS+NMZ6Y93jmparekuTQGOOLy1evsOki7SsbkrwuyQ1jjNcm+U4W5NT2SqbrrFcmuTDJ+UnOzNLp3OdapH3k+Sz0z1BVvSdLlxZvOrxqhc1azUeHSB9IcsGy5S1JDs5pLHNVVadmKdA3jTE+Oa3+xuHTUdP3Q/Ma30n2hiRvrar/laVLIG/K0pH12dOpzWTx9pUDSQ6MMfZMy7dkKdqLuo/8ZJKvjzEeHWM8leSTSS7NYu8jhx1rn1jY37dVtSPJW5K8czz7ASHt56NDpL+QZOv0jszTsnQR/7Y5j+mkm663fjjJ/WOM31l2121Jdky3dyS59WSPbR7GGNePMbaMMV6RpX3iL8cY70xyR5K3TZstzHwkyRjj75I8XFU/PK3anuS+LOg+kqXT3JdU1RnTz8/h+VjYfWSZY+0TtyX5meld3pck+dbh0+LrWVVdnuTdSd46xvjusrtuS3J1VW2sqguz9Ia6v5nHGI9pjDH3ryRvztI77v5nkvfMezxzmoN/nqXTLHcnuWv6enOWrsPuTvLQ9H3TvMc6h7l5Y5JPTbdfmaUfon1J/luSjfMe30mei9ck2TvtJ/89yTmLvI8k+Y9JvprkniR/nGTjou0jSW7O0jX5p7J0ZHjNsfaJLJ3e/eD0u/YrWXpn/Nz/G07CfOzL0rXnw79b//Oy7d8zzccDSa6Y9/if++VjQQGgqQ6nuwGAFYg0ADQl0gDQlEgDQFMiDQBNiTQANCXSANDU/wdy0lU8iqhP+wAAAABJRU5ErkJggg==\n",
      "text/plain": [
       "<Figure size 576x576 with 1 Axes>"
      ]
     },
     "metadata": {
      "needs_background": "light"
     },
     "output_type": "display_data"
    }
   ],
   "source": [
    "def process_msg(time, msg, last_on, matrix):\n",
    "    time = int(time)\n",
    "    if msg.type == 'control_change':\n",
    "        if msg.control == 64:\n",
    "            note = 128\n",
    "        elif msg.control == 67:\n",
    "            note = 129\n",
    "        else:\n",
    "            return\n",
    "        if msg.value <= 63 and last_on[note] >= 0:\n",
    "            duration = time - last_on[note]\n",
    "            if duration > 0:\n",
    "                matrix[last_on[note], note, 1] = duration\n",
    "            last_on[note] = -1\n",
    "        elif msg.value >= 64 and last_on[note] == -1:\n",
    "            matrix[time, note, 0] = 127\n",
    "            last_on[note] = time\n",
    "    if msg.type == 'note_on' and msg.velocity > 0:\n",
    "        note = int(msg.note)\n",
    "        matrix[time, note, 0] = int(msg.velocity)\n",
    "        last_on[note] = time\n",
    "    elif (msg.type == 'note_off' or (msg.type == 'note_on' and msg.velocity == 0)) and last_on[msg.note] >= 0:\n",
    "        note = int(msg.note)\n",
    "        duration = time - last_on[note]\n",
    "        if duration > 0:\n",
    "            matrix[last_on[note], note, 1] = duration\n",
    "        \n",
    "\n",
    "music_matrix = np.zeros((int(cumsum[-1]), 128 + 2, 2), dtype=np.int32)\n",
    "last_on = -np.ones(128 + 2, dtype=np.int32)\n",
    "for i in range(len(cleaned_midi)):\n",
    "    time = cumsum[i]\n",
    "    msg = cleaned_midi[i]\n",
    "    process_msg(time, msg, last_on, music_matrix)\n",
    "        \n",
    "plt.figure(figsize=(8, 8))\n",
    "plt.imshow(music_matrix[:127,:,0])"
   ]
  },
  {
   "cell_type": "code",
   "execution_count": 10,
   "metadata": {},
   "outputs": [
    {
     "data": {
      "text/plain": [
       "<matplotlib.image.AxesImage at 0x1fb3a839a90>"
      ]
     },
     "execution_count": 10,
     "metadata": {},
     "output_type": "execute_result"
    },
    {
     "data": {
      "image/png": "iVBORw0KGgoAAAANSUhEUgAAAekAAAHVCAYAAADVdgNBAAAABHNCSVQICAgIfAhkiAAAAAlwSFlzAAALEgAACxIB0t1+/AAAADl0RVh0U29mdHdhcmUAbWF0cGxvdGxpYiB2ZXJzaW9uIDMuMC4yLCBodHRwOi8vbWF0cGxvdGxpYi5vcmcvOIA7rQAAFWFJREFUeJzt3X+s5XV95/HX2xkYCoYAuhJkyILJxFZNXcwEsG66xulGtEb4QxOM2U5akskm7tb+SCqsfzT7X02b2jZp3UzESjfGH6W2EGN/kClds8kydfyxyA+RWezCFAq0iHQ18kM/+8f5DtyZudMZ7rl3znvueTySm3O+3/M953745Hvvk+/3e+6ZGmMEAOjnZYseAACwOpEGgKZEGgCaEmkAaEqkAaApkQaApkQaAJrasEhX1dVVdX9VHayqGzbq+wDAZlUb8WEmVbUlybeS/Pskh5J8Ocn7xhj3rvs3A4BNausGve4VSQ6OMR5Mkqr6TJJrkqwa6TNr2zgr52zQUACgjx/ke3l2PFMns+1GRfriJA+vWD6U5MrjbXxWzsmVtWuDhgIAfewf+056242K9Gr/h3DEefWq2pNkT5KclbM3aBgAcPraqDeOHUpyyYrl7UkeWbnBGGPvGGPnGGPnGdm2QcMAgNPXRkX6y0l2VNVlVXVmkuuS3LZB3wsANqUNOd09xni+qv5Tkr9MsiXJJ8YY92zE9wKAzWqjrklnjPHFJF/cqNcHgM3OJ44BQFMiDQBNiTQANCXSANCUSANAUyINAE2JNAA0JdIA0JRIA0BTIg0ATYk0ADQl0gDQlEgDQFMiDQBNiTQANCXSANCUSANAUyINAE2JNAA0JdIA0JRIA0BTIg0ATYk0ADQl0gDQlEgDQFMiDQBNiTQANCXSANCUSANAUyINAE2JNAA0JdIA0JRIA0BTIg0ATYk0ADQl0gDQlEgDQFMiDQBNiTQANCXSANCUSANAUyINAE2JNAA0JdIA0JRIA0BTIg0ATYk0ADQl0gDQlEgDQFMiDQBNiTQANCXSANCUSANAUyINAE2JNAA0JdIA0JRIA0BTIg0ATYk0ADQl0gDQ1JojXVWXVNUdVXVfVd1TVR+c1l9QVbdX1QPT7fnrN1wAWB7zHEk/n+RXxxg/keSqJB+oqtcluSHJvjHGjiT7pmUA4CVac6THGI+OMb463f/nJPcluTjJNUlunja7Ocm18w4SAJbRulyTrqpLk1yeZH+SC8cYjyazkCd51XGes6eqDlTVgefyzHoMAwA2lbkjXVUvT/InSX5pjPH0yT5vjLF3jLFzjLHzjGybdxgAsOnMFemqOiOzQH9qjPH5afVjVXXR9PhFSR6fb4gAsJzmeXd3JbkpyX1jjN9e8dBtSXZP93cnuXXtwwOA5bV1jue+Jcl/SPKNqvr6tO6/JPmNJJ+rquuTPJTkvfMNEQCW05ojPcb4n0nqOA/vWuvrAgAzPnEMAJoSaQBoSqQBoCmRBoCmRBoAmhJpAGhKpAGgKZEGgKZEGgCaEmkAaEqkAaApkQaApkQaAJoSaQBoSqQBoCmRBoCmRBoAmhJpAGhKpAGgKZEGgKZEGgCaEmkAaEqkAaApkQaApkQaAJoSaQBoSqQBoCmRBoCmRBoAmhJpAGhKpAGgKZEGgKZEGgCaEmkAaEqkAaApkQaApkQaAJoSaQBoSqQBoCmRBoCmRBoAmhJpAGhKpAGgKZEGgKZEGgCaEmkAaEqkAaApkQaApkQaAJoSaQBoSqQBoCmRBoCmRBoAmhJpAGhKpAGgKZEGgKZEGgCaEmkAaEqkAaCpuSNdVVuq6mtV9YVp+bKq2l9VD1TVZ6vqzPmHCQDLZz2OpD+Y5L4Vyx9J8tExxo4k30ly/Tp8DwBYOnNFuqq2J/nZJB+flivJ25LcMm1yc5Jr5/keALCs5j2S/p0kv5bkR9PyK5I8NcZ4flo+lOTiOb8HACylNUe6qt6V5PExxldWrl5l03Gc5++pqgNVdeC5PLPWYQDAprV1jue+Jcm7q+qdSc5Kcm5mR9bnVdXW6Wh6e5JHVnvyGGNvkr1Jcm5dsGrIAWCZrflIeoxx4xhj+xjj0iTXJfnrMcb7k9yR5D3TZruT3Dr3KAFgCW3E30l/KMmvVNXBzK5R37QB3wMANr15Tne/YIzxN0n+Zrr/YJIr1uN1AWCZ+cQxAGhKpAGgKZEGgKZEGgCaEmkAaEqkAaApkQaAptbl76QBgH/ZXz7y9STJFW///kk/x5E0ADQl0gDQlNPdALABtr7m0iOW3/7q2e23xj+d9Gs4kgaApkQaAJoSaQBoyjVpANgAzz/4d3O/hiNpAGhKpAGgKZEGgKZEGgCaEmkAaEqkAaApkQaApkQaAJoSaQBoSqQBoCmRBoCmRBoAmhJpAGhKpAGgKZEGgKZEGgCaEmkAaEqkAaApkQaApkQaAJoSaQBoSqQBoCmRBoCmRBoAmhJpAGhKpAGgKZEGgKZEGgCaEmkAaEqkAaApkQaApkQaAJoSaQBoSqQBoCmRBoCmRBoAmtq66AFwGqk6cnmMxYzjRFaOs+sYAU6CI2kAaEqkAaApkQaAplyT5uSdLtd3T5dxApyAI2kAaEqkAaApp7tZu9PhT51OhzECHIcjaQBoaq5IV9V5VXVLVX2zqu6rqjdX1QVVdXtVPTDdnr9egwWAZTLvkfTvJvmLMcaPJ3ljkvuS3JBk3xhjR5J90zIA8BKtOdJVdW6Sn05yU5KMMZ4dYzyV5JokN0+b3Zzk2nkHSVNjvPh1tKoXvxbpdBgjwHHMcyT9miRPJPnDqvpaVX28qs5JcuEY49EkmW5ftdqTq2pPVR2oqgPP5Zk5hgEAm9M8kd6a5E1JPjbGuDzJ9/ISTm2PMfaOMXaOMXaekW1zDAMANqd5In0oyaExxv5p+ZbMov1YVV2UJNPt4/MNkdPSv3SauYvTYYzAUltzpMcY/5Dk4ap67bRqV5J7k9yWZPe0bneSW+caIQAsqXk/zOQ/J/lUVZ2Z5MEkP59Z+D9XVdcneSjJe+f8HgCwlOaK9Bjj60l2rvLQrnlel81ty4Uvvpfwh4/1vBqy5ZWveOH+D//xnxY4EmCZ+cQxAGhKpAGgKZEGgKb8K1iccl2vQ6/kOjTQgSNpAGhKpAGgKZEGgKZEGgCaEmkAaEqkAaApf4IFABvg/733yiOWX/7H+4+z5fE5kgaApkQaAJpyuhsANsBaTm8fzZE0ADQl0gDQlEgDQFMiDQBNiTQANCXSANCUSANAUyINAE2JNAA0JdIA0JRIA0BTIg0ATYk0ADQl0gDQlEgDQFMiDQBNiTQANCXSANCUSANAUyINAE2JNAA0JdIA0JRIA0BTIg0ATYk0ADQl0gDQlEgDQFMiDQBNiTQANCXSANCUSANAUyINAE2JNAA0JdIA0JRIA0BTIg0ATYk0ADQl0gDQlEgDQFMiDQBNiTQANCXSANCUSANAUyINAE2JNAA0NVekq+qXq+qeqrq7qj5dVWdV1WVVtb+qHqiqz1bVmes1WABYJmuOdFVdnOQXk+wcY7whyZYk1yX5SJKPjjF2JPlOkuvXY6AAsGzmPd29NcmPVdXWJGcneTTJ25LcMj1+c5Jr5/weALCU1hzpMcbfJ/mtJA9lFufvJvlKkqfGGM9Pmx1KcvG8gwSAZTTP6e7zk1yT5LIkr05yTpJ3rLLpOM7z91TVgao68FyeWeswAGDTmud0988k+fYY44kxxnNJPp/kp5KcN53+TpLtSR5Z7cljjL1jjJ1jjJ1nZNscwwCAzWmeSD+U5KqqOruqKsmuJPcmuSPJe6Ztdie5db4hAsBymuea9P7M3iD21STfmF5rb5IPJfmVqjqY5BVJblqHcQLA0qkxVr1kfEqdWxeMK2vXoocBABtu/9iXp8eTdTLb+sQxAGhKpAGgKZEGgKZEGgCaEmkAaEqkAaApkQaApkQaAJoSaQBoSqQBoCmRBoCmRBoAmhJpAGhKpAGgKZEGgKZEGgCaEmkAaEqkAaApkQaApkQaAJrauugBQEc/+neXv3D/Zf/ja2t6jfHmN75wv/7X/z6p7U607claj/EDi+dIGgCaEmkAaEqkAaCpGmMsegw5ty4YV9auRQ8DADbc/rEvT48n62S2dSQNAE2JNAA0JdIA0JRIA0BTIg0ATYk0ADQl0gDQlEgDQFMiDQBNiTQANCXSANCUSANAUyINAE2JNAA0JdIA0JRIA0BTIg0ATYk0ADQl0gDQlEgDQFMiDQBNiTQANCXSANCUSANAUyINAE2JNAA0JdIA0JRIA0BTIg0ATYk0ADQl0gDQlEgDQFMiDQBNiTQANCXSANDUCSNdVZ+oqser6u4V6y6oqtur6oHp9vxpfVXV71XVwaq6q6retJGDB4DN7GSOpD+Z5Oqj1t2QZN8YY0eSfdNykrwjyY7pa0+Sj63PMAFg+Zww0mOMLyV58qjV1yS5ebp/c5JrV6z/ozFzZ5Lzquqi9RosACyTtV6TvnCM8WiSTLevmtZfnOThFdsdmtYdo6r2VNWBqjrwXJ5Z4zAAYPNa7zeO1SrrxmobjjH2jjF2jjF2npFt6zwMADj9rTXSjx0+jT3dPj6tP5TkkhXbbU/yyNqHBwDLa62Rvi3J7un+7iS3rlj/c9O7vK9K8t3Dp8UBgJdm64k2qKpPJ3lrkldW1aEkv57kN5J8rqquT/JQkvdOm38xyTuTHEzy/SQ/vwFjBoClcMJIjzHed5yHdq2y7UjygXkHBQD4xDEAaEukAaApkQaApkQaAJoSaQBoSqQBoCmRBoCmRBoAmhJpAGhKpAGgKZEGgKZEGgCaEmkAaEqkAaApkQaApkQaAJoSaQBoSqQBoCmRBoCmRBoAmhJpAGhKpAGgKZEGgKZEGgCaEmkAaEqkAaApkQaApkQaAJoSaQBoSqQBoKmtix4AAGxGW17/2iOWf3jP/S/5NRxJA0BTIg0ATYk0ADTlmjQAbIC1XIM+miNpAGhKpAGgKZEGgKZEGgCaEmkAaEqkAaApkQaApkQaAJoSaQBoSqQBoCmRBoCmRBoAmhJpAGhKpAGgKZEGgKZEGgCaEmkAaEqkAaApkQaApkQaAJoSaQBoSqQBoCmRBoCmRBoAmjphpKvqE1X1eFXdvWLdb1bVN6vqrqr606o6b8VjN1bVwaq6v6revlEDB4DN7mSOpD+Z5Oqj1t2e5A1jjJ9M8q0kNyZJVb0uyXVJXj895w+qasu6jRYAlsgJIz3G+FKSJ49a91djjOenxTuTbJ/uX5PkM2OMZ8YY305yMMkV6zheAFga63FN+heS/Pl0/+IkD6947NC0DgB4ibbO8+Sq+nCS55N86vCqVTYbx3nuniR7kuSsnD3PMABgU1pzpKtqd5J3Jdk1xjgc4kNJLlmx2fYkj6z2/DHG3iR7k+TcumDVkAPAMlvT6e6qujrJh5K8e4zx/RUP3ZbkuqraVlWXJdmR5G/nHyYALJ8THklX1aeTvDXJK6vqUJJfz+zd3NuS3F5VSXLnGOM/jjHuqarPJbk3s9PgHxhj/HCjBg8Am1m9eKZ6cc6tC8aVtWvRwwCADbd/7MvT48nV3sN1DJ84BgBNiTQANCXSANCUSANAUyINAE2JNAA0JdIA0JRIA0BTIg0ATYk0ADQ11z9VCd297KyzXrj/ox/8YGHjqDPOPGJ5PPfsGl7kqE8RPMmP9F05B8li5wF4aRxJA0BTIg0ATYk0ADTlmjSbWpfrr2u6Bn3Mi6ztn5XtMgfAS+dIGgCaEmkAaKrGGk+hresgqp5I8n+TvDLJPy54OJ2Yj2OZkyOZj2OZkyOZj2Mtek7+9RjjX53Mhi0ifVhVHRhj7Fz0OLowH8cyJ0cyH8cyJ0cyH8c6nebE6W4AaEqkAaCpbpHeu+gBNGM+jmVOjmQ+jmVOjmQ+jnXazEmra9IAwIu6HUkDABORBoCmWkS6qq6uqvur6mBV3bDo8SxCVV1SVXdU1X1VdU9VfXBaf0FV3V5VD0y35y96rKdSVW2pqq9V1Rem5cuqav80H5+tqjNP9BqbSVWdV1W3VNU3p33lzcu8j1TVL08/L3dX1aer6qxl20eq6hNV9XhV3b1i3ar7RM383vS79q6qetPiRr4xjjMfvzn9zNxVVX9aVeeteOzGaT7ur6q3L2bUx7fwSFfVliS/n+QdSV6X5H1V9brFjmohnk/yq2OMn0hyVZIPTPNwQ5J9Y4wdSfZNy8vkg0nuW7H8kSQfnebjO0muX8ioFud3k/zFGOPHk7wxs7lZyn2kqi5O8otJdo4x3pBkS5Lrsnz7yCeTXH3UuuPtE+9IsmP62pPkY6dojKfSJ3PsfNye5A1jjJ9M8q0kNybJ9Dv2uiSvn57zB1OT2lh4pJNckeTgGOPBMcazST6T5JoFj+mUG2M8Osb46nT/nzP75XtxZnNx87TZzUmuXcwIT72q2p7kZ5N8fFquJG9Lcsu0ybLNx7lJfjrJTUkyxnh2jPFUlngfyewfCfqxqtqa5Owkj2bJ9pExxpeSPHnU6uPtE9ck+aMxc2eS86rqolMz0lNjtfkYY/zVGOP5afHOJNun+9ck+cwY45kxxreTHMysSW10iPTFSR5esXxoWre0qurSJJcn2Z/kwjHGo8ks5EletbiRnXK/k+TXkvxoWn5FkqdW/LAt277ymiRPJPnD6RLAx6vqnCzpPjLG+Pskv5Xkoczi/N0kX8ly7yOHHW+f8Ps2+YUkfz7dbz8fHSJdq6xb2r8Lq6qXJ/mTJL80xnh60eNZlKp6V5LHxxhfWbl6lU2XaV/ZmuRNST42xrg8yfeyJKe2VzNdZ70myWVJXp3knMxO5x5tmfaRE1nqn6Gq+nBmlxY/dXjVKpu1mo8OkT6U5JIVy9uTPLKgsSxUVZ2RWaA/Ncb4/LT6scOno6bbxxc1vlPsLUneXVV/l9klkLdldmR93nRqM1m+feVQkkNjjP3T8i2ZRXtZ95GfSfLtMcYTY4znknw+yU9lufeRw463Tyzt79uq2p3kXUneP178gJD289Eh0l9OsmN6R+aZmV3Ev23BYzrlpuutNyW5b4zx2yseui3J7un+7iS3nuqxLcIY48YxxvYxxqWZ7RN/PcZ4f5I7krxn2mxp5iNJxhj/kOThqnrttGpXknuzpPtIZqe5r6qqs6efn8PzsbT7yArH2yduS/Jz07u8r0ry3cOnxTezqro6yYeSvHuM8f0VD92W5Lqq2lZVl2X2hrq/XcQYj2uMsfCvJO/M7B13/yfJhxc9ngXNwb/N7DTLXUm+Pn29M7PrsPuSPDDdXrDosS5gbt6a5AvT/ddk9kN0MMkfJ9m26PGd4rn4N0kOTPvJnyU5f5n3kST/Nck3k9yd5L8n2bZs+0iST2d2Tf65zI4Mrz/ePpHZ6d3fn37XfiOzd8Yv/L/hFMzHwcyuPR/+3frfVmz/4Wk+7k/yjkWP/+gvHwsKAE11ON0NAKxCpAGgKZEGgKZEGgCaEmkAaEqkAaApkQaApv4/hcZHNFcp2mAAAAAASUVORK5CYII=\n",
      "text/plain": [
       "<Figure size 576x576 with 1 Axes>"
      ]
     },
     "metadata": {
      "needs_background": "light"
     },
     "output_type": "display_data"
    }
   ],
   "source": [
    "plt.figure(figsize=(8, 8))\n",
    "plt.imshow(music_matrix[:127,:,1])"
   ]
  },
  {
   "cell_type": "markdown",
   "metadata": {},
   "source": [
    "### Generate MIDI from music matrix\n",
    "\n",
    "Now we can reliably generate a music matrix from a midi file. Instead of doing that, now we try to see if we can generate a midi music file from the music matrix. This is also to verify that our matrix representation contains enough information to recreate a music"
   ]
  },
  {
   "cell_type": "code",
   "execution_count": 82,
   "metadata": {},
   "outputs": [],
   "source": [
    "new_midi = mido.MidiFile(type=0)\n",
    "new_midi.ticks_per_beat = 8\n",
    "track = mido.MidiTrack()\n",
    "new_midi.tracks.append(track)\n",
    "\n",
    "track.append(mido.MetaMessage('set_tempo', tempo=tempo, time=0))\n",
    "track.append(mido.MetaMessage('time_signature', numerator=numerator, denominator=denominator, \n",
    "                         clocks_per_click=24, notated_32nd_notes_per_beat=8, time=0))\n",
    "track.append(mido.MetaMessage('track_name', name='Test Track', time=0))\n",
    "\n",
    "T, N, D = music_matrix.shape\n",
    "note_ends = np.zeros((T+1, N))\n",
    "for t in range(T):\n",
    "    for n in range(N):\n",
    "        if music_matrix[t, n, 0] > 0:\n",
    "            note_ends[music_matrix[t, n, 1] + t, n] = 1\n",
    "prev_event_t = 0\n",
    "for t in range(T):\n",
    "    for n in range(N-2):\n",
    "        velocity = music_matrix[t, n, 0]\n",
    "        if velocity > 0:\n",
    "            track.append(mido.Message('note_on', note=n, velocity=velocity, time=t-prev_event_t))\n",
    "            prev_event_t = t\n",
    "        if note_ends[t, n] == 1:\n",
    "            track.append(mido.Message('note_on', note=n, velocity=0, time=t-prev_event_t))\n",
    "            prev_event_t = t\n",
    "    if music_matrix[t, N-2, 0] == 127:\n",
    "        track.append(mido.Message('control_change', control=64, value=127, time=t-prev_event_t))\n",
    "        prev_event_t = t\n",
    "    if music_matrix[t, N-1, 0] == 127:\n",
    "        track.append(mido.Message('control_change', control=67, value=127, time=t-prev_event_t))\n",
    "        prev_event_t = t\n",
    "    if note_ends[t, N-2] == 1:\n",
    "        track.append(mido.Message('control_change', control=64, value=0, time=t-prev_event_t))\n",
    "        prev_event_t = t\n",
    "    if note_ends[t, N-1] == 1:\n",
    "        track.append(mido.Message('control_change', control=67, value=0, time=t-prev_event_t))\n",
    "        prev_event_t = t\n",
    "\n"
   ]
  },
  {
   "cell_type": "code",
   "execution_count": 83,
   "metadata": {},
   "outputs": [],
   "source": [
    "new_midi.save('temp.midi')"
   ]
  },
  {
   "cell_type": "markdown",
   "metadata": {},
   "source": [
    "### Processing multiple files into this format\n",
    "\n",
    "Now that we have processed everything, we can try running the preprocessing steps on all our midi files and get our data matrix. First, let us abstract all the preprocessing done above into functions"
   ]
  },
  {
   "cell_type": "code",
   "execution_count": 11,
   "metadata": {},
   "outputs": [],
   "source": [
    "def gather_midi_info(midi):\n",
    "    if midi.type != 0:\n",
    "        print('midi is not single track, ignore')\n",
    "        return None\n",
    "    midi_info = {}\n",
    "    midi_info['tempo'] = -1\n",
    "    midi_info['numerator'] = 4\n",
    "    midi_info['denominator'] = 4\n",
    "    for msg in midi.tracks[0]:\n",
    "        if msg.is_meta and msg.type == 'time_signature':\n",
    "            midi_info['numerator'] = msg.numerator\n",
    "            midi_info['denominator'] = msg.denominator\n",
    "            if msg.denominator != 4:\n",
    "                print('midi is not quarter note beat, ignore')\n",
    "                return None\n",
    "        if msg.is_meta and msg.type == 'set_tempo' and midi_info['tempo'] == -1:\n",
    "            midi_info['tempo'] = msg.tempo\n",
    "    midi_info['ticks_per_beat'] = midi.ticks_per_beat\n",
    "    return midi_info\n",
    "\n",
    "def process_msg(time, msg, last_on, matrix):\n",
    "    time = int(time)\n",
    "    if msg.type == 'control_change':\n",
    "        if msg.control == 64:\n",
    "            note = 128\n",
    "        elif msg.control == 67:\n",
    "            note = 129\n",
    "        else:\n",
    "            return\n",
    "        if msg.value <= 63 and last_on[note] >= 0:\n",
    "            duration = time - last_on[note]\n",
    "            if duration > 0:\n",
    "                matrix[last_on[note], note, 1] = duration\n",
    "            last_on[note] = -1\n",
    "        elif msg.value >= 64 and last_on[note] == -1:\n",
    "            matrix[time, note, 0] = 127\n",
    "            last_on[note] = time\n",
    "    if msg.type == 'note_on' and msg.velocity > 0:\n",
    "        note = int(msg.note)\n",
    "        matrix[time, note, 0] = int(msg.velocity)\n",
    "        last_on[note] = time\n",
    "    elif (msg.type == 'note_off' or (msg.type == 'note_on' and msg.velocity == 0)) and last_on[msg.note] >= 0:\n",
    "        note = int(msg.note)\n",
    "        duration = time - last_on[note]\n",
    "        if duration > 0:\n",
    "            matrix[last_on[note], note, 1] = duration\n",
    "        \n",
    "def process_single_midi(midi):\n",
    "    cleaned_midi = [msg for msg in midi.tracks[0] if not msg.is_meta and hasattr(msg, 'time')]\n",
    "    cumsum = np.cumsum(np.array([msg.time for msg in cleaned_midi])) / (midi.ticks_per_beat / 8)\n",
    "    music_matrix = np.zeros((int(cumsum[-1]) + 1, 128 + 2, 2), dtype=np.int32)\n",
    "    last_on = -np.ones(128 + 2, dtype=np.int32)\n",
    "    for i in range(len(cleaned_midi)):\n",
    "        time = cumsum[i]\n",
    "        msg = cleaned_midi[i]\n",
    "        process_msg(time, msg, last_on, music_matrix)\n",
    "    return music_matrix"
   ]
  },
  {
   "cell_type": "code",
   "execution_count": 12,
   "metadata": {},
   "outputs": [],
   "source": [
    "def load_midis(base_fpath):\n",
    "    fpaths = []\n",
    "    for (root, dirnames, filenames) in os.walk(base_fpath):\n",
    "        fpaths += [os.path.join(root, filename) for filename in filenames]\n",
    "    return [mido.MidiFile(fpath) for fpath in fpaths]\n",
    "classicals = load_midis('TPD/classical/')\n",
    "jazzs = load_midis('TPD/jazz/')"
   ]
  },
  {
   "cell_type": "code",
   "execution_count": 13,
   "metadata": {},
   "outputs": [],
   "source": [
    "a = process_single_midi(classicals[10])"
   ]
  },
  {
   "cell_type": "code",
   "execution_count": 14,
   "metadata": {},
   "outputs": [
    {
     "data": {
      "text/plain": [
       "<matplotlib.image.AxesImage at 0x1fb21446128>"
      ]
     },
     "execution_count": 14,
     "metadata": {},
     "output_type": "execute_result"
    },
    {
     "data": {
      "image/png": "iVBORw0KGgoAAAANSUhEUgAAAekAAAHVCAYAAADVdgNBAAAABHNCSVQICAgIfAhkiAAAAAlwSFlzAAALEgAACxIB0t1+/AAAADl0RVh0U29mdHdhcmUAbWF0cGxvdGxpYiB2ZXJzaW9uIDMuMC4yLCBodHRwOi8vbWF0cGxvdGxpYi5vcmcvOIA7rQAAGudJREFUeJzt3X+sZnV9J/D3Z/kptBMY5PdQwQ3b1ppWXZZhcNMYpy3ouk7d1RTX2FlLJEvYlqqxgJrWbVxXQ62lGzubUVRqDOr6YyHGimSqMRtgcFSiKCpTWWEckCkjjivKj+13/7jP3B/MvTL3Pve5z3fu83olk3vOuee5z2cO586bz/f7nHOqtRYAoD//bNwFAADzE9IA0CkhDQCdEtIA0CkhDQCdEtIA0CkhDQCdGllIV9WFVfXtqtpZVVeO6n0AYLWqUdzMpKoOS/KdJL+dZFeSLyV5ZWvtm8v+ZgCwSh0+op97bpKdrbXvJklVfSTJpiTzhvSRdVQ7OseOqBQ4dD3x9Jnfi8P/8ScH/brHT5553RE/OPjXAaP3s/wkj7VH62D2HVVIn57kvlnru5KsX2jno3Ns1tfGEZUCh66H/t2G6eUT3nvrQb9u9+bzp5dPu/qWZa0JGM72tu2g9x1VSM/3fwhzxtWr6pIklyTJ0TlmRGUAwKFrVCG9K8kZs9bXJdk9e4fW2tYkW5NkTa31lA+Yx2K659l0z7A6jOrT3V9KcnZVnVVVRya5KMmNI3ovAFiVRtJJt9aeqKr/nOSmJIcleX9r7RujeC8AWK1GNdyd1tpnknxmVD8fAFa7kYU0sDR7XzPzie61H1janDSwOrgtKAB0SkgDQKcMd0NnDHED++mkAaBTQhoAOiWkAaBT5qQZiZ+95Nzp5aM/ffsYK1nYvleeN7285vrblv3n/3DzzKVUx1+3tHnmBy+beVDGSe85+Ft9/vj3Zv5uv/jRhf9uD712aQ/wAFaGThoAOiWkAaBT1dr4H0C1ptY2z5MGYBJsb9uyr+2d75HOB9BJA0CnhDQAdEpIA0CnhDQAdEpIA0CnhDQAdEpIA0CnhDQAdEpIA0CnhDQAdEpIA0CnhDQAdEpIA0CnhDQAdEpIA0CnhDQAdEpIA0CnhDQAdEpIA0CnhDQAdEpIA0CnhDQAdEpIA0CnDh93AaxOj//OOdPLR3xuxxgrWdgjL1s/vXzMp7aPsZKFLbXGh1+9YXr5uA/duqw1AStHJw0AnRLSANApIQ0AnTInzUj0Og89W6/z0LP99Okz/x99zCJe98gpNb183DLWA6wsnTQAdEpIA0CnqrU27hqypta29bVx3GUAwMhtb9uyr+2tp95TJw0A3RLSANApn+6Gzux9zczdwtZ+wN3CYJLppAGgU0IaADolpAGgU+akoTPmoYH9dNIA0CkhDQCdMtzNSPzsJedOLx/96dvHWMnC9r3yvOnlNdfftuw//4ebZy6lOv66pQ1hP3jZ+dPLJ73nloN+3Y9/b+bv9osfXfjv9tBrZ2o84b2G2aE3OmkA6JSQBoBOCWkA6JSnYAHACvIULABYBYQ0AHRKSANAp4Q0AHRqySFdVWdU1eer6q6q+kZVXT7Yvraqbq6quwdfj1++cgFgcgzTST+R5A2ttV9Ncl6Sy6rqWUmuTLKttXZ2km2DdQBgkZYc0q21+1trXxks/zjJXUlOT7IpyXWD3a5L8rvDFgkAk2hZ5qSr6swkz02yPcnJrbX7k6kgT3LSAq+5pKp2VNWOx/PocpQBAKvK0CFdVb+Q5BNJ/ri1tu9gX9da29paO6e1ds4ROWrYMgBg1RkqpKvqiEwF9Idba58cbP5BVZ06+P6pSR4crkQAmEzDfLq7klyb5K7W2l/O+taNSTYPljcnuWHp5QHA5BrmedLPT/LqJF+vqjsG296U5B1JPlZVFye5N8krhisRACbTkkO6tfa/kyx0g3BPywCAIbnjGAB0SkgDQKeENAB0SkgDQKeENAB0SkgDQKeENAB0SkgDQKeENAB0SkgDQKeGuXc3LOjx3zlnevmIz+0YYyULe+Rl66eXj/nU9jFWsrCl1vjwqzdMLx/3oVuXtSZg5eikAaBTQhoAOlWttXHXkDW1tq0vD84CYPXb3rZlX9u70FMk59BJA0CnhDQAdMqnu6FjD7125lPaJ7z34D+lvfuN508vn3b1LctaE7BydNIA0CkhDQCdEtIA0CmXYAHACnIJFgCsAkIaADrlEizozN7XzFx2tfYDHo4Bk0wnDQCdEtIA0CkhDQCdMicNnTEPDeynkwaATglpAOiU4W7o2A/+cOZpVif/d0+zgkmjkwaATglpAOiUkAaATpmTho6Zh4bJppMGgE4JaQDolOFuGJFxPs1qz6Uz733iloXfe9ebZi7xWvd2Q+vQG500AHRKSANAp6q1Nu4asqbWtvW1cdxlAMDIbW/bsq/trYPZVycNAJ0S0gDQKSENAJ1yCRasAg+9dsOc9RPeu7KXfAGjoZMGgE4JaQDolOFuWAUMb8PqpJMGgE4JaQDolJAGgE6Zk4ZV6P43zDzd6tR3eboVHKp00gDQKSENAJ0y3A2rkCFuWB100gDQKSENAJ0S0gDQKXPS0LHZT7caxa0/H7h85lKtU65Z2jz2vW89f876L73VfDgsl6E76ao6rKq+WlWfHqyfVVXbq+ruqvpoVR05fJkAMHmWY7j78iR3zVp/Z5J3t9bOTvLDJBcvw3sAwMSp1trSX1y1Lsl1Sf5rktcn+bdJ9iQ5pbX2RFVtSPLW1toFP+/nrKm1bX1tXHIdAHCo2N62ZV/bWwez77Cd9F8l+ZMk/zRYPyHJw621Jwbru5KcPuR7AMBEWnJIV9VLkjzYWvvy7M3z7Dpvq15Vl1TVjqra8XgeXWoZALBqDfPp7ucneWlVvTjJ0UnWZKqzPq6qDh900+uS7J7vxa21rUm2JlPD3UPUASzCg5fNfBr7pPf4JDb0bMmddGvtqtbautbamUkuSvL3rbVXJfl8kpcPdtuc5IahqwSACTSKm5lckeT1VbUzU3PU147gPQBg1VuWm5m01r6Q5AuD5e8mOXc5fi4ATDJ3HIMJYx4aDh3u3Q0AnRLSANApw90wwb5/xczlWKe/0zA49EYnDQCdEtIA0CkhDQCdMicNE8w8NPRNJw0AnRLSANApw92wCq3kk67uf8P5c9ZPfdfBvd89b98wvXzWm25d1ppgtdBJA0CnhDQAdEpIA0CnqrU27hqypta29bVx3GUAwMhtb9uyr+2tg9lXJw0AnRLSANApl2ABi/bA5TOXXZ1yjbuWwajopAGgU0IaADpluBtYNEPcsDJ00gDQKSENAJ0S0gDQKXPSwFDue8vcp2Cd8Tbz1bBcdNIA0CkhDQCdMtwNDMXwNoyOThoAOiWkAaBTQhoAOmVOGibYOJ9mteuqmfde998Wfu9/uHrDnPV//sZbR1YT9EYnDQCdEtIA0KlqrY27hqyptW19bRx3GQAwctvbtuxre+tg9tVJA0CnhDQAdEpIA0CnXIIFrIjdb5z7tKzTrnY7UXgqOmkA6JSQBoBOGe4GVoThbVg8nTQAdEpIA0CnDHcDY/G9P595cMYz/tRDM2A+OmkA6JSQBoBOCWkA6JQ5aSbWnktn5kRP3GJOdKnuf8PcO4md+q6Du9RqJeehv/OBfzln/V+85ssr9t4wDJ00AHRKSANAp6q1Nu4asqbWtvW1cdxlAMCyuWn3HXPWLzjtOUmS7W1b9rW9dTA/QycNAJ0S0gDQKSENAJ1yCRYs0k83nTu9/LQbbh9jJUDP9s9BD0MnDQCdEtIA0CnD3bBIhriBlaKTBoBODRXSVXVcVX28qr5VVXdV1YaqWltVN1fV3YOvxy9XsQAwSYbtpK9J8tnW2q8k+Y0kdyW5Msm21trZSbYN1gGARVrynHRVrUnym0n+Y5K01h5L8lhVbUrygsFu1yX5QpIrhikSDkUu1QKGNUwn/cwke5J8oKq+WlXvq6pjk5zcWrs/SQZfT5rvxVV1SVXtqKodj+fRIcoAgNVpmJA+PMnzkmxprT03yU+yiKHt1trW1to5rbVzjshRQ5QBAKvTMJdg7Uqyq7W2fbD+8UyF9A+q6tTW2v1VdWqSB4ctEg5FhriBYS25k26tPZDkvqr65cGmjUm+meTGJJsH2zYnuWGoCgFgQg17M5M/TPLhqjoyyXeTvCZTwf+xqro4yb1JXjHkewDARBoqpFtrdyQ5Z55vbRzm5wJTfEIcJps7jgFAp4Q0AHRKSANApzwFCzpmHhomm04aADolpAGgU4a7mVh7Lt0wvXzillvHWAnA/HTSANApIQ0AnRLSANApc9JMLPPQQO900gDQKSENAJ0y3A2L9MjL1k8vH/Op7WOsBFjtdNIA0CkhDQCdMtwNi2SIG1gpOmkA6JSQBoBOCWkA6JQ5aRgRl2oBw9JJA0CnhDQAdMpwN4yIIW5gWDppAOiUkAaATglpAOiUOWnomMu4YLLppAGgU0IaADpluBs6ZogbJptOGgA6JaQBoFNCGgA6ZU6aibXn0g3TyyduuXWMlQDMTycNAJ0S0gDQKcPdTCxD3EDvdNIA0CkhDQCdMtwNi/STfz/z0ItjP+GOYMDo6KQBoFNCGgA6JaQBoFPmpGGRzEMDK0UnDQCdEtIA0CnD3TAiLtUChqWTBoBOCWkA6JSQBoBOmZOGETEPDQxLJw0AnRLSANApw93QMZdxwWTTSQNAp4Q0AHRKSANAp8xJQ8fMQ8NkG6qTrqrXVdU3qurOqrq+qo6uqrOqantV3V1VH62qI5erWACYJEsO6ao6PckfJTmntfbsJIcluSjJO5O8u7V2dpIfJrl4OQoFgEkz7HD34UmeVlWPJzkmyf1JXpjkPwy+f12StybZMuT7wLLbc+mG6eUTt9w6xkoYhXveMfPf96wr/ffl0LTkTrq19v0kf5Hk3kyF84+SfDnJw621Jwa77Upy+rBFAsAkGma4+/gkm5KcleS0JMcmedE8u7YFXn9JVe2oqh2P59GllgEAq9Yww92/leSe1tqeJKmqTyY5P8lxVXX4oJtel2T3fC9urW1NsjVJ1tTaeYMcRskQ9+pmiJvVYJhPd9+b5LyqOqaqKsnGJN9M8vkkLx/ssznJDcOVCACTaZg56e1JPp7kK0m+PvhZW5NckeT1VbUzyQlJrl2GOgFg4lRr4x9pXlNr2/raOO4yAGDktrdt2df21sHs645jsEieTHXo+d6fb5iz/ow/NV/NocG9uwGgU0IaADplThoAVtBi5qR10gDQKSENAJ0S0gDQKZdgMbFG/RSs5bhUy+VeSzf7KViH/9+5039nvO2WefdL3E6UvuikAaBTQhoAOuUSLABYQS7BAoBVQEgDQKeENAB0yiVYMISfbjp3evlpN9w+xkqA3ty0+4456xec9pxF/wydNAB0SkgDQKcMd8MQDHEDC1nK8PaT6aQBoFNCGgA6ZbgbxsCnwpfH9684f3r59Hfe8nP2hEOTThoAOiWkAaBTQhoAOuUpWACwgjwFCwBWASENAJ1yCRZ0zKVaMNl00gDQKSENAJ0S0gDQKXPS0DHz0DDZdNIA0CkhDQCdMtzNxHrotRuml094761jrISf5763nD9n/Yy3edoVk0MnDQCdEtIA0CkhDQCd8hQsAFhBnoIFAKuAkAaATrkEC4bw2IX/anr5yM9+aYyVAKuRThoAOiWkAaBThrthCIa4gVHSSQNAp4Q0AHRKSANAp8xJwxi4dGuu3W+c+6Sr0672pCtIdNIA0C0hDQCd8oANAFhBHrABAKuAkAaATglpAOiUS7CgYy7VgsmmkwaATglpAOiU4W7omCFumGw6aQDo1FOGdFW9v6oerKo7Z21bW1U3V9Xdg6/HD7ZXVf11Ve2sqq9V1fNGWTwArGYH00l/MMmFT9p2ZZJtrbWzk2wbrCfJi5KcPfhzSZIty1MmAEyep5yTbq19sarOfNLmTUleMFi+LskXklwx2P63bepeo7dV1XFVdWpr7f7lKhiWy0MXb5hePuHaW8dYyWS65+0zx/+sNzn+MJ+lzkmfvD94B19PGmw/Pcl9s/bbNdh2gKq6pKp2VNWOx/PoEssAgNVruT84Nt8Nw+d9gkdrbWtr7ZzW2jlH5KhlLgMADn1LvQTrB/uHsavq1CQPDrbvSnLGrP3WJdk9TIEwKoa4x8sQNzy1pXbSNybZPFjenOSGWdt/f/Ap7/OS/Mh8NAAszVN20lV1faY+JPb0qtqV5M+SvCPJx6rq4iT3JnnFYPfPJHlxkp1JHknymhHUDAAT4WA+3f3KBb61cZ59W5LLhi0KDhWPvnjmARhHfcbdwYAZN+2+Y876Bac9Z9E/wx3HAKBTQhoAOiWkAaBTnoIFQzAPDSxkKXPQT6aTBoBOCWkA6JThbhgRl2clD7zu/OnlU959yxgrgUOTThoAOiWkAaBTQhoAOlVTd/IcrzW1tq2vA+4yCgCrzva2Lfva3vke7XwAnTQAdEpIA0CnXIIFnXHpFrCfThoAOiWkAaBThruhM4a4gf100gDQKSENAJ0S0gDQKXPSTKyHLt4wvXzCtbeOsRKW6t63zjxl65fe6ilbrD46aQDolJAGgE55wAYArCAP2ACAVUBIA0CnhDQAdMolWDCEn246d3r5aTfcPsZKgNVIJw0AnRLSANApw90wBEPcwCjppAGgU0IaADolpAGgU+akmVh7Lp15CtaJW5b/KVhLvTxrEi/ruu8t589ZP+NtM0+0euDyud875RpPu2Jy6KQBoFNCGgA65SlYADACN+2+Y876Bac9J4mnYAHAqiCkAaBTPt0NizSJn74GFm//8PYwdNIA0CkhDQCdEtIA0Clz0rBI5qGBlaKTBoBOCWkA6JThbhgRl2oBw9JJA0CnhDQAdEpIA0CnzEnDiJiHBoalkwaATglpAOiU4W7omMu4YLLppAGgU0IaADolpAGgU+akoWPmoWGyPWUnXVXvr6oHq+rOWduurqpvVdXXqupTVXXcrO9dVVU7q+rbVXXBqAoHgNXuYIa7P5jkwidtuznJs1trv57kO0muSpKqelaSi5L82uA1f1NVhy1btQAwQZ5yuLu19sWqOvNJ2z43a/W2JC8fLG9K8pHW2qNJ7qmqnUnOTXLrslQLy2jPpRuml0/c4hRdaQ9cfv708inX3DLGSqBfy/HBsT9I8neD5dOT3Dfre7sG2wCARRrqg2NV9eYkTyT58P5N8+zWFnjtJUkuSZKjc8wwZQDAqrTkkK6qzUlekmRja21/EO9Kcsas3dYl2T3f61trW5NsTZI1tXbeIIdRMsQ9Xoa44aktabi7qi5MckWSl7bWHpn1rRuTXFRVR1XVWUnOTuIaEgBYgqfspKvq+iQvSPL0qtqV5M8y9Wnuo5LcXFVJcltr7T+11r5RVR9L8s1MDYNf1lr7f6MqHgBWs5oZqR6fNbW2ra+N4y4DAEZue9uWfW3vfJ/hOoA7jsEiPfKy9dPLx3xq+xgrAXp20+475qxfcNpzFv0z3LsbADolpAGgU4a7YZEMcQMHYynD20+mkwaATglpAOiUkAaATpmThhFxqRYwLJ00AHRKSANApwx3w4gY4gaGpZMGgE4JaQDolJAGgE6Zk4aOuYwLJptOGgA6JaQBoFPVWht3DamqPUm+l+TpSf5xzOX0xPE4kGMyl+NxIMdkLsfjQOM+Js9orZ14MDt2EdL7VdWO1to5466jF47HgRyTuRyPAzkmczkeBzqUjonhbgDolJAGgE71FtJbx11AZxyPAzkmczkeB3JM5nI8DnTIHJOu5qQBgBm9ddIAwICQBoBOdRHSVXVhVX27qnZW1ZXjrmccquqMqvp8Vd1VVd+oqssH29dW1c1Vdffg6/HjrnUlVdVhVfXVqvr0YP2sqto+OB4fraojx13jSqqq46rq41X1rcG5smGSz5Gqet3g9+XOqrq+qo6etHOkqt5fVQ9W1Z2zts17TtSUvx78W/u1qnre+CofjQWOx9WD35mvVdWnquq4Wd+7anA8vl1VF4yn6oWNPaSr6rAk70nyoiTPSvLKqnrWeKsaiyeSvKG19qtJzkty2eA4XJlkW2vt7CTbBuuT5PIkd81af2eSdw+Oxw+TXDyWqsbnmiSfba39SpLfyNSxmchzpKpOT/JHSc5prT07yWFJLsrknSMfTHLhk7YtdE68KMnZgz+XJNmyQjWupA/mwONxc5Jnt9Z+Pcl3klyVJIN/Yy9K8muD1/zNIJO6MfaQTnJukp2tte+21h5L8pEkm8Zc04prrd3fWvvKYPnHmfrH9/RMHYvrBrtdl+R3x1PhyquqdUn+TZL3DdYryQuTfHywy6QdjzVJfjPJtUnSWnustfZwJvgcydRDgp5WVYcnOSbJ/Zmwc6S19sUke5+0eaFzYlOSv21TbktyXFWdujKVroz5jkdr7XOttScGq7clWTdY3pTkI621R1tr9yTZmalM6kYPIX16kvtmre8abJtYVXVmkucm2Z7k5Nba/clUkCc5aXyVrbi/SvInSf5psH5Ckodn/bJN2rnyzCR7knxgMAXwvqo6NhN6jrTWvp/kL5Lcm6lw/lGSL2eyz5H9Fjon/Hub/EGSvxssd388egjpmmfbxF4XVlW/kOQTSf64tbZv3PWMS1W9JMmDrbUvz948z66TdK4cnuR5Sba01p6b5CeZkKHt+QzmWTclOSvJaUmOzdRw7pNN0jnyVCb6d6iq3pypqcUP7980z25dHY8eQnpXkjNmra9LsntMtYxVVR2RqYD+cGvtk4PNP9g/HDX4+uC46lthz0/y0qr6P5maAnlhpjrr4wZDm8nknSu7kuxqre1/sPTHMxXak3qO/FaSe1pre1prjyf5ZJLzM9nnyH4LnRMT++9tVW1O8pIkr2ozNwjp/nj0ENJfSnL24BOZR2ZqEv/GMde04gbzrdcmuau19pezvnVjks2D5c1Jbljp2sahtXZVa21da+3MTJ0Tf99ae1WSzyd5+WC3iTkeSdJaeyDJfVX1y4NNG5N8MxN6jmRqmPu8qjpm8Puz/3hM7Dkyy0LnxI1Jfn/wKe/zkvxo/7D4alZVFya5IslLW2uPzPrWjUkuqqqjquqsTH2g7vZx1Lig1trY/yR5caY+cfcPSd487nrGdAz+daaGWb6W5I7Bnxdnah52W5K7B1/XjrvWMRybFyT59GD5mZn6JdqZ5H8mOWrc9a3wsXhOkh2D8+R/JTl+ks+RJP8lybeS3JnkQ0mOmrRzJMn1mZqTfzxTneHFC50TmRrefc/g39qvZ+qT8WP/O6zA8diZqbnn/f+2/o9Z+795cDy+neRF467/yX/cFhQAOtXDcDcAMA8hDQCdEtIA0CkhDQCdEtIA0CkhDQCdEtIA0Kn/D4ZzHc1ZOA3yAAAAAElFTkSuQmCC\n",
      "text/plain": [
       "<Figure size 576x576 with 1 Axes>"
      ]
     },
     "metadata": {
      "needs_background": "light"
     },
     "output_type": "display_data"
    }
   ],
   "source": [
    "plt.figure(figsize=(8, 8))\n",
    "plt.imshow(a[:127,:,0])"
   ]
  },
  {
   "cell_type": "code",
   "execution_count": 15,
   "metadata": {},
   "outputs": [],
   "source": [
    "classical_infos = []\n",
    "classical_matrices = []\n",
    "for midi in classicals:\n",
    "    midi_info = gather_midi_info(midi)\n",
    "    if not midi_info:\n",
    "        continue\n",
    "    matrix = process_single_midi(midi)\n",
    "    classical_matrices += [matrix]\n",
    "    classical_infos += [(midi_info['tempo'], midi_info['numerator'])]"
   ]
  },
  {
   "cell_type": "code",
   "execution_count": 16,
   "metadata": {},
   "outputs": [],
   "source": [
    "jazz_infos = []\n",
    "jazz_matrices = []\n",
    "for midi in jazzs:\n",
    "    midi_info = gather_midi_info(midi)\n",
    "    if not midi_info:\n",
    "        continue\n",
    "    matrix = process_single_midi(midi)\n",
    "    jazz_matrices += [matrix]\n",
    "    jazz_infos += [(midi_info['tempo'], midi_info['numerator'])]"
   ]
  },
  {
   "cell_type": "code",
   "execution_count": 17,
   "metadata": {},
   "outputs": [
    {
     "data": {
      "text/plain": [
       "(6278, 130, 2)"
      ]
     },
     "execution_count": 17,
     "metadata": {},
     "output_type": "execute_result"
    }
   ],
   "source": [
    "jazz_matrices[0].shape"
   ]
  },
  {
   "cell_type": "code",
   "execution_count": 18,
   "metadata": {},
   "outputs": [],
   "source": [
    "np.save('matricies/classical_matrices.npy', classical_matrices)\n",
    "np.save('matricies/jazz_matrices.npy', jazz_matrices)"
   ]
  },
  {
   "cell_type": "code",
   "execution_count": 19,
   "metadata": {},
   "outputs": [],
   "source": [
    "np.save('matricies/classical_infos.npy', classical_infos)\n",
    "np.save('matricies/jazz_infos.npy', jazz_infos)"
   ]
  },
  {
   "cell_type": "markdown",
   "metadata": {},
   "source": [
    "To verify that the music matrix generated is good, we will randomly pick a music and listen to it to see if it is ok."
   ]
  },
  {
   "cell_type": "code",
   "execution_count": 115,
   "metadata": {},
   "outputs": [],
   "source": [
    "def generate(midi_info, music_matrix):\n",
    "    new_midi = mido.MidiFile(type=0)\n",
    "    new_midi.ticks_per_beat = 8\n",
    "    track = mido.MidiTrack()\n",
    "    new_midi.tracks.append(track)\n",
    "\n",
    "    track.append(mido.MetaMessage('set_tempo', tempo=midi_info['tempo'], time=0))\n",
    "    track.append(mido.MetaMessage('time_signature', numerator=midi_info['numerator'], \n",
    "                                  denominator=midi_info['denominator'], \n",
    "                                  clocks_per_click=24, notated_32nd_notes_per_beat=8, time=0))\n",
    "    track.append(mido.MetaMessage('track_name', name='Test Track', time=0))\n",
    "\n",
    "    T, N, D = music_matrix.shape\n",
    "    note_ends = np.zeros((T+1, N))\n",
    "    for t in range(T):\n",
    "        for n in range(N):\n",
    "            if music_matrix[t, n, 0] > 0:\n",
    "                note_ends[music_matrix[t, n, 1] + t, n] = 1\n",
    "    prev_event_t = 0\n",
    "    for t in range(T):\n",
    "        for n in range(N-2):\n",
    "            velocity = music_matrix[t, n, 0]\n",
    "            if velocity > 0:\n",
    "                track.append(mido.Message('note_on', note=n, velocity=velocity, time=t-prev_event_t))\n",
    "                prev_event_t = t\n",
    "            if note_ends[t, n] == 1:\n",
    "                track.append(mido.Message('note_on', note=n, velocity=0, time=t-prev_event_t))\n",
    "                prev_event_t = t\n",
    "        if music_matrix[t, N-2, 0] == 127:\n",
    "            track.append(mido.Message('control_change', control=64, value=127, time=t-prev_event_t))\n",
    "            prev_event_t = t\n",
    "        if music_matrix[t, N-1, 0] == 127:\n",
    "            track.append(mido.Message('control_change', control=67, value=127, time=t-prev_event_t))\n",
    "            prev_event_t = t\n",
    "        if note_ends[t, N-2] == 1:\n",
    "            track.append(mido.Message('control_change', control=64, value=0, time=t-prev_event_t))\n",
    "            prev_event_t = t\n",
    "        if note_ends[t, N-1] == 1:\n",
    "            track.append(mido.Message('control_change', control=67, value=0, time=t-prev_event_t))\n",
    "            prev_event_t = t\n",
    "    return new_midi\n"
   ]
  },
  {
   "cell_type": "code",
   "execution_count": 116,
   "metadata": {},
   "outputs": [],
   "source": [
    "classicals[10].save('original.midi')\n",
    "new_midi = generate(gather_midi_info(classicals[10]), a)\n",
    "new_midi.save('generated.midi')"
   ]
  },
  {
   "cell_type": "markdown",
   "metadata": {},
   "source": [
    "The generated music sounds good! We will later use this method to generate music."
   ]
  },
  {
   "cell_type": "code",
   "execution_count": null,
   "metadata": {},
   "outputs": [],
   "source": []
  }
 ],
 "metadata": {
  "kernelspec": {
   "display_name": "Python 3",
   "language": "python",
   "name": "python3"
  },
  "language_info": {
   "codemirror_mode": {
    "name": "ipython",
    "version": 3
   },
   "file_extension": ".py",
   "mimetype": "text/x-python",
   "name": "python",
   "nbconvert_exporter": "python",
   "pygments_lexer": "ipython3",
   "version": "3.6.6"
  }
 },
 "nbformat": 4,
 "nbformat_minor": 2
}
